<?xml version="1.0" standalone="no"?>
<!DOCTYPE svg PUBLIC "-//W3C//DTD SVG 1.1//EN" "http://www.w3.org/Graphics/SVG/1.1/DTD/svg11.dtd" >
<svg xmlns="http://www.w3.org/2000/svg" xmlns:xlink="http://www.w3.org/1999/xlink" version="1.1">
<metadata>
Created by FontForge 20170731 at Thu Jun  3 18:04:52 2021
 By Aleksey,,,
Copyright (c) 2019 Monotype Imaging Inc. All rights reserved.
</metadata>
<defs>
<font id="HelveticaNowDisplay-Regular" horiz-adv-x="0" >
  <font-face 
    font-family="Helvetica Now Display"
    font-weight="400"
    font-stretch="normal"
    units-per-em="2048"
    panose-1="2 11 5 4 3 2 2 2 2 4"
    ascent="1792"
    descent="-256"
    x-height="1057"
    cap-height="1458"
    bbox="-737 -659 2550 2140"
    underline-thickness="102"
    underline-position="-409"
    unicode-range="U+000D-FEFF"
  />
<missing-glyph horiz-adv-x="1296" 
d="M1163 0h-1030v1458h1030v-1458zM305 1303v-1147h686v1147h-686z" />
    <glyph glyph-name="fi" unicode="fi" horiz-adv-x="1044" 
d="M205 1057v108q0 297 295 297q38 0 104 -4v-139h-94q-141 0 -141 -150v-112h225v-144h-225v-913h-164v913h-174v144h174zM752 1217v200h174v-200h-174zM922 0h-164v1057h164v-1057z" />
    <glyph glyph-name="fl" unicode="fl" horiz-adv-x="1024" 
d="M205 1057v108q0 297 295 297q38 0 104 -4v-139h-94q-141 0 -141 -150v-112h225v-144h-225v-913h-164v913h-174v144h174zM737 0v1458h164v-1458h-164z" />
    <glyph glyph-name=".notdef" horiz-adv-x="1296" 
d="M1163 0h-1030v1458h1030v-1458zM305 1303v-1147h686v1147h-686z" />
    <glyph glyph-name="uni0000" 
 />
    <glyph glyph-name="uni0000" 
 />
    <glyph glyph-name="nonmarkingreturn" horiz-adv-x="681" 
 />
    <glyph glyph-name="uni000D" unicode="&#xd;" horiz-adv-x="389" 
 />
    <glyph glyph-name="space" unicode=" " horiz-adv-x="389" 
 />
    <glyph glyph-name="exclam" unicode="!" horiz-adv-x="391" 
d="M246 381h-107l-28 676v401h172v-401zM299 0h-207v205h207v-205z" />
    <glyph glyph-name="quotedbl" unicode="&#x22;" horiz-adv-x="823" 
d="M283 936h-127l-23 522h172zM668 936h-127l-23 522h172z" />
    <glyph glyph-name="numbersign" unicode="#" horiz-adv-x="1294" 
d="M1233 1020l-29 -139h-205l-63 -303h207l-29 -140h-205l-90 -438h-164l90 438h-313l-90 -438h-164l90 438h-207l29 140h205l63 303h-206l28 139h205l90 438h164l-90 -438h313l90 438h164l-90 -438h207zM459 578h313l64 303h-314z" />
    <glyph glyph-name="dollar" unicode="$" horiz-adv-x="1265" 
d="M573 -29q-241 19 -376 147.5t-136 362.5h179q6 -318 333 -352v555l-20 4q-222 50 -332 147.5t-110 274.5q0 167 124 268.5t338 112.5v205h144v-211q230 -22 342.5 -140.5t118.5 -310.5h-177q-11 133 -76.5 205t-207.5 90v-508l43 -10q242 -53 348 -152.5t106 -263.5
q0 -188 -130.5 -302t-366.5 -124v-207h-144v209zM1036 395q0 98 -73 156.5t-246 99.5v-526q155 11 237 79t82 191zM289 1110q0 -102 61 -159t223 -97v481q-138 -7 -211 -66.5t-73 -158.5z" />
    <glyph glyph-name="percent" unicode="%" horiz-adv-x="1820" 
d="M729 1034q0 -71 -10.5 -133t-36 -119.5t-64 -98.5t-98 -65t-135.5 -24q-93 0 -162 36.5t-107.5 100t-56.5 139t-18 164.5q0 210 88 326.5t256 116.5t256 -116.5t88 -326.5zM600 0h-158l779 1458h157zM199 1034q0 -311 186 -311t186 311q0 314 -186 314t-186 -314z
M1780 422q0 -71 -10.5 -133t-36 -119.5t-64 -98.5t-98 -65t-135.5 -24q-93 0 -162 36.5t-107.5 100t-56.5 139t-18 164.5q0 210 88 326t256 116t256 -116t88 -326zM1249 422q0 -311 187 -311q186 0 186 311q0 313 -186 313q-187 0 -187 -313z" />
    <glyph glyph-name="ampersand" unicode="&#x26;" horiz-adv-x="1347" 
d="M1065 315l283 -315h-222l-153 172q-175 -205 -471 -205q-121 0 -220.5 48.5t-160 142.5t-60.5 215q0 144 78.5 242.5t261.5 199.5q-94 107 -134 188t-40 166q0 148 104 235t255 87q150 0 253 -84.5t103 -230.5q0 -217 -299 -390l303 -337q41 118 41 256h166
q-6 -219 -88 -390zM584 1343q-81 0 -133 -48t-52 -126q0 -106 148 -274q117 64 170 128.5t53 145.5q0 75 -53.5 124.5t-132.5 49.5zM512 123q226 0 352 172l-366 412q-141 -75 -201.5 -147t-60.5 -179q0 -108 76 -183t200 -75z" />
    <glyph glyph-name="quotesingle" unicode="'" horiz-adv-x="438" 
d="M283 936h-127l-23 522h172z" />
    <glyph glyph-name="parenleft" unicode="(" horiz-adv-x="563" 
d="M543 -401h-154q-287 399 -287 1001q0 294 74.5 553t212.5 449h154q-145 -235 -206 -472.5t-61 -529.5q0 -291 61 -528.5t206 -472.5z" />
    <glyph glyph-name="parenright" unicode=")" horiz-adv-x="563" 
d="M174 -401h-154q145 235 206 472.5t61 528.5q0 292 -61 529.5t-206 472.5h154q138 -190 212.5 -449t74.5 -553q0 -602 -287 -1001z" />
    <glyph glyph-name="asterisk" unicode="*" horiz-adv-x="987" 
d="M494 924l-195 -269l-102 82l196 273l-311 100l43 123l303 -98v323h131v-323l303 98l43 -123l-311 -100l197 -273l-103 -82z" />
    <glyph glyph-name="plus" unicode="+" horiz-adv-x="1083" 
d="M623 803h378v-148h-378v-379h-160v379h-381v148h381v379h160v-379z" />
    <glyph glyph-name="comma" unicode="," horiz-adv-x="391" 
d="M92 0v205h207v-223q0 -247 -186 -265l-21 -2v111l14 2q76 9 76 139v33h-90z" />
    <glyph glyph-name="hyphen" unicode="-" horiz-adv-x="755" 
d="M674 504h-592v147h592v-147z" />
    <glyph glyph-name="period" unicode="." horiz-adv-x="391" 
d="M299 0h-207v205h207v-205z" />
    <glyph glyph-name="slash" unicode="/" horiz-adv-x="743" 
d="M190 0h-159l522 1458h160z" />
    <glyph glyph-name="zero" unicode="0" horiz-adv-x="1261" 
d="M1159 729q0 -116 -13 -217t-49 -204t-93 -176t-152.5 -119t-220.5 -46q-90 0 -165 24t-129 64.5t-95.5 99.5t-67.5 124.5t-42.5 143.5t-23 151.5t-6.5 154.5t6.5 154.5t23 151.5t42.5 143.5t67.5 124.5t95.5 99.5t129 64.5t165 24q125 0 220.5 -46t152.5 -119t93 -176
t49 -204t13 -217zM283 729q0 -606 348 -606t348 606t-348 606t-348 -606z" />
    <glyph glyph-name="one" unicode="1" horiz-adv-x="731" 
d="M459 1458h139v-1458h-172v1087h-332v136l33 2q156 11 231 61t101 172z" />
    <glyph glyph-name="two" unicode="2" horiz-adv-x="1122" 
d="M289 156h770v-156h-963l4 80q6 87 23 157.5t52.5 139t96 128t146.5 109.5l184 107q139 81 197.5 159t58.5 189q0 120 -77 193t-212 73q-305 0 -305 -313h-170q-1 222 125 345.5t354 123.5q130 0 234 -48t167.5 -145.5t63.5 -228.5q0 -282 -331 -475l-156 -90
q-135 -81 -195 -157.5t-67 -190.5z" />
    <glyph glyph-name="three" unicode="3" horiz-adv-x="1175" 
d="M860 776q244 -127 244 -366q0 -140 -70 -242t-182 -151.5t-250 -49.5q-243 0 -377.5 127t-132.5 346h170q4 -155 92 -236t248 -81q147 0 234.5 78t87.5 209q0 134 -89 212t-243 78h-109v144h99q145 0 224 65t79 183q0 115 -78.5 179t-214.5 64q-137 0 -218 -70t-87 -208
h-172q2 198 130.5 316t346.5 118q212 0 339.5 -105.5t127.5 -289.5q0 -209 -199 -320z" />
    <glyph glyph-name="four" unicode="4" horiz-adv-x="1191" 
d="M954 520h197v-155h-197v-365h-172v365h-731v165l717 928h186v-938zM782 520v713l-551 -713h551z" />
    <glyph glyph-name="five" unicode="5" horiz-adv-x="1185" 
d="M608 950q227 0 361.5 -132.5t134.5 -358.5q0 -222 -141.5 -357t-364.5 -135q-206 0 -345 119t-151 320h172q12 -131 102.5 -207t221.5 -76q143 0 234.5 93.5t91.5 242.5t-91.5 242.5t-234.5 93.5q-216 0 -299 -177h-160l123 840h754v-155h-615l-69 -459q118 106 276 106z
" />
    <glyph glyph-name="six" unicode="6" horiz-adv-x="1234" 
d="M645 950q222 0 360 -134.5t138 -356.5q0 -223 -139.5 -357.5t-362.5 -134.5q-192 0 -322 103q-119 96 -168 254.5t-49 398.5q0 362 140.5 565t402.5 203q191 0 318 -104.5t159 -288.5h-168q-25 115 -105 176t-204 61q-365 0 -371 -583q60 88 163.5 143t207.5 55zM315 459
q0 -147 90 -241.5t236 -94.5q144 0 233 95.5t89 240.5t-89 240.5t-233 95.5q-146 0 -236 -94t-90 -242z" />
    <glyph glyph-name="seven" unicode="7" horiz-adv-x="1017" 
d="M41 1303v155h936v-135q-503 -565 -524 -1323h-179q11 380 132.5 694t371.5 609h-737z" />
    <glyph glyph-name="eight" unicode="8" horiz-adv-x="1200" 
d="M858 782q127 -48 198.5 -143.5t71.5 -224.5q0 -111 -43 -198t-117 -140.5t-167.5 -81t-200.5 -27.5t-200.5 27.5t-167.5 81t-117 140.5t-43 198q0 129 71.5 224.5t198.5 143.5q-211 91 -211 310q0 99 38 176.5t104 125.5t149 72.5t178 24.5t178 -24.5t149 -72.5
t104 -125.5t38 -176.5q0 -219 -211 -310zM899 1092q0 82 -43.5 138.5t-109 80.5t-146.5 24t-146.5 -24t-109 -80.5t-43.5 -138.5q0 -121 86.5 -182.5t212.5 -61.5t212.5 61.5t86.5 182.5zM252 414q0 -97 49.5 -164.5t126 -97t172.5 -29.5t172.5 29.5t126 97t49.5 164.5
q0 146 -98.5 218.5t-249.5 72.5t-249.5 -72.5t-98.5 -218.5z" />
    <glyph glyph-name="nine" unicode="9" horiz-adv-x="1234" 
d="M915 1372q119 -96 168.5 -254.5t49.5 -398.5q0 -361 -138 -564.5t-395 -203.5q-196 0 -325.5 104t-161.5 289h168q25 -115 107.5 -176.5t211.5 -61.5q355 0 361 584q-60 -88 -163.5 -143t-207.5 -55q-222 0 -360 134.5t-138 356.5q0 221 140 356.5t362 135.5
q191 0 321 -103zM272 983q0 -145 89 -240.5t233 -95.5q146 0 236 94.5t90 241.5q0 148 -90 242t-236 94q-144 0 -233 -95.5t-89 -240.5z" />
    <glyph glyph-name="colon" unicode=":" horiz-adv-x="391" 
d="M299 801h-207v205h207v-205zM299 0h-207v205h207v-205z" />
    <glyph glyph-name="semicolon" unicode=";" horiz-adv-x="391" 
d="M92 799v205h207v-205h-207zM182 0h-90v205h207v-223q0 -247 -186 -265l-21 -2v111l14 2q76 9 76 139v33z" />
    <glyph glyph-name="less" unicode="&#x3c;" horiz-adv-x="1083" 
d="M1001 1210v-176l-299 -123q-218 -91 -448 -180q105 -41 448 -182l299 -123v-176l-919 395v170z" />
    <glyph glyph-name="equal" unicode="=" horiz-adv-x="1083" 
d="M1001 831h-919v148h919v-148zM1001 479h-919v148h919v-148z" />
    <glyph glyph-name="greater" unicode="&#x3e;" horiz-adv-x="1083" 
d="M82 1034v176l919 -395v-170l-919 -395v176l299 123q343 141 448 182q-230 89 -448 180z" />
    <glyph glyph-name="question" unicode="?" horiz-adv-x="1038" 
d="M582 381h-162q0 162 40.5 249t162.5 195q85 76 107 103t44 65q29 56 29 109q0 233 -271 233q-149 0 -226 -74t-87 -251h-168q1 236 126.5 358.5t348.5 122.5q212 0 331.5 -100t119.5 -287q0 -104 -51.5 -187.5t-163.5 -179.5q-78 -66 -112 -108.5t-50 -97.5t-18 -150z
M604 0h-207v205h207v-205z" />
    <glyph glyph-name="at" unicode="@" horiz-adv-x="1896" 
d="M956 1491q175 0 331.5 -52t276.5 -148t190.5 -244t70.5 -328q0 -76 -10 -148t-36.5 -146t-66.5 -129t-106 -89.5t-150 -34.5q-100 0 -167 45t-87 129q-85 -180 -287 -180q-173 0 -274.5 123t-101.5 336t101.5 335.5t274.5 122.5q172 0 254 -137v111h160v-559
q0 -187 133 -187q98 0 152.5 106.5t54.5 293.5q0 150 -57 272.5t-154.5 202.5t-226.5 123t-275 43q-214 0 -380.5 -94t-257.5 -262t-91 -382q0 -162 55.5 -297.5t153.5 -228.5t235 -145t298 -52q203 0 374 68v-139q-177 -68 -382 -68q-191 0 -355.5 61.5t-282 172.5
t-184.5 273t-67 355q0 256 113 456.5t314 310.5t457 110zM934 301q112 0 176 87.5t64 236.5t-64 236t-176 87q-114 0 -176 -86t-62 -237t62 -237.5t176 -86.5z" />
    <glyph glyph-name="A" unicode="A" horiz-adv-x="1425" 
d="M1395 0h-183l-170 424h-663l-168 -424h-180l581 1458h193zM446 596l-6 -16h541l-8 18q-19 46 -266 674q-136 -361 -261 -676z" />
    <glyph glyph-name="B" unicode="B" horiz-adv-x="1294" 
d="M991 758q252 -95 252 -348q0 -191 -123.5 -300.5t-349.5 -109.5h-637v1458h606q211 0 328 -105t117 -276q0 -217 -193 -319zM727 1303h-422v-482h422q141 0 215 65t74 185q0 108 -75 170t-214 62zM305 156h457q151 0 230 66t79 188q0 258 -311 258h-455v-512z" />
    <glyph glyph-name="C" unicode="C" horiz-adv-x="1435" 
d="M745 -33q-130 0 -239.5 39.5t-188.5 109.5t-135 166t-83 209t-27 238t27 238t83 209t135 166t188.5 109.5t239.5 39.5q236 0 402 -128.5t219 -373.5h-174q-46 174 -162.5 259t-284.5 85q-102 0 -185.5 -33t-139.5 -89.5t-94.5 -134t-56 -164.5t-17.5 -183q0 -120 29 -226
t86.5 -192t154.5 -136t223 -50q168 0 299 104q131 101 158 301h172q-27 -272 -207 -415q-183 -148 -422 -148z" />
    <glyph glyph-name="D" unicode="D" horiz-adv-x="1411" 
d="M133 1458h492q339 0 526.5 -194t187.5 -535q0 -338 -188.5 -533.5t-525.5 -195.5h-492v1458zM305 156h320q257 0 395.5 151t138.5 422t-138.5 422.5t-395.5 151.5h-320v-1147z" />
    <glyph glyph-name="E" unicode="E" horiz-adv-x="1198" 
d="M1147 1458v-155h-842v-465h760v-156h-760v-526h834v-156h-1006v1458h1014z" />
    <glyph glyph-name="F" unicode="F" horiz-adv-x="1138" 
d="M1098 1458v-155h-793v-465h711v-156h-711v-682h-172v1458h965z" />
    <glyph glyph-name="G" unicode="G" horiz-adv-x="1529" 
d="M797 594v156h620v-750h-141l-37 197q-163 -230 -477 -230q-162 0 -294 59.5t-218 163.5t-132 242t-46 297q0 162 45.5 300t131 241.5t218 162t297.5 58.5q250 0 424 -134t213 -376h-178q-19 111 -87 192t-164 120.5t-208 39.5q-102 0 -187 -32t-144.5 -88t-100.5 -132.5
t-60.5 -165t-19.5 -186.5t19.5 -186.5t60.5 -165t100.5 -132.5t144.5 -88t187 -32q101 0 192 34.5t158.5 95t107.5 149t40 190.5h-465z" />
    <glyph glyph-name="H" unicode="H" horiz-adv-x="1423" 
d="M1118 831v627h172v-1458h-172v672h-813v-672h-172v1458h172v-627h813z" />
    <glyph glyph-name="I" unicode="I" horiz-adv-x="438" 
d="M305 0h-172v1458h172v-1458z" />
    <glyph glyph-name="J" unicode="J" horiz-adv-x="1062" 
d="M950 414q0 -207 -119.5 -327t-326.5 -120t-325 120t-118 327v96h168v-96q0 -141 72.5 -216t202.5 -75t202 75t72 216v1044h172v-1044z" />
    <glyph glyph-name="K" unicode="K" horiz-adv-x="1359" 
d="M133 1458h172v-766l797 766h227l-622 -594l622 -864h-211l-536 750l-277 -265v-485h-172v1458z" />
    <glyph glyph-name="L" unicode="L" horiz-adv-x="1079" 
d="M305 1458v-1302h733v-156h-905v1458h172z" />
    <glyph glyph-name="M" unicode="M" horiz-adv-x="1718" 
d="M1034 653l326 805h225v-1458h-168v467q0 461 6 743q-48 -130 -129 -331l-360 -879h-148l-362 879q-81 201 -129 331q6 -282 6 -743v-467h-168v1458h225l338 -829q92 -226 166 -420q130 342 172 444z" />
    <glyph glyph-name="N" unicode="N" horiz-adv-x="1425" 
d="M1122 967v491h170v-1458h-209l-483 752q-218 346 -303 493q6 -285 6 -753v-492h-170v1458h209l483 -751q211 -335 303 -494q-6 285 -6 754z" />
    <glyph glyph-name="O" unicode="O" horiz-adv-x="1540" 
d="M1468 729q0 -161 -46.5 -299.5t-133.5 -241.5t-220.5 -162t-297.5 -59q-163 0 -296.5 59t-220.5 162.5t-134 242t-47 298.5q0 161 46.5 299.5t133.5 241.5t220.5 162t297.5 59q165 0 298.5 -58.5t220 -161.5t133 -241.5t46.5 -300.5zM252 729q0 -98 20 -187t61.5 -165.5
t102 -132t146 -87.5t188.5 -32t188.5 32t146 87.5t102 132t61.5 165.5t20 187t-20 187t-61.5 165.5t-102 132t-146 87.5t-188.5 32t-188.5 -32t-146 -87.5t-102 -132t-61.5 -165.5t-20 -187z" />
    <glyph glyph-name="P" unicode="P" horiz-adv-x="1292" 
d="M133 1458h606q231 0 357.5 -121t126.5 -327t-126.5 -327.5t-357.5 -121.5h-434v-561h-172v1458zM305 717h434q151 0 228 75.5t77 217.5t-77 217.5t-228 75.5h-434v-586z" />
    <glyph glyph-name="Q" unicode="Q" horiz-adv-x="1540" 
d="M1468 729q0 -351 -198 -561l188 -199l-104 -104l-199 209q-168 -107 -385 -107q-163 0 -296.5 59t-220.5 162.5t-134 242t-47 298.5q0 161 46.5 299.5t133.5 241.5t220.5 162t297.5 59q165 0 298.5 -58.5t220 -161.5t133 -241.5t46.5 -300.5zM770 125q152 0 268 72
l-184 194l104 105l193 -203q137 162 137 436q0 98 -20 187t-61.5 165.5t-102 132t-146 87.5t-188.5 32t-188.5 -32t-146 -87.5t-102 -132t-61.5 -165.5t-20 -187t20 -187t61.5 -165.5t102 -132t146 -87.5t188.5 -32z" />
    <glyph glyph-name="R" unicode="R" horiz-adv-x="1323" 
d="M1204 422l15 -236q9 -122 53 -186h-178q-44 65 -47 195l-7 155q-6 148 -66 210.5t-194 62.5h-475v-623h-172v1458h617q225 0 359 -104.5t134 -292.5q0 -134 -64 -225t-175 -127q185 -58 200 -287zM305 778h465q136 0 215.5 71t79.5 202q0 125 -82 188.5t-233 63.5h-445
v-525z" />
    <glyph glyph-name="S" unicode="S" horiz-adv-x="1265" 
d="M668 -33q-187 0 -321 54.5t-209.5 171t-76.5 288.5h179q6 -358 428 -358q178 0 273 69.5t95 202.5q0 104 -79 162.5t-275 101.5l-129 29q-222 50 -332 147.5t-110 274.5q0 173 135 277t362 104q125 0 223 -25t161.5 -67t105.5 -101.5t60 -124t20 -139.5h-177
q-12 157 -101.5 229t-291.5 72q-153 0 -236 -59.5t-83 -165.5q0 -40 12 -74t28 -57.5t47 -44.5t54.5 -33.5t66 -25.5t66 -19t68.5 -16l129 -29q242 -53 348 -152.5t106 -263.5q0 -198 -145 -313t-401 -115z" />
    <glyph glyph-name="T" unicode="T" horiz-adv-x="1251" 
d="M41 1458h1169v-155h-495v-1303h-178v1303h-496v155z" />
    <glyph glyph-name="U" unicode="U" horiz-adv-x="1372" 
d="M1260 541q0 -275 -150 -423.5t-424 -148.5t-423.5 148.5t-149.5 423.5v917h172v-917q0 -416 401 -416t401 416v917h173v-917z" />
    <glyph glyph-name="V" unicode="V" horiz-adv-x="1343" 
d="M801 535l332 923h180l-541 -1458h-192l-549 1458h182l338 -923q90 -252 125 -363q35 111 125 363z" />
    <glyph glyph-name="W" unicode="W" horiz-adv-x="1957" 
d="M1550 739l199 719h178l-414 -1458h-192l-209 743q-85 304 -133 494q-48 -190 -133 -494l-209 -743h-193l-413 1458h178l199 -719q96 -343 137 -522q72 283 139 526l199 715h192l199 -715q67 -243 139 -526q41 179 137 522z" />
    <glyph glyph-name="X" unicode="X" horiz-adv-x="1308" 
d="M1249 1458l-493 -704l522 -754h-201l-217 315q-73 103 -207 303q-45 -67 -209 -303l-221 -315h-192l526 748l-498 710h201l199 -289q133 -191 196 -290q29 43 201 292l201 287h192z" />
    <glyph glyph-name="Y" unicode="Y" horiz-adv-x="1347" 
d="M909 1118l213 340h195l-557 -872v-586h-172v586l-557 872h196l215 -342q139 -218 234 -377q145 242 233 379z" />
    <glyph glyph-name="Z" unicode="Z" horiz-adv-x="1228" 
d="M678 156h500v-156h-1127v156l643 825q67 87 256 326q-184 -4 -418 -4h-444v155h1075v-155l-647 -826q-46 -60 -256 -325q184 4 418 4z" />
    <glyph glyph-name="bracketleft" unicode="[" horiz-adv-x="647" 
d="M606 -401h-473v2003h473v-144h-309v-1716h309v-143z" />
    <glyph glyph-name="backslash" unicode="\" horiz-adv-x="743" 
d="M713 0h-160l-522 1458h159z" />
    <glyph glyph-name="bracketright" unicode="]" horiz-adv-x="647" 
d="M514 -401h-473v143h309v1716h-309v144h473v-2003z" />
    <glyph glyph-name="asciicircum" unicode="^" horiz-adv-x="890" 
d="M356 1458h179l346 -618h-174l-261 479q-1 -2 -7 -13t-18.5 -32.5t-25.5 -44.5l-211 -389h-174z" />
    <glyph glyph-name="underscore" unicode="_" horiz-adv-x="856" 
d="M858 -348h-860v143h860v-143z" />
    <glyph glyph-name="grave" unicode="`" horiz-adv-x="819" 
d="M608 1217h-145l-252 294h221z" />
    <glyph glyph-name="a" unicode="a" horiz-adv-x="1067" 
d="M987 133h60v-133q-40 -6 -91 -6q-166 0 -178 151q-111 -170 -344 -170q-174 0 -273.5 81.5t-99.5 228.5q0 286 392 327l151 17q166 18 166 145q0 88 -54.5 127t-183.5 39q-138 0 -198.5 -46.5t-67.5 -162.5h-164q21 350 430 350q398 0 398 -307v-590q0 -51 57 -51z
M442 115q139 0 233.5 83t94.5 220v125q-44 -36 -139 -45l-154 -19q-134 -17 -190 -62t-56 -128t53.5 -128.5t157.5 -45.5z" />
    <glyph glyph-name="b" unicode="b" horiz-adv-x="1204" 
d="M641 1081q159 0 272 -75t166.5 -198t53.5 -280q0 -156 -54 -279t-167 -198.5t-271 -75.5q-235 0 -362 189v-164h-156v1458h164v-553q126 176 354 176zM621 123q154 0 247 112t93 302q0 187 -91.5 292t-248.5 105q-87 0 -154 -32.5t-106.5 -89.5t-59.5 -128.5t-20 -155.5
q0 -66 12.5 -125t39 -110.5t65.5 -89t96 -59t127 -21.5z" />
    <glyph glyph-name="c" unicode="c" horiz-adv-x="1067" 
d="M561 -25q-117 0 -211.5 44t-154.5 120t-91.5 175.5t-31.5 213.5q0 115 31 214.5t90.5 175.5t154 119.5t213.5 43.5q188 0 309 -102.5t146 -280.5h-170q-20 112 -98 174t-187 62q-144 0 -230.5 -106t-86.5 -300q0 -193 87 -299t230 -106q109 0 188 62.5t99 176.5h168
q-26 -179 -150 -283t-305 -104z" />
    <glyph glyph-name="d" unicode="d" horiz-adv-x="1204" 
d="M918 905v553h163v-1458h-155v164q-127 -189 -363 -189q-157 0 -270 76t-167 199t-54 278q0 116 31.5 215.5t91.5 175t154.5 119t213.5 43.5q229 0 355 -176zM244 520q0 -174 86 -285.5t254 -111.5q70 0 127 21.5t96 59t65.5 89t39 110.5t12.5 125q0 189 -92 297.5
t-248 108.5q-154 0 -247 -112t-93 -302z" />
    <glyph glyph-name="e" unicode="e" horiz-adv-x="1116" 
d="M1044 528v-57h-802q12 -171 96 -258.5t229 -87.5q219 0 281 197h170q-43 -160 -160 -253.5t-295 -93.5q-157 0 -270 76t-167 199t-54 278q0 114 31.5 213t91 175.5t153.5 120.5t211 44q116 0 209.5 -44t153 -120.5t91 -176t31.5 -212.5zM559 932q-129 0 -211 -81
t-102 -233h622q-12 140 -94.5 227t-214.5 87z" />
    <glyph glyph-name="f" unicode="f" horiz-adv-x="655" 
d="M604 1319h-94q-141 0 -141 -150v-112h225v-144h-225v-913h-164v913h-174v144h174v108q0 297 295 297q38 0 104 -4v-139z" />
    <glyph glyph-name="g" unicode="g" horiz-adv-x="1204" 
d="M926 903v154h155v-1016q0 -218 -127 -342.5t-364 -124.5q-197 0 -315.5 90.5t-135.5 249.5h164q30 -201 287 -201q328 0 328 328v102q-125 -168 -355 -168q-157 0 -270 76t-167 199t-54 278q0 116 31.5 215.5t91.5 175t154.5 119t213.5 43.5q237 0 363 -178zM584 123
q156 0 248 108t92 297t-92 297.5t-248 108.5q-154 0 -247 -111t-93 -295t93 -294.5t247 -110.5z" />
    <glyph glyph-name="h" unicode="h" horiz-adv-x="1105" 
d="M610 1081q177 0 275 -96.5t98 -269.5v-715h-164v698q0 236 -241 236q-114 0 -203 -86q-88 -85 -88 -250v-598h-164v1458h164v-547q120 170 323 170z" />
    <glyph glyph-name="i" unicode="i" horiz-adv-x="409" 
d="M291 1217h-174v200h174v-200zM287 0h-164v1057h164v-1057z" />
    <glyph glyph-name="j" unicode="j" horiz-adv-x="409" 
d="M291 1217h-174v200h174v-200zM43 -408q-65 0 -88 2v142h68q100 0 100 90v1231h164v-1245q0 -220 -244 -220z" />
    <glyph glyph-name="k" unicode="k" horiz-adv-x="1032" 
d="M1022 0h-191l-356 567l-188 -176v-391h-164v1458h164v-874l489 473h217l-401 -381z" />
    <glyph glyph-name="l" unicode="l" horiz-adv-x="409" 
d="M287 0h-164v1458h164v-1458z" />
    <glyph glyph-name="m" unicode="m" horiz-adv-x="1720" 
d="M1235 1081q173 0 267.5 -99.5t94.5 -264.5v-717h-163v700q0 234 -222 234q-117 0 -193.5 -92.5t-76.5 -263.5v-578h-164v700q0 234 -221 234q-115 0 -192.5 -93.5t-77.5 -262.5v-578h-164v1057h156v-156q104 180 305 180q237 0 325 -198q110 198 326 198z" />
    <glyph glyph-name="n" unicode="n" horiz-adv-x="1105" 
d="M610 1081q177 0 275 -96.5t98 -269.5v-715h-164v698q0 236 -241 236q-114 0 -203 -86q-88 -85 -88 -250v-598h-164v1057h156v-158q120 182 331 182z" />
    <glyph glyph-name="o" unicode="o" horiz-adv-x="1167" 
d="M1096 528q0 -156 -59.5 -280.5t-177 -198.5t-275.5 -74t-275.5 74t-177 198.5t-59.5 280.5t59.5 280.5t177 198.5t275.5 74t275.5 -74t177 -198.5t59.5 -280.5zM244 528q0 -66 12.5 -125t39 -110.5t65.5 -89t96 -59t127 -21.5t127 21.5t96 59t65.5 89t39 110.5t12.5 125
q0 84 -20 155.5t-59.5 128.5t-106.5 89.5t-154 32.5t-154 -32.5t-106.5 -89.5t-59.5 -128.5t-20 -155.5z" />
    <glyph glyph-name="p" unicode="p" horiz-adv-x="1204" 
d="M641 1081q159 0 272 -75t166.5 -198t53.5 -280q0 -156 -54 -279t-167 -198.5t-271 -75.5q-227 0 -354 177v-553h-164v1458h156v-164q126 188 362 188zM621 123q154 0 247 112t93 302q0 187 -91.5 292t-248.5 105q-87 0 -154 -32.5t-106.5 -89.5t-59.5 -128.5t-20 -155.5
q0 -66 12.5 -125t39 -110.5t65.5 -89t96 -59t127 -21.5z" />
    <glyph glyph-name="q" unicode="q" horiz-adv-x="1204" 
d="M926 893v164h155v-1458h-163v553q-127 -177 -355 -177q-157 0 -270 76t-167 199t-54 278q0 116 31.5 215.5t91.5 175t154.5 119t213.5 43.5q237 0 363 -188zM244 520q0 -174 86 -285.5t254 -111.5q70 0 127 21.5t96 59t65.5 89t39 110.5t12.5 125q0 189 -92 297.5
t-248 108.5q-154 0 -247 -112t-93 -302z" />
    <glyph glyph-name="r" unicode="r" horiz-adv-x="724" 
d="M618 1073q42 0 56 -2v-158h-41q-163 0 -254.5 -80.5t-91.5 -230.5v-602h-164v1057h156v-187q108 203 339 203z" />
    <glyph glyph-name="s" unicode="s" horiz-adv-x="956" 
d="M496 -25q-425 0 -449 361h166q13 -118 78 -168.5t205 -50.5q254 0 254 164q0 72 -52.5 109t-189.5 63l-98 18q-330 62 -330 311q0 137 103 218t282 81q209 0 317 -89t113 -261h-164q-6 114 -69.5 161.5t-196.5 47.5q-105 0 -163 -41t-58 -115q0 -69 48.5 -104t164.5 -59
l94 -19q195 -38 279.5 -110t84.5 -201q0 -149 -111 -232.5t-308 -83.5z" />
    <glyph glyph-name="t" unicode="t" horiz-adv-x="636" 
d="M586 1057v-144h-217v-686q0 -90 120 -90h97v-137q-68 -6 -117 -6q-264 0 -264 219v700h-174v144h174v299h164v-299h217z" />
    <glyph glyph-name="u" unicode="u" horiz-adv-x="1105" 
d="M819 459v598h164v-1057h-156v158q-121 -183 -331 -183q-177 0 -275 97t-98 270v715h164v-699q0 -235 241 -235q114 0 203 86q88 85 88 250z" />
    <glyph glyph-name="v" unicode="v" horiz-adv-x="1021" 
d="M662 588l174 469h176l-416 -1057h-172l-414 1057h178l174 -471q136 -366 150 -410q30 90 150 412z" />
    <glyph glyph-name="w" unicode="w" horiz-adv-x="1593" 
d="M1257 580l150 477h176l-352 -1057h-172l-156 489q-70 229 -106 359q-52 -184 -109 -359l-153 -489h-173l-352 1057h176l150 -477q54 -170 115 -385q72 259 112 385l148 477h172l147 -477q26 -88 64.5 -214.5t50.5 -166.5q24 88 112 381z" />
    <glyph glyph-name="x" unicode="x" horiz-adv-x="1015" 
d="M985 1057l-383 -516l404 -541h-193l-57 80q-153 217 -248 344q-162 -217 -252 -346l-55 -78h-191l404 541l-383 516h192l82 -113q145 -198 205 -287q24 33 65.5 92t75.5 106.5t64 88.5l80 113h190z" />
    <glyph glyph-name="y" unicode="y" horiz-adv-x="980" 
d="M643 618l150 439h178l-447 -1223q-48 -132 -129 -187t-215 -55q-37 0 -98 7v137h96q141 0 193 131l37 98l-398 1092h180l150 -441q71 -208 152 -456q57 184 151 458z" />
    <glyph glyph-name="z" unicode="z" horiz-adv-x="997" 
d="M502 143h424v-143h-854v123l483 622q21 28 137 173q-128 -5 -225 -5h-375v144h805v-123l-483 -623q-35 -45 -84.5 -106t-53.5 -66q102 4 226 4z" />
    <glyph glyph-name="braceleft" unicode="{" horiz-adv-x="706" 
d="M666 -401h-138q-278 0 -278 256v544q0 64 -38.5 96t-129.5 33v144q91 1 129.5 33t38.5 96v545q0 256 278 256h138v-144h-131q-121 0 -121 -121v-561q0 -86 -37.5 -128t-122.5 -46v-4q85 -4 122.5 -46t37.5 -128v-561q0 -121 121 -121h131v-143z" />
    <glyph glyph-name="bar" unicode="|" horiz-adv-x="413" 
d="M281 -401h-148v2033h148v-2033z" />
    <glyph glyph-name="braceright" unicode="}" horiz-adv-x="706" 
d="M178 -401h-137v143h131q121 0 121 121v561q0 86 37.5 128t122.5 46v4q-85 4 -122.5 46t-37.5 128v561q0 121 -121 121h-131v144h137q279 0 279 -256v-545q0 -64 38.5 -96t129.5 -33v-144q-91 -1 -129.5 -33t-38.5 -96v-544q0 -256 -279 -256z" />
    <glyph glyph-name="asciitilde" unicode="~" horiz-adv-x="1083" 
d="M739 588q-83 0 -221 78q-115 65 -174 65q-101 0 -119 -133h-143q11 135 79 211t183 76q78 0 229 -80q119 -64 166 -64q98 0 119 133h143q-11 -135 -79 -210.5t-183 -75.5z" />
    <glyph glyph-name="uni00A0" unicode="&#xa0;" horiz-adv-x="389" 
 />
    <glyph glyph-name="exclamdown" unicode="&#xa1;" horiz-adv-x="391" 
d="M299 995h-207v205h207v-205zM283 -258h-172v401l28 676h107l37 -676v-401z" />
    <glyph glyph-name="cent" unicode="&#xa2;" horiz-adv-x="1067" 
d="M72 528q0 231 112 377.5t303 171.5v209h144v-209q159 -19 260.5 -119.5t124.5 -259.5h-170q-18 92 -75 151t-140 77v-795q86 19 142.5 77.5t74.5 153.5h168q-23 -159 -126.5 -260.5t-258.5 -121.5v-218h-144v218q-190 26 -302.5 173.5t-112.5 374.5zM487 926
q-115 -25 -179 -127t-64 -271q0 -166 65 -268t178 -129v795z" />
    <glyph glyph-name="sterling" unicode="&#xa3;" horiz-adv-x="1124" 
d="M301 575h-240v142h195q-1 5 -35 71q-94 184 -94 316q0 95 36 170t98.5 121.5t142 71t171.5 24.5q242 0 367 -123t131 -334h-178q-12 152 -89 226.5t-239 74.5q-127 0 -196.5 -62t-69.5 -169q0 -83 80 -254q35 -75 59 -133h449v-142h-412q4 -54 4 -65q0 -188 -190 -354
h782v-156h-987v156q116 81 168.5 161.5t52.5 192.5q0 35 -6 65z" />
    <glyph glyph-name="currency" unicode="&#xa4;" horiz-adv-x="1196" 
d="M1124 1174l-159 -160q98 -119 98 -285t-98 -285l159 -159l-106 -107l-164 164q-116 -70 -250 -70q-143 0 -256 76l-170 -170l-106 107l166 166q-92 125 -92 278.5t92 278.5l-166 166l106 106l170 -170q113 76 256 76q134 0 250 -70l164 164zM604 1016q-124 0 -205.5 -81
t-81.5 -206t81.5 -206t205.5 -81q126 0 206.5 80.5t80.5 206.5t-80.5 206.5t-206.5 80.5z" />
    <glyph glyph-name="yen" unicode="&#xa5;" horiz-adv-x="1347" 
d="M1122 1458h195l-467 -731h268v-141h-358v-154h358v-139h-358v-293h-172v293h-359v139h359v154h-359v141h269l-467 731h196l215 -342q139 -218 234 -377q145 242 233 379z" />
    <glyph glyph-name="brokenbar" unicode="&#xa6;" horiz-adv-x="413" 
d="M281 815h-148v817h148v-817zM281 -418h-148v817h148v-817z" />
    <glyph glyph-name="section" unicode="&#xa7;" horiz-adv-x="1157" 
d="M1106 414q0 -206 -252 -305q121 -106 121 -238q0 -138 -100 -217.5t-277 -79.5q-190 0 -291 89.5t-106 260.5h164q6 -113 64 -161t171 -48q211 0 211 156q0 44 -31 87t-73 73q-14 9 -53 33t-56 34l-176 105q-193 114 -277 215t-84 233q0 206 252 305q-120 105 -120 238
q0 138 99.5 217.5t276.5 79.5q190 0 291.5 -89.5t106.5 -260.5h-164q-6 113 -64.5 161t-171.5 48q-211 0 -211 -156q0 -44 31.5 -87t73.5 -71q23 -17 108 -69l176 -105q193 -114 277 -215t84 -233zM733 195q102 22 156.5 82.5t54.5 136.5q0 82 -56 146.5t-186 146.5
l-180 108q-64 39 -88 55q-102 -22 -156.5 -82.5t-54.5 -136.5q0 -82 56 -146.5t186 -146.5l180 -108q64 -39 88 -55z" />
    <glyph glyph-name="dieresis" unicode="&#xa8;" horiz-adv-x="819" 
d="M317 1217h-174v200h174v-200zM676 1217h-174v200h174v-200z" />
    <glyph glyph-name="copyright" unicode="&#xa9;" horiz-adv-x="1677" 
d="M1606 729q0 -215 -101 -389.5t-277 -273.5t-390 -99t-389.5 99t-276 273.5t-100.5 389.5t100.5 390t276 274.5t389.5 99.5q215 0 391 -99t276.5 -274t100.5 -391zM838 96q178 0 322 82.5t225 227t81 323.5t-80 324t-224 228t-324 83q-179 0 -323 -83.5t-224 -228.5
t-80 -323q0 -133 47.5 -250.5t130 -201.5t199 -132.5t250.5 -48.5zM846 268q-129 0 -223.5 64t-139.5 166.5t-45 230.5q0 211 111 336t297 125q158 0 259.5 -87t121.5 -237h-150q-17 92 -79.5 143.5t-151.5 51.5q-121 0 -189.5 -88t-68.5 -244q0 -155 68.5 -242.5
t189.5 -87.5q91 0 154.5 51.5t76.5 145.5h150q-23 -150 -125.5 -239t-255.5 -89z" />
    <glyph glyph-name="ordfeminine" unicode="&#xaa;" horiz-adv-x="962" 
d="M893 662h49v-125q-51 -7 -82 -7q-85 0 -124.5 34.5t-45.5 103.5q-96 -152 -305 -152q-150 0 -237 70.5t-87 197.5q0 252 342 287l136 14q75 7 109 36.5t34 86.5q0 71 -46.5 105.5t-152.5 34.5q-116 0 -167.5 -40.5t-57.5 -138.5h-160q15 308 385 308q357 0 357 -269v-495
q0 -51 53 -51zM406 643q118 0 197 68.5t79 191.5v103q-39 -31 -121 -39l-131 -15q-105 -11 -154 -49.5t-49 -111.5q0 -69 46.5 -108.5t132.5 -39.5z" />
    <glyph glyph-name="guillemotleft" unicode="&#xab;" horiz-adv-x="1034" 
d="M481 147l-348 285v191l348 284v-190l-233 -189l233 -190v-191zM553 623l348 284v-190l-233 -189l233 -190v-191l-348 285v191z" />
    <glyph glyph-name="logicalnot" unicode="&#xac;" horiz-adv-x="1083" 
d="M82 717v147h919v-526h-159v379h-760z" />
    <glyph glyph-name="uni00AD" unicode="&#xad;" horiz-adv-x="755" 
d="M674 504h-592v147h592v-147z" />
    <glyph glyph-name="registered" unicode="&#xae;" horiz-adv-x="1165" 
d="M82 1006q0 137 68 249t183 174t251 62q137 0 251 -62t181 -173.5t67 -249.5t-67 -250t-181 -174t-251 -62q-102 0 -194 37t-160 100.5t-108 154.5t-40 194zM584 616q167 0 282 112t115 278q0 168 -114.5 279.5t-282.5 111.5q-169 0 -284.5 -111t-115.5 -280
q0 -167 116.5 -278.5t283.5 -111.5zM778 907l6 -76q3 -42 25 -79h-92q-18 26 -21 79l-4 54q-5 44 -19.5 60t-51.5 16h-142v-209h-90v520h221q85 0 134 -38.5t49 -107.5q0 -88 -76 -122q55 -21 61 -97zM479 1042h139q82 0 82 74t-90 74h-131v-148z" />
    <glyph glyph-name="macron" unicode="&#xaf;" horiz-adv-x="819" 
d="M707 1217h-594v137h594v-137z" />
    <glyph glyph-name="degree" unicode="&#xb0;" horiz-adv-x="688" 
d="M606 1225q0 -107 -76.5 -179.5t-185.5 -72.5t-185.5 72.5t-76.5 179.5q0 108 76.5 179t185.5 71t185.5 -71t76.5 -179zM344 1096q56 0 92.5 37t36.5 92t-36.5 91t-92.5 36t-92.5 -36t-36.5 -91t37.5 -92t91.5 -37z" />
    <glyph glyph-name="plusminus" unicode="&#xb1;" horiz-adv-x="1083" 
d="M621 1182v-353h380v-147h-380v-350h-160v350h-379v147h379v353h160zM1001 0h-919v147h919v-147z" />
    <glyph glyph-name="twosuperior" unicode="&#xb2;" horiz-adv-x="681" 
d="M184 1210h467v-129h-631l3 58q6 131 66 217.5t202 144.5l57 23q146 59 146 164q0 129 -158 129q-77 0 -117.5 -42t-40.5 -112h-147q2 128 80.5 205.5t228.5 77.5q143 0 223 -72t80 -182q0 -185 -233 -287l-72 -31q-73 -31 -108.5 -68t-45.5 -96z" />
    <glyph glyph-name="threesuperior" unicode="&#xb3;" horiz-adv-x="714" 
d="M537 1532q66 -23 103.5 -77.5t37.5 -129.5q0 -118 -88 -190t-236 -72q-158 0 -245 76.5t-89 216.5h150q0 -170 184 -170q80 0 126 38t46 105q0 137 -180 137h-55v113h59q160 0 160 125q0 56 -41 87.5t-113 31.5q-148 0 -157 -129h-150q7 121 88.5 186.5t218.5 65.5
q139 0 220 -61.5t81 -166.5q0 -124 -120 -186z" />
    <glyph glyph-name="acute" unicode="&#xb4;" horiz-adv-x="819" 
d="M356 1217h-145l176 294h221z" />
    <glyph glyph-name="mu" unicode="&#xb5;" horiz-adv-x="1105" 
d="M819 459v598h164v-1057h-156v158q-121 -183 -331 -183q-120 0 -209 74v-450h-164v1458h164v-699q0 -235 241 -235q114 0 203 86q88 85 88 250z" />
    <glyph glyph-name="paragraph" unicode="&#xb6;" horiz-adv-x="1083" 
d="M670 0h-152v743q-205 0 -326.5 94t-121.5 259q0 362 483 362h397v-1458h-151v1303h-129v-1303z" />
    <glyph glyph-name="periodcentered" unicode="&#xb7;" horiz-adv-x="391" 
d="M299 627h-207v204h207v-204z" />
    <glyph glyph-name="cedilla" unicode="&#xb8;" horiz-adv-x="819" 
d="M412 -88h18q84 0 134 -45.5t50 -116.5q0 -94 -69 -145t-211 -51q-64 0 -125 12v94q57 -8 119 -8q60 0 94.5 25t34.5 69q0 84 -117 84q-39 0 -57 -2v78l82 104h133z" />
    <glyph glyph-name="onesuperior" unicode="&#xb9;" horiz-adv-x="444" 
d="M262 1927h131v-846h-157v605h-205v110q100 0 150.5 27.5t80.5 103.5z" />
    <glyph glyph-name="ordmasculine" unicode="&#xba;" horiz-adv-x="1062" 
d="M532 516q-209 0 -329.5 134t-120.5 345t120.5 346.5t329.5 135.5t329 -135.5t120 -346.5q0 -209 -121 -344t-328 -135zM250 995q0 -68 17 -128t50.5 -108t88.5 -76t126 -28q139 0 210 97.5t71 242.5q0 159 -75.5 250.5t-205.5 91.5t-206 -91t-76 -251z" />
    <glyph glyph-name="guillemotright" unicode="&#xbb;" horiz-adv-x="1034" 
d="M367 528l-234 189v190l348 -284v-191l-348 -285v191zM553 717v190l348 -284v-191l-348 -285v191l233 190z" />
    <glyph glyph-name="onequarter" unicode="&#xbc;" horiz-adv-x="1501" 
d="M905 334h293v340zM1348 846v-512h122v-129h-122v-205h-156v205h-426v149l424 492h158zM262 1458h131v-846h-157v605h-205v110q100 0 150.5 27.5t80.5 103.5zM391 0h-153l778 1458h153z" />
    <glyph glyph-name="onehalf" unicode="&#xbd;" horiz-adv-x="1562" 
d="M262 1458h131v-846h-157v605h-205v110q100 0 150.5 27.5t80.5 103.5zM391 0h-153l778 1458h153zM1065 129h467v-129h-631l2 57q6 131 66 218t202 145l58 22q145 59 145 164q0 129 -157 129q-77 0 -117.5 -41.5t-40.5 -111.5h-148q2 128 81 205t229 77q143 0 223 -72
t80 -182q0 -184 -234 -286l-71 -31q-73 -31 -108.5 -68t-45.5 -96z" />
    <glyph glyph-name="threequarters" unicode="&#xbe;" horiz-adv-x="1695" 
d="M678 856q0 -118 -88 -190t-236 -72q-158 0 -245 76.5t-89 216.5h150q0 -170 184 -170q80 0 126 38t46 105q0 137 -180 137h-55v113h59q160 0 160 125q0 56 -41 87.5t-113 31.5q-148 0 -157 -129h-150q7 121 88.5 186.5t218.5 65.5q139 0 220 -61.5t81 -166.5
q0 -57 -32 -107t-88 -79q66 -23 103.5 -77.5t37.5 -129.5zM438 0l779 1458h153l-778 -1458h-154zM1542 334h123v-129h-123v-205h-156v205h-425v149l423 492h158v-512zM1393 334v340l-293 -340h293z" />
    <glyph glyph-name="questiondown" unicode="&#xbf;" horiz-adv-x="1038" 
d="M641 995h-207v205h207v-205zM512 -291q-212 0 -331.5 100t-119.5 287q0 104 51.5 187.5t163.5 179.5q78 66 112 108t50.5 97.5t18.5 150.5h161q0 -162 -40 -249t-162 -195q-6 -6 -24.5 -22t-23 -20.5t-18 -17t-17.5 -17t-14 -15t-14.5 -17t-12.5 -17t-14 -20.5t-12 -22
q-30 -53 -30 -109q0 -233 270 -233q149 0 226 74t87 251h168q-1 -236 -126.5 -358.5t-348.5 -122.5z" />
    <glyph glyph-name="Agrave" unicode="&#xc0;" horiz-adv-x="1425" 
d="M596 1841l176 -295h-145l-252 295h221zM1395 0h-183l-170 424h-663l-168 -424h-180l581 1458h193zM446 596l-6 -16h541l-8 18q-19 46 -266 674q-136 -361 -261 -676z" />
    <glyph glyph-name="Aacute" unicode="&#xc1;" horiz-adv-x="1425" 
d="M809 1841h221l-252 -295h-145zM1395 0h-183l-170 424h-663l-168 -424h-180l581 1458h193zM446 596l-6 -16h541l-8 18q-19 46 -266 674q-136 -361 -261 -676z" />
    <glyph glyph-name="Acircumflex" unicode="&#xc2;" horiz-adv-x="1425" 
d="M899 1546l-192 199l-193 -199h-164l234 295h245l234 -295h-164zM1395 0h-183l-170 424h-663l-168 -424h-180l581 1458h193zM446 596l-6 -16h541l-8 18q-19 46 -266 674q-136 -361 -261 -676z" />
    <glyph glyph-name="Atilde" unicode="&#xc3;" horiz-adv-x="1425" 
d="M557 1649q-57 0 -57 -103h-140q0 252 185 252q67 0 178 -57q83 -45 129 -45q57 0 57 102h140q0 -252 -185 -252q-57 0 -186 60q-87 43 -121 43zM1395 0h-183l-170 424h-663l-168 -424h-180l581 1458h193zM446 596l-6 -16h541l-8 18q-19 46 -266 674q-136 -361 -261 -676z
" />
    <glyph glyph-name="Adieresis" unicode="&#xc4;" horiz-adv-x="1425" 
d="M438 1747h174v-201h-174v201zM797 1747h174v-201h-174v201zM1395 0h-183l-170 424h-663l-168 -424h-180l581 1458h193zM446 596l-6 -16h541l-8 18q-19 46 -266 674q-136 -361 -261 -676z" />
    <glyph glyph-name="Aring" unicode="&#xc5;" horiz-adv-x="1425" 
d="M1395 0h-183l-170 424h-663l-168 -424h-180l547 1370q-132 70 -132 219q0 106 75.5 178t185.5 72t185 -72t75 -178q0 -146 -127 -217zM801 1683q-37 37 -94 37q-55 0 -95 -37q-38 -38 -38 -93.5t38 -92.5q42 -39 95 -39q55 0 94 39q38 37 38 92.5t-38 93.5zM446 596
l-6 -16h541l-8 18q-19 46 -266 674q-136 -361 -261 -676z" />
    <glyph glyph-name="AE" unicode="&#xc6;" horiz-adv-x="2113" 
d="M2062 1458v-155h-780v-465h698v-156h-698v-526h772v-156h-944v424h-661l-228 -424h-190l788 1458h1243zM922 1303l-390 -723h578v723h-188z" />
    <glyph glyph-name="Ccedilla" unicode="&#xc7;" horiz-adv-x="1435" 
d="M1202 530h172q-23 -235 -173.5 -385.5t-385.5 -173.5l-80 -92h19q84 0 134 -45.5t50 -116.5q0 -94 -69.5 -145t-211.5 -51q-63 0 -125 12v94q57 -8 119 -8q60 0 94.5 25t34.5 69q0 84 -116 84q-40 0 -58 -2v78l76 96q-119 10 -219.5 55.5t-172 117t-121 165t-73.5 200.5
t-24 222q0 125 27 238t83 209t135 166t188.5 109.5t239.5 39.5q236 0 402 -128.5t219 -373.5h-174q-46 174 -162.5 259t-284.5 85q-102 0 -185.5 -33t-139.5 -89.5t-94.5 -134t-56 -164.5t-17.5 -183q0 -120 29 -226t86.5 -192t154.5 -136t223 -50q168 0 299 104
q131 101 158 301z" />
    <glyph glyph-name="Egrave" unicode="&#xc8;" horiz-adv-x="1198" 
d="M530 1841l177 -295h-146l-252 295h221zM1147 1458v-155h-842v-465h760v-156h-760v-526h834v-156h-1006v1458h1014z" />
    <glyph glyph-name="Eacute" unicode="&#xc9;" horiz-adv-x="1198" 
d="M743 1841h222l-252 -295h-146zM1147 1458v-155h-842v-465h760v-156h-760v-526h834v-156h-1006v1458h1014z" />
    <glyph glyph-name="Ecircumflex" unicode="&#xca;" horiz-adv-x="1198" 
d="M834 1546l-193 199l-192 -199h-164l233 295h246l233 -295h-163zM1147 1458v-155h-842v-465h760v-156h-760v-526h834v-156h-1006v1458h1014z" />
    <glyph glyph-name="Edieresis" unicode="&#xcb;" horiz-adv-x="1198" 
d="M373 1747h174v-201h-174v201zM731 1747h174v-201h-174v201zM1147 1458v-155h-842v-465h760v-156h-760v-526h834v-156h-1006v1458h1014z" />
    <glyph glyph-name="Igrave" unicode="&#xcc;" horiz-adv-x="438" 
d="M283 1546h-133l-183 295h201zM305 0h-172v1458h172v-1458z" />
    <glyph glyph-name="Iacute" unicode="&#xcd;" horiz-adv-x="438" 
d="M469 1841l-182 -295h-133l114 295h201zM305 0h-172v1458h172v-1458z" />
    <glyph glyph-name="Icircumflex" unicode="&#xce;" horiz-adv-x="438" 
d="M102 1841h234l192 -295h-153l-158 201l-154 -201h-153zM305 0h-172v1458h172v-1458z" />
    <glyph glyph-name="Idieresis" unicode="&#xcf;" horiz-adv-x="438" 
d="M154 1546h-174v201h174v-201zM459 1546h-174v201h174v-201zM305 0h-172v1458h172v-1458z" />
    <glyph glyph-name="Eth" unicode="&#xd0;" horiz-adv-x="1449" 
d="M172 1458h492q339 0 526.5 -194t187.5 -535q0 -338 -188.5 -533.5t-525.5 -195.5h-492v684h-172v133h172v641zM344 156h320q257 0 395.5 151t138.5 422t-138.5 422.5t-395.5 151.5h-320v-486h404v-133h-404v-528z" />
    <glyph glyph-name="Ntilde" unicode="&#xd1;" horiz-adv-x="1425" 
d="M563 1649q-57 0 -57 -103h-139q0 252 184 252q67 0 178 -57q83 -45 129 -45q57 0 57 102h140q0 -252 -185 -252q-57 0 -186 60q-87 43 -121 43zM1122 967v491h170v-1458h-209l-483 752q-218 346 -303 493q6 -285 6 -753v-492h-170v1458h209l483 -751q211 -335 303 -494
q-6 285 -6 754z" />
    <glyph glyph-name="Ograve" unicode="&#xd2;" horiz-adv-x="1540" 
d="M836 1579h-146l-252 295h221zM1468 729q0 -161 -46.5 -299.5t-133.5 -241.5t-220.5 -162t-297.5 -59q-163 0 -296.5 59t-220.5 162.5t-134 242t-47 298.5q0 161 46.5 299.5t133.5 241.5t220.5 162t297.5 59q165 0 298.5 -58.5t220 -161.5t133 -241.5t46.5 -300.5z
M252 729q0 -98 20 -187t61.5 -165.5t102 -132t146 -87.5t188.5 -32t188.5 32t146 87.5t102 132t61.5 165.5t20 187t-20 187t-61.5 165.5t-102 132t-146 87.5t-188.5 32t-188.5 -32t-146 -87.5t-102 -132t-61.5 -165.5t-20 -187z" />
    <glyph glyph-name="Oacute" unicode="&#xd3;" horiz-adv-x="1540" 
d="M842 1579h-146l176 295h222zM1468 729q0 -161 -46.5 -299.5t-133.5 -241.5t-220.5 -162t-297.5 -59q-163 0 -296.5 59t-220.5 162.5t-134 242t-47 298.5q0 161 46.5 299.5t133.5 241.5t220.5 162t297.5 59q165 0 298.5 -58.5t220 -161.5t133 -241.5t46.5 -300.5zM252 729
q0 -98 20 -187t61.5 -165.5t102 -132t146 -87.5t188.5 -32t188.5 32t146 87.5t102 132t61.5 165.5t20 187t-20 187t-61.5 165.5t-102 132t-146 87.5t-188.5 32t-188.5 -32t-146 -87.5t-102 -132t-61.5 -165.5t-20 -187z" />
    <glyph glyph-name="Ocircumflex" unicode="&#xd4;" horiz-adv-x="1540" 
d="M963 1579l-193 199l-192 -199h-164l233 295h246l233 -295h-163zM72 729q0 161 46.5 299.5t133.5 241.5t220.5 162t297.5 59q165 0 298.5 -58.5t220 -161.5t133 -241.5t46.5 -300.5q0 -161 -46.5 -299.5t-133.5 -241.5t-220.5 -162t-297.5 -59q-163 0 -296.5 59
t-220.5 162.5t-134 242t-47 298.5zM252 729q0 -98 20 -187t61.5 -165.5t102 -132t146 -87.5t188.5 -32t188.5 32t146 87.5t102 132t61.5 165.5t20 187t-20 187t-61.5 165.5t-102 132t-146 87.5t-188.5 32t-188.5 -32t-146 -87.5t-102 -132t-61.5 -165.5t-20 -187z" />
    <glyph glyph-name="Otilde" unicode="&#xd5;" horiz-adv-x="1540" 
d="M563 1579h-139q0 252 184 252q67 0 178 -57q83 -45 129 -45q58 0 58 102h139q0 -252 -184 -252q-60 0 -187 59q-87 43 -120 43q-58 0 -58 -102zM1468 729q0 -161 -46.5 -299.5t-133.5 -241.5t-220.5 -162t-297.5 -59q-163 0 -296.5 59t-220.5 162.5t-134 242t-47 298.5
q0 161 46.5 299.5t133.5 241.5t220.5 162t297.5 59q165 0 298.5 -58.5t220 -161.5t133 -241.5t46.5 -300.5zM252 729q0 -98 20 -187t61.5 -165.5t102 -132t146 -87.5t188.5 -32t188.5 32t146 87.5t102 132t61.5 165.5t20 187t-20 187t-61.5 165.5t-102 132t-146 87.5
t-188.5 32t-188.5 -32t-146 -87.5t-102 -132t-61.5 -165.5t-20 -187z" />
    <glyph glyph-name="Odieresis" unicode="&#xd6;" horiz-adv-x="1540" 
d="M676 1579h-174v201h174v-201zM1034 1579h-174v201h174v-201zM1468 729q0 -161 -46.5 -299.5t-133.5 -241.5t-220.5 -162t-297.5 -59q-163 0 -296.5 59t-220.5 162.5t-134 242t-47 298.5q0 161 46.5 299.5t133.5 241.5t220.5 162t297.5 59q165 0 298.5 -58.5t220 -161.5
t133 -241.5t46.5 -300.5zM252 729q0 -98 20 -187t61.5 -165.5t102 -132t146 -87.5t188.5 -32t188.5 32t146 87.5t102 132t61.5 165.5t20 187t-20 187t-61.5 165.5t-102 132t-146 87.5t-188.5 32t-188.5 -32t-146 -87.5t-102 -132t-61.5 -165.5t-20 -187z" />
    <glyph glyph-name="multiply" unicode="&#xd7;" horiz-adv-x="1083" 
d="M850 1141l104 -105l-307 -307l307 -307l-104 -105l-307 308l-310 -308l-104 105l307 307l-307 307l104 105l310 -307z" />
    <glyph glyph-name="Oslash" unicode="&#xd8;" horiz-adv-x="1540" 
d="M1399 1546l108 -96l-190 -215q151 -207 151 -506q0 -161 -46.5 -299.5t-133.5 -241.5t-220.5 -162t-297.5 -59q-262 0 -444 150l-185 -207l-108 96l192 217q-153 200 -153 506q0 161 46.5 299.5t133.5 241.5t220.5 162t297.5 59q260 0 447 -152zM252 729q0 -222 92 -373
l760 858q-134 119 -334 119q-103 0 -188.5 -32t-146 -87.5t-102 -132t-61.5 -165.5t-20 -187zM1288 729q0 215 -90 371l-760 -856q134 -119 332 -119q103 0 188.5 32t146 87.5t102 132t61.5 165.5t20 187z" />
    <glyph glyph-name="Ugrave" unicode="&#xd9;" horiz-adv-x="1372" 
d="M752 1546h-146l-252 295h221zM1260 541q0 -275 -150 -423.5t-424 -148.5t-423.5 148.5t-149.5 423.5v917h172v-917q0 -416 401 -416t401 416v917h173v-917z" />
    <glyph glyph-name="Uacute" unicode="&#xda;" horiz-adv-x="1372" 
d="M758 1546h-146l176 295h222zM1260 541q0 -275 -150 -423.5t-424 -148.5t-423.5 148.5t-149.5 423.5v917h172v-917q0 -416 401 -416t401 416v917h173v-917z" />
    <glyph glyph-name="Ucircumflex" unicode="&#xdb;" horiz-adv-x="1372" 
d="M879 1546l-193 199l-192 -199h-164l233 295h246l233 -295h-163zM1087 541v917h173v-917q0 -272 -149.5 -422t-424.5 -150q-274 0 -423.5 150t-149.5 422v917h172v-917q0 -416 401 -416t401 416z" />
    <glyph glyph-name="Udieresis" unicode="&#xdc;" horiz-adv-x="1372" 
d="M592 1546h-174v201h174v-201zM950 1546h-174v201h174v-201zM1260 541q0 -275 -150 -423.5t-424 -148.5t-423.5 148.5t-149.5 423.5v917h172v-917q0 -416 401 -416t401 416v917h173v-917z" />
    <glyph glyph-name="Yacute" unicode="&#xdd;" horiz-adv-x="1347" 
d="M776 1841h221l-252 -295h-145zM909 1118l213 340h195l-557 -872v-586h-172v586l-557 872h196l215 -342q139 -218 234 -377q145 242 233 379z" />
    <glyph glyph-name="Thorn" unicode="&#xde;" horiz-adv-x="1292" 
d="M305 1178h434q231 0 357.5 -121.5t126.5 -327.5t-126.5 -327t-357.5 -121h-434v-281h-172v1458h172v-280zM305 436h434q151 0 228 75.5t77 217.5t-77 217.5t-228 75.5h-434v-586z" />
    <glyph glyph-name="germandbls" unicode="&#xdf;" horiz-adv-x="1122" 
d="M762 791q134 -44 211.5 -142t77.5 -225q0 -201 -137.5 -315.5t-372.5 -114.5q-37 0 -105 6v143q58 -6 105 -6q156 0 247 75t91 212q0 127 -87 204t-247 77h-74v149h70q117 0 189.5 68t72.5 182q0 106 -70.5 175t-187.5 69q-122 0 -190 -76t-68 -203v-1069h-164v1059
q0 201 112 316.5t310 115.5q112 0 207 -42t156 -127.5t61 -199.5q0 -109 -53.5 -194.5t-153.5 -136.5z" />
    <glyph glyph-name="agrave" unicode="&#xe0;" horiz-adv-x="1067" 
d="M432 1511l176 -294h-145l-252 294h221zM987 133h60v-133q-40 -6 -91 -6q-166 0 -178 151q-111 -170 -344 -170q-174 0 -273.5 81.5t-99.5 228.5q0 286 392 327l151 17q166 18 166 145q0 88 -54.5 127t-183.5 39q-138 0 -198.5 -46.5t-67.5 -162.5h-164q21 350 430 350
q398 0 398 -307v-590q0 -51 57 -51zM442 115q139 0 233.5 83t94.5 220v125q-44 -36 -139 -45l-154 -19q-134 -17 -190 -62t-56 -128t53.5 -128.5t157.5 -45.5z" />
    <glyph glyph-name="aacute" unicode="&#xe1;" horiz-adv-x="1067" 
d="M641 1511h221l-252 -294h-145zM987 133h60v-133q-40 -6 -91 -6q-166 0 -178 151q-111 -170 -344 -170q-174 0 -273.5 81.5t-99.5 228.5q0 286 392 327l151 17q166 18 166 145q0 88 -54.5 127t-183.5 39q-138 0 -198.5 -46.5t-67.5 -162.5h-164q21 350 430 350
q398 0 398 -307v-590q0 -51 57 -51zM442 115q139 0 233.5 83t94.5 220v125q-44 -36 -139 -45l-154 -19q-134 -17 -190 -62t-56 -128t53.5 -128.5t157.5 -45.5z" />
    <glyph glyph-name="acircumflex" unicode="&#xe2;" horiz-adv-x="1067" 
d="M725 1217l-193 198l-192 -198h-164l234 294h245l234 -294h-164zM987 133h60v-133q-40 -6 -91 -6q-166 0 -178 151q-111 -170 -344 -170q-174 0 -273.5 81.5t-99.5 228.5q0 286 392 327l151 17q166 18 166 145q0 88 -54.5 127t-183.5 39q-138 0 -198.5 -46.5t-67.5 -162.5
h-164q21 350 430 350q398 0 398 -307v-590q0 -51 57 -51zM442 115q139 0 233.5 83t94.5 220v125q-44 -36 -139 -45l-154 -19q-134 -17 -190 -62t-56 -128t53.5 -128.5t157.5 -45.5z" />
    <glyph glyph-name="atilde" unicode="&#xe3;" horiz-adv-x="1067" 
d="M383 1319q-57 0 -57 -102h-140q0 251 185 251q67 0 178 -57q83 -45 129 -45q57 0 57 102h139q0 -251 -184 -251q-59 0 -186 59q-87 43 -121 43zM987 133h60v-133q-40 -6 -91 -6q-166 0 -178 151q-111 -170 -344 -170q-174 0 -273.5 81.5t-99.5 228.5q0 286 392 327
l151 17q166 18 166 145q0 88 -54.5 127t-183.5 39q-138 0 -198.5 -46.5t-67.5 -162.5h-164q21 350 430 350q398 0 398 -307v-590q0 -51 57 -51zM442 115q139 0 233.5 83t94.5 220v125q-44 -36 -139 -45l-154 -19q-134 -17 -190 -62t-56 -128t53.5 -128.5t157.5 -45.5z" />
    <glyph glyph-name="adieresis" unicode="&#xe4;" horiz-adv-x="1067" 
d="M264 1417h174v-200h-174v200zM623 1417h174v-200h-174v200zM987 133h60v-133q-40 -6 -91 -6q-166 0 -178 151q-111 -170 -344 -170q-174 0 -273.5 81.5t-99.5 228.5q0 286 392 327l151 17q166 18 166 145q0 88 -54.5 127t-183.5 39q-138 0 -198.5 -46.5t-67.5 -162.5
h-164q21 350 430 350q398 0 398 -307v-590q0 -51 57 -51zM442 115q139 0 233.5 83t94.5 220v125q-44 -36 -139 -45l-154 -19q-134 -17 -190 -62t-56 -128t53.5 -128.5t157.5 -45.5z" />
    <glyph glyph-name="aring" unicode="&#xe5;" horiz-adv-x="1067" 
d="M793 1456q0 -109 -75.5 -179.5t-185.5 -70.5q-109 0 -184.5 71.5t-75.5 178.5t75.5 178.5t184.5 71.5q110 0 185.5 -70.5t75.5 -179.5zM627 1550q-37 37 -95 37q-54 0 -94 -37q-38 -38 -38 -93.5t38 -92.5q42 -39 94 -39q56 0 95 39q38 37 38 92.5t-38 93.5zM987 133h60
v-133q-40 -6 -91 -6q-166 0 -178 151q-111 -170 -344 -170q-174 0 -273.5 81.5t-99.5 228.5q0 286 392 327l151 17q166 18 166 145q0 88 -54.5 127t-183.5 39q-138 0 -198.5 -46.5t-67.5 -162.5h-164q21 350 430 350q398 0 398 -307v-590q0 -51 57 -51zM442 115
q139 0 233.5 83t94.5 220v125q-44 -36 -139 -45l-154 -19q-134 -17 -190 -62t-56 -128t53.5 -128.5t157.5 -45.5z" />
    <glyph glyph-name="ae" unicode="&#xe6;" horiz-adv-x="1767" 
d="M1696 528v-57h-764q12 -171 92 -258.5t217 -87.5q207 0 266 197h162q-38 -159 -151 -253t-281 -94q-257 0 -387 220q-67 -105 -176 -162.5t-240 -57.5q-174 0 -273.5 81.5t-99.5 228.5q0 286 392 327l151 17q166 18 166 145q0 88 -54.5 127t-183.5 39
q-138 0 -198.5 -46.5t-67.5 -162.5h-164q21 350 430 350q281 0 363 -155q128 155 338 155q92 0 169 -30t130.5 -82t91 -122.5t55 -151t17.5 -167.5zM1233 932q-123 0 -200.5 -81t-96.5 -233h592q-12 140 -90.5 227t-204.5 87zM442 115q139 0 233.5 83t94.5 220v125
q-44 -36 -139 -45l-154 -19q-134 -17 -190 -62t-56 -128t53.5 -128.5t157.5 -45.5z" />
    <glyph glyph-name="ccedilla" unicode="&#xe7;" horiz-adv-x="1067" 
d="M561 123q109 0 188 62.5t99 176.5h168q-23 -155 -118.5 -254t-242.5 -124l-84 -97h19q85 0 134.5 -45t49.5 -116q0 -94 -69 -145.5t-211 -51.5q-64 0 -125 12v94q57 -8 118 -8q60 0 94.5 25t34.5 69q0 84 -116 84q-40 0 -58 -2v78l76 96q-204 17 -325 165t-121 386
q0 115 31 214.5t90.5 175.5t154 119.5t213.5 43.5q188 0 309 -102.5t146 -280.5h-170q-20 112 -98 174t-187 62q-144 0 -230.5 -106t-86.5 -300q0 -193 87 -299t230 -106z" />
    <glyph glyph-name="egrave" unicode="&#xe8;" horiz-adv-x="1116" 
d="M459 1511l176 -294h-146l-251 294h221zM1044 528v-57h-802q12 -171 96 -258.5t229 -87.5q219 0 281 197h170q-43 -160 -160 -253.5t-295 -93.5q-157 0 -270 76t-167 199t-54 278q0 114 31.5 213t91 175.5t153.5 120.5t211 44q116 0 209.5 -44t153 -120.5t91 -176
t31.5 -212.5zM559 932q-129 0 -211 -81t-102 -233h622q-12 140 -94.5 227t-214.5 87z" />
    <glyph glyph-name="eacute" unicode="&#xe9;" horiz-adv-x="1116" 
d="M668 1511h221l-252 -294h-145zM1044 528v-57h-802q12 -171 96 -258.5t229 -87.5q219 0 281 197h170q-43 -160 -160 -253.5t-295 -93.5q-157 0 -270 76t-167 199t-54 278q0 114 31.5 213t91 175.5t153.5 120.5t211 44q116 0 209.5 -44t153 -120.5t91 -176t31.5 -212.5z
M559 932q-129 0 -211 -81t-102 -233h622q-12 140 -94.5 227t-214.5 87z" />
    <glyph glyph-name="ecircumflex" unicode="&#xea;" horiz-adv-x="1116" 
d="M752 1217l-193 198l-192 -198h-164l233 294h246l233 -294h-163zM1044 528v-57h-802q12 -171 96 -258.5t229 -87.5q219 0 281 197h170q-43 -160 -160 -253.5t-295 -93.5q-157 0 -270 76t-167 199t-54 278q0 114 31.5 213t91 175.5t153.5 120.5t211 44q116 0 209.5 -44
t153 -120.5t91 -176t31.5 -212.5zM559 932q-129 0 -211 -81t-102 -233h622q-12 140 -94.5 227t-214.5 87z" />
    <glyph glyph-name="edieresis" unicode="&#xeb;" horiz-adv-x="1116" 
d="M291 1417h174v-200h-174v200zM649 1417h174v-200h-174v200zM1044 528v-57h-802q12 -171 96 -258.5t229 -87.5q219 0 281 197h170q-43 -160 -160 -253.5t-295 -93.5q-157 0 -270 76t-167 199t-54 278q0 114 31.5 213t91 175.5t153.5 120.5t211 44q116 0 209.5 -44
t153 -120.5t91 -176t31.5 -212.5zM559 932q-129 0 -211 -81t-102 -233h622q-12 140 -94.5 227t-214.5 87z" />
    <glyph glyph-name="igrave" unicode="&#xec;" horiz-adv-x="409" 
d="M268 1217h-133l-182 294h201zM287 0h-164v1057h164v-1057z" />
    <glyph glyph-name="iacute" unicode="&#xed;" horiz-adv-x="409" 
d="M274 1217h-133l115 294h201zM287 0h-164v1057h164v-1057z" />
    <glyph glyph-name="icircumflex" unicode="&#xee;" horiz-adv-x="409" 
d="M88 1511h234l192 -294h-154l-157 200l-154 -200h-153zM287 0h-164v1057h164v-1057z" />
    <glyph glyph-name="idieresis" unicode="&#xef;" horiz-adv-x="409" 
d="M139 1217h-174v200h174v-200zM444 1217h-174v200h174v-200zM287 0h-164v1057h164v-1057z" />
    <glyph glyph-name="eth" unicode="&#xf0;" horiz-adv-x="1161" 
d="M983 1329l-223 -69q330 -392 330 -723q0 -119 -32.5 -221t-94.5 -178t-159.5 -119.5t-219.5 -43.5q-230 0 -371 149.5t-141 381.5t139.5 381t370.5 149q129 0 221 -69q-69 114 -187 245l-299 -94v137l199 64l-131 139h195l84 -92l319 102v-139zM244 506q0 -166 89 -274.5
t251 -108.5t251 108.5t89 274.5q0 177 -91 280t-249 103q-155 0 -247.5 -103.5t-92.5 -279.5z" />
    <glyph glyph-name="ntilde" unicode="&#xf1;" horiz-adv-x="1105" 
d="M408 1319q-58 0 -58 -102h-139q0 251 184 251q67 0 178 -57q83 -45 129 -45q58 0 58 102h139q0 -251 -184 -251q-60 0 -187 59q-87 43 -120 43zM610 1081q177 0 275 -96.5t98 -269.5v-715h-164v698q0 236 -241 236q-114 0 -203 -86q-88 -85 -88 -250v-598h-164v1057h156
v-158q120 182 331 182z" />
    <glyph glyph-name="ograve" unicode="&#xf2;" horiz-adv-x="1167" 
d="M659 1217h-145l-252 294h221zM1096 528q0 -156 -59.5 -280.5t-177 -198.5t-275.5 -74t-275.5 74t-177 198.5t-59.5 280.5t59.5 280.5t177 198.5t275.5 74t275.5 -74t177 -198.5t59.5 -280.5zM244 528q0 -66 12.5 -125t39 -110.5t65.5 -89t96 -59t127 -21.5t127 21.5
t96 59t65.5 89t39 110.5t12.5 125q0 84 -20 155.5t-59.5 128.5t-106.5 89.5t-154 32.5t-154 -32.5t-106.5 -89.5t-59.5 -128.5t-20 -155.5z" />
    <glyph glyph-name="oacute" unicode="&#xf3;" horiz-adv-x="1167" 
d="M662 1217h-146l176 294h221zM1096 528q0 -156 -59.5 -280.5t-177 -198.5t-275.5 -74t-275.5 74t-177 198.5t-59.5 280.5t59.5 280.5t177 198.5t275.5 74t275.5 -74t177 -198.5t59.5 -280.5zM244 528q0 -66 12.5 -125t39 -110.5t65.5 -89t96 -59t127 -21.5t127 21.5t96 59
t65.5 89t39 110.5t12.5 125q0 84 -20 155.5t-59.5 128.5t-106.5 89.5t-154 32.5t-154 -32.5t-106.5 -89.5t-59.5 -128.5t-20 -155.5z" />
    <glyph glyph-name="ocircumflex" unicode="&#xf4;" horiz-adv-x="1167" 
d="M776 1217l-192 198l-193 -198h-164l234 294h246l233 -294h-164zM72 528q0 156 59.5 280.5t177 198.5t275.5 74t275.5 -74t177 -198.5t59.5 -280.5t-59.5 -280.5t-177 -198.5t-275.5 -74t-275.5 74t-177 198.5t-59.5 280.5zM244 528q0 -66 12.5 -125t39 -110.5t65.5 -89
t96 -59t127 -21.5t127 21.5t96 59t65.5 89t39 110.5t12.5 125q0 84 -20 155.5t-59.5 128.5t-106.5 89.5t-154 32.5t-154 -32.5t-106.5 -89.5t-59.5 -128.5t-20 -155.5z" />
    <glyph glyph-name="otilde" unicode="&#xf5;" horiz-adv-x="1167" 
d="M377 1217h-139q0 251 184 251q67 0 178 -57q83 -45 129 -45q57 0 57 102h140q0 -251 -185 -251q-59 0 -186 59q-87 43 -121 43q-57 0 -57 -102zM1096 528q0 -156 -59.5 -280.5t-177 -198.5t-275.5 -74t-275.5 74t-177 198.5t-59.5 280.5t59.5 280.5t177 198.5t275.5 74
t275.5 -74t177 -198.5t59.5 -280.5zM244 528q0 -66 12.5 -125t39 -110.5t65.5 -89t96 -59t127 -21.5t127 21.5t96 59t65.5 89t39 110.5t12.5 125q0 84 -20 155.5t-59.5 128.5t-106.5 89.5t-154 32.5t-154 -32.5t-106.5 -89.5t-59.5 -128.5t-20 -155.5z" />
    <glyph glyph-name="odieresis" unicode="&#xf6;" horiz-adv-x="1167" 
d="M489 1217h-174v200h174v-200zM848 1217h-174v200h174v-200zM1096 528q0 -156 -59.5 -280.5t-177 -198.5t-275.5 -74t-275.5 74t-177 198.5t-59.5 280.5t59.5 280.5t177 198.5t275.5 74t275.5 -74t177 -198.5t59.5 -280.5zM244 528q0 -66 12.5 -125t39 -110.5t65.5 -89
t96 -59t127 -21.5t127 21.5t96 59t65.5 89t39 110.5t12.5 125q0 84 -20 155.5t-59.5 128.5t-106.5 89.5t-154 32.5t-154 -32.5t-106.5 -89.5t-59.5 -128.5t-20 -155.5z" />
    <glyph glyph-name="divide" unicode="&#xf7;" horiz-adv-x="1083" 
d="M625 989h-166v193h166v-193zM1001 655h-919v148h919v-148zM625 276h-166v193h166v-193z" />
    <glyph glyph-name="oslash" unicode="&#xf8;" horiz-adv-x="1165" 
d="M1022 1141l102 -90l-139 -160q111 -150 111 -363q0 -156 -59.5 -280.5t-177 -198.5t-275.5 -74q-175 0 -305 95l-136 -156l-102 90l141 162q-110 149 -110 362q0 156 59.5 280.5t177 198.5t275.5 74q177 0 305 -94zM244 528q0 -140 49 -231l493 571q-84 66 -202 66
q-156 0 -248 -108.5t-92 -297.5zM924 528q0 131 -50 234l-493 -574q83 -65 203 -65q156 0 248 108t92 297z" />
    <glyph glyph-name="ugrave" unicode="&#xf9;" horiz-adv-x="1105" 
d="M442 1511l176 -294h-145l-252 294h221zM819 459v598h164v-1057h-156v158q-121 -183 -331 -183q-177 0 -275 97t-98 270v715h164v-699q0 -235 241 -235q114 0 203 86q88 85 88 250z" />
    <glyph glyph-name="uacute" unicode="&#xfa;" horiz-adv-x="1105" 
d="M651 1511h221l-251 -294h-146zM819 459v598h164v-1057h-156v158q-121 -183 -331 -183q-177 0 -275 97t-98 270v715h164v-699q0 -235 241 -235q114 0 203 86q88 85 88 250z" />
    <glyph glyph-name="ucircumflex" unicode="&#xfb;" horiz-adv-x="1105" 
d="M735 1217l-192 198l-193 -198h-164l234 294h246l233 -294h-164zM819 459v598h164v-1057h-156v158q-121 -183 -331 -183q-177 0 -275 97t-98 270v715h164v-699q0 -235 241 -235q114 0 203 86q88 85 88 250z" />
    <glyph glyph-name="udieresis" unicode="&#xfc;" horiz-adv-x="1105" 
d="M274 1417h175v-200h-175v200zM633 1417h174v-200h-174v200zM819 459v598h164v-1057h-156v158q-121 -183 -331 -183q-177 0 -275 97t-98 270v715h164v-699q0 -235 241 -235q114 0 203 86q88 85 88 250z" />
    <glyph glyph-name="yacute" unicode="&#xfd;" horiz-adv-x="980" 
d="M600 1511h221l-252 -294h-145zM643 618l150 439h178l-447 -1223q-48 -132 -129 -187t-215 -55q-37 0 -98 7v137h96q141 0 193 131l37 98l-398 1092h180l150 -441q71 -208 152 -456q57 184 151 458z" />
    <glyph glyph-name="thorn" unicode="&#xfe;" horiz-adv-x="1204" 
d="M641 1081q159 0 272 -75t166.5 -198t53.5 -280q0 -156 -54 -279t-167 -198.5t-271 -75.5q-227 0 -354 177v-553h-164v1859h164v-553q126 176 354 176zM621 123q154 0 247 112t93 302q0 187 -91.5 292t-248.5 105q-87 0 -154 -32.5t-106.5 -89.5t-59.5 -128.5t-20 -155.5
q0 -66 12.5 -125t39 -110.5t65.5 -89t96 -59t127 -21.5z" />
    <glyph glyph-name="ydieresis" unicode="&#xff;" horiz-adv-x="980" 
d="M223 1417h174v-200h-174v200zM582 1417h174v-200h-174v200zM643 618l150 439h178l-447 -1223q-48 -132 -129 -187t-215 -55q-37 0 -98 7v137h96q141 0 193 131l37 98l-398 1092h180l150 -441q71 -208 152 -456q57 184 151 458z" />
    <glyph glyph-name="Amacron" unicode="&#x100;" horiz-adv-x="1425" 
d="M410 1683h594v-137h-594v137zM1395 0h-183l-170 424h-663l-168 -424h-180l581 1458h193zM446 596l-6 -16h541l-8 18q-19 46 -266 674q-136 -361 -261 -676z" />
    <glyph glyph-name="amacron" unicode="&#x101;" horiz-adv-x="1067" 
d="M236 1354h593v-137h-593v137zM987 133h60v-133q-40 -6 -91 -6q-166 0 -178 151q-111 -170 -344 -170q-174 0 -273.5 81.5t-99.5 228.5q0 286 392 327l151 17q166 18 166 145q0 88 -54.5 127t-183.5 39q-138 0 -198.5 -46.5t-67.5 -162.5h-164q21 350 430 350
q398 0 398 -307v-590q0 -51 57 -51zM442 115q139 0 233.5 83t94.5 220v125q-44 -36 -139 -45l-154 -19q-134 -17 -190 -62t-56 -128t53.5 -128.5t157.5 -45.5z" />
    <glyph glyph-name="Abreve" unicode="&#x102;" horiz-adv-x="1425" 
d="M707 1536q-136 0 -223 83t-93 222h141q6 -83 53 -127.5t122 -44.5t121.5 44.5t52.5 127.5h141q-10 -139 -95.5 -222t-219.5 -83zM1395 0h-183l-170 424h-663l-168 -424h-180l581 1458h193zM446 596l-6 -16h541l-8 18q-19 46 -266 674q-136 -361 -261 -676z" />
    <glyph glyph-name="abreve" unicode="&#x103;" horiz-adv-x="1067" 
d="M532 1206q-136 0 -222.5 83t-92.5 222h141q6 -83 52.5 -127.5t121.5 -44.5t122 44.5t53 127.5h141q-10 -139 -96 -222t-220 -83zM987 133h60v-133q-40 -6 -91 -6q-166 0 -178 151q-111 -170 -344 -170q-174 0 -273.5 81.5t-99.5 228.5q0 286 392 327l151 17
q166 18 166 145q0 88 -54.5 127t-183.5 39q-138 0 -198.5 -46.5t-67.5 -162.5h-164q21 350 430 350q398 0 398 -307v-590q0 -51 57 -51zM442 115q139 0 233.5 83t94.5 220v125q-44 -36 -139 -45l-154 -19q-134 -17 -190 -62t-56 -128t53.5 -128.5t157.5 -45.5z" />
    <glyph glyph-name="Aogonek" unicode="&#x104;" horiz-adv-x="1425" 
d="M211 0h-180l581 1458h193l590 -1458q-213 -106 -213 -205q0 -41 28.5 -63.5t73.5 -22.5q58 0 111 21v-133q-57 -23 -140 -23q-98 0 -163.5 50.5t-65.5 139.5q0 70 58 135.5t155 100.5h-27l-170 424h-663zM440 580h541l-8 18q-19 46 -266 674q-136 -361 -261 -676z" />
    <glyph glyph-name="aogonek" unicode="&#x105;" horiz-adv-x="1067" 
d="M1047 133v-133q-213 -106 -213 -207q0 -41 29 -62.5t73 -21.5q58 0 111 21v-133q-58 -23 -140 -23q-97 0 -163 50.5t-66 135.5q0 150 209 242q-100 27 -109 143q-111 -170 -344 -170q-174 0 -273.5 81.5t-99.5 228.5q0 286 392 327l151 17q166 18 166 145q0 88 -54.5 127
t-183.5 39q-138 0 -198.5 -46.5t-67.5 -162.5h-164q21 350 430 350q398 0 398 -307v-590q0 -51 57 -51h60zM442 115q139 0 233.5 83t94.5 220v125q-44 -36 -139 -45l-154 -19q-134 -17 -190 -62t-56 -128t53.5 -128.5t157.5 -45.5z" />
    <glyph glyph-name="Cacute" unicode="&#x106;" horiz-adv-x="1435" 
d="M817 1579h-145l176 295h221zM745 -33q-130 0 -239.5 39.5t-188.5 109.5t-135 166t-83 209t-27 238t27 238t83 209t135 166t188.5 109.5t239.5 39.5q236 0 402 -128.5t219 -373.5h-174q-46 174 -162.5 259t-284.5 85q-102 0 -185.5 -33t-139.5 -89.5t-94.5 -134
t-56 -164.5t-17.5 -183q0 -120 29 -226t86.5 -192t154.5 -136t223 -50q168 0 299 104q131 101 158 301h172q-27 -272 -207 -415q-183 -148 -422 -148z" />
    <glyph glyph-name="cacute" unicode="&#x107;" horiz-adv-x="1067" 
d="M639 1217h-145l176 294h221zM561 -25q-117 0 -211.5 44t-154.5 120t-91.5 175.5t-31.5 213.5q0 115 31 214.5t90.5 175.5t154 119.5t213.5 43.5q188 0 309 -102.5t146 -280.5h-170q-20 112 -98 174t-187 62q-144 0 -230.5 -106t-86.5 -300q0 -193 87 -299t230 -106
q109 0 188 62.5t99 176.5h168q-26 -179 -150 -283t-305 -104z" />
    <glyph glyph-name="Ccircumflex" unicode="&#x108;" horiz-adv-x="1435" 
d="M938 1579l-193 199l-192 -199h-164l234 295h245l234 -295h-164zM1202 530h172q-27 -272 -207 -415q-183 -148 -422 -148q-130 0 -239.5 39.5t-188.5 109.5t-135 166t-83 209t-27 238t27 238t83 209t135 166t188.5 109.5t239.5 39.5q236 0 402 -128.5t219 -373.5h-174
q-46 174 -162.5 259t-284.5 85q-102 0 -185.5 -33t-139.5 -89.5t-94.5 -134t-56 -164.5t-17.5 -183q0 -120 29 -226t86.5 -192t154.5 -136t223 -50q168 0 299 104q131 101 158 301z" />
    <glyph glyph-name="ccircumflex" unicode="&#x109;" horiz-adv-x="1067" 
d="M754 1217l-193 198l-192 -198h-164l233 294h246l234 -294h-164zM561 123q109 0 188 62.5t99 176.5h168q-26 -179 -150 -283t-305 -104q-117 0 -211.5 44t-154.5 120t-91.5 175.5t-31.5 213.5q0 115 31 214.5t90.5 175.5t154 119.5t213.5 43.5q188 0 309 -102.5
t146 -280.5h-170q-20 112 -98 174t-187 62q-144 0 -230.5 -106t-86.5 -300q0 -193 87 -299t230 -106z" />
    <glyph glyph-name="Cdotaccent" unicode="&#x10a;" horiz-adv-x="1435" 
d="M831 1579h-176v201h176v-201zM745 -33q-130 0 -239.5 39.5t-188.5 109.5t-135 166t-83 209t-27 238t27 238t83 209t135 166t188.5 109.5t239.5 39.5q236 0 402 -128.5t219 -373.5h-174q-46 174 -162.5 259t-284.5 85q-102 0 -185.5 -33t-139.5 -89.5t-94.5 -134
t-56 -164.5t-17.5 -183q0 -120 29 -226t86.5 -192t154.5 -136t223 -50q168 0 299 104q131 101 158 301h172q-27 -272 -207 -415q-183 -148 -422 -148z" />
    <glyph glyph-name="cdotaccent" unicode="&#x10b;" horiz-adv-x="1067" 
d="M647 1217h-176v200h176v-200zM561 -25q-117 0 -211.5 44t-154.5 120t-91.5 175.5t-31.5 213.5q0 115 31 214.5t90.5 175.5t154 119.5t213.5 43.5q188 0 309 -102.5t146 -280.5h-170q-20 112 -98 174t-187 62q-144 0 -230.5 -106t-86.5 -300q0 -193 87 -299t230 -106
q109 0 188 62.5t99 176.5h168q-26 -179 -150 -283t-305 -104z" />
    <glyph glyph-name="Ccaron" unicode="&#x10c;" horiz-adv-x="1435" 
d="M1102 1874l-234 -295h-245l-234 295h164l192 -199l193 199h164zM1202 530h172q-27 -272 -207 -415q-183 -148 -422 -148q-130 0 -239.5 39.5t-188.5 109.5t-135 166t-83 209t-27 238t27 238t83 209t135 166t188.5 109.5t239.5 39.5q236 0 402 -128.5t219 -373.5h-174
q-46 174 -162.5 259t-284.5 85q-102 0 -185.5 -33t-139.5 -89.5t-94.5 -134t-56 -164.5t-17.5 -183q0 -120 29 -226t86.5 -192t154.5 -136t223 -50q168 0 299 104q131 101 158 301z" />
    <glyph glyph-name="ccaron" unicode="&#x10d;" horiz-adv-x="1067" 
d="M918 1509l-234 -295h-246l-233 295h164l192 -198l193 198h164zM561 123q109 0 188 62.5t99 176.5h168q-26 -179 -150 -283t-305 -104q-117 0 -211.5 44t-154.5 120t-91.5 175.5t-31.5 213.5q0 115 31 214.5t90.5 175.5t154 119.5t213.5 43.5q188 0 309 -102.5t146 -280.5
h-170q-20 112 -98 174t-187 62q-144 0 -230.5 -106t-86.5 -300q0 -193 87 -299t230 -106z" />
    <glyph glyph-name="Dcaron" unicode="&#x10e;" horiz-adv-x="1411" 
d="M1042 1841l-233 -295h-246l-233 295h164l192 -199l193 199h163zM133 1458h492q339 0 526.5 -194t187.5 -535q0 -338 -188.5 -533.5t-525.5 -195.5h-492v1458zM305 156h320q257 0 395.5 151t138.5 422t-138.5 422.5t-395.5 151.5h-320v-1147z" />
    <glyph glyph-name="dcaron" unicode="&#x10f;" horiz-adv-x="1406" 
d="M918 905v553h163v-1458h-155v164q-127 -189 -363 -189q-157 0 -270 76t-167 199t-54 278q0 116 31.5 215.5t91.5 175t154.5 119t213.5 43.5q229 0 355 -176zM1159 1118l78 340h190l-143 -340h-125zM244 520q0 -174 86 -285.5t254 -111.5q70 0 127 21.5t96 59t65.5 89
t39 110.5t12.5 125q0 189 -92 297.5t-248 108.5q-154 0 -247 -112t-93 -302z" />
    <glyph glyph-name="Dcroat" unicode="&#x110;" horiz-adv-x="1449" 
d="M172 1458h492q339 0 526.5 -194t187.5 -535q0 -338 -188.5 -533.5t-525.5 -195.5h-492v684h-172v133h172v641zM344 156h320q257 0 395.5 151t138.5 422t-138.5 422.5t-395.5 151.5h-320v-486h404v-133h-404v-528z" />
    <glyph glyph-name="dcroat" unicode="&#x111;" horiz-adv-x="1255" 
d="M1081 1325h174v-133h-174v-1192h-155v164q-127 -189 -363 -189q-157 0 -270 76t-167 199t-54 278q0 116 31.5 215.5t91.5 175t154.5 119t213.5 43.5q229 0 355 -176v287h-238v133h238v133h163v-133zM244 520q0 -174 86 -285.5t254 -111.5q70 0 127 21.5t96 59t65.5 89
t39 110.5t12.5 125q0 189 -92 297.5t-248 108.5q-154 0 -247 -112t-93 -302z" />
    <glyph glyph-name="Emacron" unicode="&#x112;" horiz-adv-x="1198" 
d="M344 1683h594v-137h-594v137zM1147 1458v-155h-842v-465h760v-156h-760v-526h834v-156h-1006v1458h1014z" />
    <glyph glyph-name="emacron" unicode="&#x113;" horiz-adv-x="1116" 
d="M262 1354h594v-137h-594v137zM1044 528v-57h-802q12 -171 96 -258.5t229 -87.5q219 0 281 197h170q-43 -160 -160 -253.5t-295 -93.5q-157 0 -270 76t-167 199t-54 278q0 114 31.5 213t91 175.5t153.5 120.5t211 44q116 0 209.5 -44t153 -120.5t91 -176t31.5 -212.5z
M559 932q-129 0 -211 -81t-102 -233h622q-12 140 -94.5 227t-214.5 87z" />
    <glyph glyph-name="Ebreve" unicode="&#x114;" horiz-adv-x="1198" 
d="M641 1536q-136 0 -222.5 83t-92.5 222h141q6 -83 52.5 -127.5t121.5 -44.5t121.5 44.5t52.5 127.5h141q-10 -139 -95.5 -222t-219.5 -83zM1147 1458v-155h-842v-465h760v-156h-760v-526h834v-156h-1006v1458h1014z" />
    <glyph glyph-name="ebreve" unicode="&#x115;" horiz-adv-x="1116" 
d="M559 1206q-136 0 -222.5 83t-92.5 222h141q6 -83 52.5 -127.5t121.5 -44.5t121.5 44.5t52.5 127.5h141q-10 -139 -95.5 -222t-219.5 -83zM1044 528v-57h-802q12 -171 96 -258.5t229 -87.5q219 0 281 197h170q-43 -160 -160 -253.5t-295 -93.5q-157 0 -270 76t-167 199
t-54 278q0 114 31.5 213t91 175.5t153.5 120.5t211 44q116 0 209.5 -44t153 -120.5t91 -176t31.5 -212.5zM559 932q-129 0 -211 -81t-102 -233h622q-12 140 -94.5 227t-214.5 87z" />
    <glyph glyph-name="Edotaccent" unicode="&#x116;" horiz-adv-x="1198" 
d="M551 1747h176v-201h-176v201zM1147 1458v-155h-842v-465h760v-156h-760v-526h834v-156h-1006v1458h1014z" />
    <glyph glyph-name="edotaccent" unicode="&#x117;" horiz-adv-x="1116" 
d="M469 1417h176v-200h-176v200zM1044 528v-57h-802q12 -171 96 -258.5t229 -87.5q219 0 281 197h170q-43 -160 -160 -253.5t-295 -93.5q-157 0 -270 76t-167 199t-54 278q0 114 31.5 213t91 175.5t153.5 120.5t211 44q116 0 209.5 -44t153 -120.5t91 -176t31.5 -212.5z
M559 932q-129 0 -211 -81t-102 -233h622q-12 140 -94.5 227t-214.5 87z" />
    <glyph glyph-name="Eogonek" unicode="&#x118;" horiz-adv-x="1198" 
d="M133 0v1458h1014v-155h-842v-465h760v-156h-760v-526h834v-156q-213 -106 -213 -205q0 -41 28.5 -63.5t73.5 -22.5q58 0 111 21v-133q-57 -23 -140 -23q-98 0 -163.5 50.5t-65.5 139.5q0 70 58 135.5t155 100.5h-850z" />
    <glyph glyph-name="eogonek" unicode="&#x119;" horiz-adv-x="1116" 
d="M1044 528v-57h-802q12 -171 96 -258.5t229 -87.5q219 0 281 197h170q-65 -253 -293 -324q-211 -102 -211 -203q0 -41 28.5 -63.5t73.5 -22.5q58 0 111 21v-133q-58 -23 -139 -23q-98 0 -164 50.5t-66 139.5q0 60 43 117.5t117 95.5q-110 8 -196.5 56t-140 123.5
t-81.5 170t-28 201.5q0 114 31.5 213t91 175.5t153.5 120.5t211 44q116 0 209.5 -44t153 -120.5t91 -176t31.5 -212.5zM559 932q-129 0 -211 -81t-102 -233h622q-12 140 -94.5 227t-214.5 87z" />
    <glyph glyph-name="Ecaron" unicode="&#x11a;" horiz-adv-x="1198" 
d="M997 1841l-233 -295h-246l-233 295h164l192 -199l193 199h163zM1147 1458v-155h-842v-465h760v-156h-760v-526h834v-156h-1006v1458h1014z" />
    <glyph glyph-name="ecaron" unicode="&#x11b;" horiz-adv-x="1116" 
d="M915 1509l-233 -295h-246l-233 295h164l192 -198l193 198h163zM1044 528v-57h-802q12 -171 96 -258.5t229 -87.5q219 0 281 197h170q-43 -160 -160 -253.5t-295 -93.5q-157 0 -270 76t-167 199t-54 278q0 114 31.5 213t91 175.5t153.5 120.5t211 44q116 0 209.5 -44
t153 -120.5t91 -176t31.5 -212.5zM559 932q-129 0 -211 -81t-102 -233h622q-12 140 -94.5 227t-214.5 87z" />
    <glyph glyph-name="Gcircumflex" unicode="&#x11c;" horiz-adv-x="1529" 
d="M956 1579l-192 199l-193 -199h-163l233 295h246l233 -295h-164zM797 594v156h620v-750h-141l-37 197q-163 -230 -477 -230q-162 0 -294 59.5t-218 163.5t-132 242t-46 297q0 162 45.5 300t131 241.5t218 162t297.5 58.5q250 0 424 -134t213 -376h-178q-19 111 -87 192
t-164 120.5t-208 39.5q-102 0 -187 -32t-144.5 -88t-100.5 -132.5t-60.5 -165t-19.5 -186.5t19.5 -186.5t60.5 -165t100.5 -132.5t144.5 -88t187 -32q101 0 192 34.5t158.5 95t107.5 149t40 190.5h-465z" />
    <glyph glyph-name="gcircumflex" unicode="&#x11d;" horiz-adv-x="1204" 
d="M776 1217l-192 198l-193 -198h-164l234 294h246l233 -294h-164zM926 903v154h155v-1016q0 -218 -127 -342.5t-364 -124.5q-197 0 -315.5 90.5t-135.5 249.5h164q30 -201 287 -201q328 0 328 328v102q-125 -168 -355 -168q-157 0 -270 76t-167 199t-54 278
q0 116 31.5 215.5t91.5 175t154.5 119t213.5 43.5q237 0 363 -178zM584 123q156 0 248 108t92 297t-92 297.5t-248 108.5q-154 0 -247 -111t-93 -295t93 -294.5t247 -110.5z" />
    <glyph glyph-name="Gbreve" unicode="&#x11e;" horiz-adv-x="1529" 
d="M764 1569q-136 0 -222.5 83t-92.5 222h141q6 -83 52.5 -127.5t121.5 -44.5t121.5 44.5t52.5 127.5h141q-10 -139 -95.5 -222t-219.5 -83zM797 594v156h620v-750h-141l-37 197q-163 -230 -477 -230q-162 0 -294 59.5t-218 163.5t-132 242t-46 297q0 162 45.5 300
t131 241.5t218 162t297.5 58.5q250 0 424 -134t213 -376h-178q-19 111 -87 192t-164 120.5t-208 39.5q-102 0 -187 -32t-144.5 -88t-100.5 -132.5t-60.5 -165t-19.5 -186.5t19.5 -186.5t60.5 -165t100.5 -132.5t144.5 -88t187 -32q101 0 192 34.5t158.5 95t107.5 149
t40 190.5h-465z" />
    <glyph glyph-name="gbreve" unicode="&#x11f;" horiz-adv-x="1204" 
d="M584 1206q-136 0 -223 83t-93 222h142q6 -83 52.5 -127.5t121.5 -44.5t121.5 44.5t52.5 127.5h141q-10 -139 -95.5 -222t-219.5 -83zM926 903v154h155v-1016q0 -218 -127 -342.5t-364 -124.5q-197 0 -315.5 90.5t-135.5 249.5h164q30 -201 287 -201q328 0 328 328v102
q-125 -168 -355 -168q-157 0 -270 76t-167 199t-54 278q0 116 31.5 215.5t91.5 175t154.5 119t213.5 43.5q237 0 363 -178zM584 123q156 0 248 108t92 297t-92 297.5t-248 108.5q-154 0 -247 -111t-93 -295t93 -294.5t247 -110.5z" />
    <glyph glyph-name="Gdotaccent" unicode="&#x120;" horiz-adv-x="1529" 
d="M674 1780h176v-201h-176v201zM797 594v156h620v-750h-141l-37 197q-163 -230 -477 -230q-162 0 -294 59.5t-218 163.5t-132 242t-46 297q0 162 45.5 300t131 241.5t218 162t297.5 58.5q250 0 424 -134t213 -376h-178q-19 111 -87 192t-164 120.5t-208 39.5
q-102 0 -187 -32t-144.5 -88t-100.5 -132.5t-60.5 -165t-19.5 -186.5t19.5 -186.5t60.5 -165t100.5 -132.5t144.5 -88t187 -32q101 0 192 34.5t158.5 95t107.5 149t40 190.5h-465z" />
    <glyph glyph-name="gdotaccent" unicode="&#x121;" horiz-adv-x="1204" 
d="M494 1417h176v-200h-176v200zM926 903v154h155v-1016q0 -218 -127 -342.5t-364 -124.5q-197 0 -315.5 90.5t-135.5 249.5h164q30 -201 287 -201q328 0 328 328v102q-125 -168 -355 -168q-157 0 -270 76t-167 199t-54 278q0 116 31.5 215.5t91.5 175t154.5 119t213.5 43.5
q237 0 363 -178zM584 123q156 0 248 108t92 297t-92 297.5t-248 108.5q-154 0 -247 -111t-93 -295t93 -294.5t247 -110.5z" />
    <glyph glyph-name="uni0122" unicode="&#x122;" horiz-adv-x="1529" 
d="M797 594v156h620v-750h-141l-37 197q-163 -230 -477 -230q-162 0 -294 59.5t-218 163.5t-132 242t-46 297q0 162 45.5 300t131 241.5t218 162t297.5 58.5q250 0 424 -134t213 -376h-178q-19 111 -87 192t-164 120.5t-208 39.5q-102 0 -187 -32t-144.5 -88t-100.5 -132.5
t-60.5 -165t-19.5 -186.5t19.5 -186.5t60.5 -165t100.5 -132.5t144.5 -88t187 -32q101 0 192 34.5t158.5 95t107.5 149t40 190.5h-465zM788 -289h-104v172h201v-211q0 -80 -40.5 -120t-131.5 -46l-29 -2v88l23 2q81 6 81 72v45z" />
    <glyph glyph-name="uni0123" unicode="&#x123;" horiz-adv-x="1204" 
d="M582 1389h104v-172h-201v210q0 80 40.5 120t131.5 46l29 2v-88l-22 -2q-82 -6 -82 -71v-45zM926 903v154h155v-1016q0 -218 -127 -342.5t-364 -124.5q-197 0 -315.5 90.5t-135.5 249.5h164q30 -201 287 -201q328 0 328 328v102q-125 -168 -355 -168q-157 0 -270 76
t-167 199t-54 278q0 116 31.5 215.5t91.5 175t154.5 119t213.5 43.5q237 0 363 -178zM584 123q156 0 248 108t92 297t-92 297.5t-248 108.5q-154 0 -247 -111t-93 -295t93 -294.5t247 -110.5z" />
    <glyph glyph-name="Hcircumflex" unicode="&#x124;" horiz-adv-x="1423" 
d="M905 1546l-192 199l-193 -199h-164l234 295h246l233 -295h-164zM1118 831v627h172v-1458h-172v672h-813v-672h-172v1458h172v-627h813z" />
    <glyph glyph-name="hcircumflex" unicode="&#x125;" horiz-adv-x="1105" 
d="M514 1546h-154l-157 201l-154 -201h-153l192 295h234zM610 1081q177 0 275 -96.5t98 -269.5v-715h-164v698q0 236 -241 236q-114 0 -203 -86q-88 -85 -88 -250v-598h-164v1458h164v-547q120 170 323 170z" />
    <glyph glyph-name="Hbar" unicode="&#x126;" horiz-adv-x="1501" 
d="M1331 1221h170v-134h-170v-1087h-172v672h-813v-672h-172v1087h-174v134h174v237h172v-237h813v237h172v-237zM346 831h813v256h-813v-256z" />
    <glyph glyph-name="hbar" unicode="&#x127;" horiz-adv-x="1157" 
d="M662 1081q177 0 274.5 -96.5t97.5 -269.5v-715h-164v698q0 236 -241 236q-114 0 -203 -86q-88 -85 -88 -250v-598h-164v1192h-174v133h174v133h164v-133h237v-133h-237v-281q120 170 324 170z" />
    <glyph glyph-name="Itilde" unicode="&#x128;" horiz-adv-x="438" 
d="M49 1546h-115q0 246 152 246q56 0 150 -55q70 -43 104 -43q49 0 49 98h115q0 -246 -152 -246q-46 0 -153 58q-74 41 -101 41q-49 0 -49 -99zM305 0h-172v1458h172v-1458z" />
    <glyph glyph-name="itilde" unicode="&#x129;" horiz-adv-x="409" 
d="M35 1217h-115q0 245 152 245q55 0 149 -55q70 -43 105 -43q49 0 49 98h114q0 -245 -151 -245q-49 0 -154 57q-74 41 -100 41q-49 0 -49 -98zM287 0h-164v1057h164v-1057z" />
    <glyph glyph-name="Imacron" unicode="&#x12a;" horiz-adv-x="438" 
d="M455 1546h-471v137h471v-137zM305 0h-172v1458h172v-1458z" />
    <glyph glyph-name="imacron" unicode="&#x12b;" horiz-adv-x="409" 
d="M440 1217h-471v137h471v-137zM287 0h-164v1057h164v-1057z" />
    <glyph glyph-name="Ibreve" unicode="&#x12c;" horiz-adv-x="438" 
d="M514 1821q-9 -126 -89.5 -205.5t-205.5 -79.5t-208.5 80t-86.5 205h142q5 -69 45 -110.5t108 -41.5t108.5 41.5t45.5 110.5h141zM305 0h-172v1458h172v-1458z" />
    <glyph glyph-name="ibreve" unicode="&#x12d;" horiz-adv-x="409" 
d="M500 1491q-9 -126 -89.5 -205.5t-205.5 -79.5q-126 0 -209 79.5t-86 205.5h141q5 -69 45.5 -110.5t108.5 -41.5t108 41.5t45 110.5h142zM287 0h-164v1057h164v-1057z" />
    <glyph glyph-name="Iogonek" unicode="&#x12e;" horiz-adv-x="438" 
d="M49 -242q0 67 38.5 137t94.5 105h-49v1458h172v-1458q-127 -89 -127 -201q0 -94 86 -94q43 0 72 16v-127q-39 -20 -96 -20q-85 0 -138 47.5t-53 136.5z" />
    <glyph glyph-name="iogonek" unicode="&#x12f;" horiz-adv-x="409" 
d="M31 -242q0 67 38.5 137t94.5 105h-41v1057h164v-1057q-127 -89 -127 -201q0 -94 86 -94q42 0 71 16v-127q-39 -20 -96 -20q-85 0 -137.5 47.5t-52.5 136.5zM117 1217v200h174v-200h-174z" />
    <glyph glyph-name="Idotaccent" unicode="&#x130;" horiz-adv-x="438" 
d="M305 1546h-174v201h174v-201zM305 0h-172v1458h172v-1458z" />
    <glyph glyph-name="dotlessi" unicode="&#x131;" horiz-adv-x="409" 
d="M287 0h-164v1057h164v-1057z" />
    <glyph glyph-name="IJ" unicode="&#x132;" horiz-adv-x="1501" 
d="M305 0h-172v1458h172v-1458zM1389 414q0 -207 -120 -327t-327 -120q-206 0 -324 119.5t-118 327.5v96h168v-96q0 -141 72 -216t202 -75t202.5 75t72.5 216v1044h172v-1044z" />
    <glyph glyph-name="ij" unicode="&#x133;" horiz-adv-x="819" 
d="M291 1217h-174v200h174v-200zM700 1217h-174v200h174v-200zM287 0h-164v1057h164v-1057zM453 -408q-65 0 -88 2v142h67q100 0 100 90v1231h164v-1245q0 -220 -243 -220z" />
    <glyph glyph-name="Jcircumflex" unicode="&#x134;" horiz-adv-x="1062" 
d="M748 1841h233l193 -295h-154l-158 201l-153 -201h-154zM778 414v1044h172v-1044q0 -208 -118.5 -327.5t-327.5 -119.5q-208 0 -325.5 119.5t-117.5 327.5v96h168v-96q0 -141 72.5 -216t202.5 -75t202 75t72 216z" />
    <glyph glyph-name="jcircumflex" unicode="&#x135;" horiz-adv-x="409" 
d="M88 1511h234l192 -294h-154l-157 200l-154 -200h-153zM123 -174v1231h164v-1245q0 -220 -244 -220q-65 0 -88 2v142h68q100 0 100 90z" />
    <glyph glyph-name="uni0136" unicode="&#x136;" horiz-adv-x="1359" 
d="M305 0h-172v1458h172v-766l797 766h227l-622 -594l622 -864h-211l-536 750l-277 -265v-485zM598 -260v172h201v-211q0 -80 -40.5 -120t-131.5 -46l-29 -2v88l23 2q81 6 81 72v45h-104z" />
    <glyph glyph-name="uni0137" unicode="&#x137;" horiz-adv-x="1032" 
d="M993 1057l-401 -381l430 -676h-191l-356 567l-188 -176v-391h-164v1458h164v-874l489 473h217zM559 -332h-104v172h200v-211q0 -80 -40.5 -120t-131.5 -46l-28 -2v88l22 2q82 6 82 72v45z" />
    <glyph glyph-name="kgreenlandic" unicode="&#x138;" horiz-adv-x="1032" 
d="M123 0v1057h164v-473l489 473h217l-401 -381l430 -676h-191l-356 567l-188 -176v-391h-164z" />
    <glyph glyph-name="Lacute" unicode="&#x139;" horiz-adv-x="1079" 
d="M322 1841h221l-252 -295h-146zM305 1458v-1302h733v-156h-905v1458h172z" />
    <glyph glyph-name="lacute" unicode="&#x13a;" horiz-adv-x="409" 
d="M455 1841l-183 -295h-133l115 295h201zM287 0h-164v1458h164v-1458z" />
    <glyph glyph-name="uni013B" unicode="&#x13b;" horiz-adv-x="1079" 
d="M305 1458v-1302h733v-156h-905v1458h172zM592 -260h-105v172h201v-211q0 -80 -40.5 -120t-131.5 -46l-29 -2v88l23 2q82 6 82 72v45z" />
    <glyph glyph-name="uni013C" unicode="&#x13c;" horiz-adv-x="409" 
d="M123 1458h164v-1458h-164v1458zM106 -332v172h201v-211q0 -80 -40.5 -120t-131.5 -46l-29 -2v88l23 2q82 6 82 72v45h-105z" />
    <glyph glyph-name="Lcaron" unicode="&#x13d;" horiz-adv-x="1079" 
d="M305 1458v-1302h733v-156h-905v1458h172zM539 1458h190l-143 -340h-125z" />
    <glyph glyph-name="lcaron" unicode="&#x13e;" horiz-adv-x="612" 
d="M287 0h-164v1458h164v-1458zM489 1118h-124l77 340h191z" />
    <glyph glyph-name="Ldot" unicode="&#x13f;" horiz-adv-x="1079" 
d="M305 1458v-1302h733v-156h-905v1458h172zM657 858h207v-205h-207v205z" />
    <glyph glyph-name="ldot" unicode="&#x140;" horiz-adv-x="808" 
d="M287 0h-164v1458h164v-1458zM717 623h-207v204h207v-204z" />
    <glyph glyph-name="Lslash" unicode="&#x141;" horiz-adv-x="1118" 
d="M0 760l172 78v620h172v-543l383 172v-149l-383 -172v-610h733v-156h-905v688l-172 -78v150z" />
    <glyph glyph-name="lslash" unicode="&#x142;" horiz-adv-x="509" 
d="M338 856l172 96v-155l-172 -97v-700h-164v608l-174 -98v156l174 98v694h164v-602z" />
    <glyph glyph-name="Nacute" unicode="&#x143;" horiz-adv-x="1425" 
d="M815 1841h221l-252 -295h-145zM1122 967v491h170v-1458h-209l-483 752q-218 346 -303 493q6 -285 6 -753v-492h-170v1458h209l483 -751q211 -335 303 -494q-6 285 -6 754z" />
    <glyph glyph-name="nacute" unicode="&#x144;" horiz-adv-x="1105" 
d="M666 1511h221l-252 -294h-146zM610 1081q177 0 275 -96.5t98 -269.5v-715h-164v698q0 236 -241 236q-114 0 -203 -86q-88 -85 -88 -250v-598h-164v1057h156v-158q120 182 331 182z" />
    <glyph glyph-name="uni0145" unicode="&#x145;" horiz-adv-x="1425" 
d="M1122 967v491h170v-1458h-209l-483 752q-218 346 -303 493q6 -285 6 -753v-492h-170v1458h209l483 -751q211 -335 303 -494q-6 285 -6 754zM719 -260h-105v172h201v-211q0 -80 -40.5 -120t-131.5 -46l-29 -2v88l23 2q82 6 82 72v45z" />
    <glyph glyph-name="uni0146" unicode="&#x146;" horiz-adv-x="1105" 
d="M610 1081q177 0 275 -96.5t98 -269.5v-715h-164v698q0 236 -241 236q-114 0 -203 -86q-88 -85 -88 -250v-598h-164v1057h156v-158q120 182 331 182zM555 -332h-104v172h200v-211q0 -80 -40.5 -120t-131.5 -46l-28 -2v88l22 2q82 6 82 72v45z" />
    <glyph glyph-name="Ncaron" unicode="&#x147;" horiz-adv-x="1425" 
d="M1069 1841l-233 -295h-246l-234 295h164l193 -199l192 199h164zM1122 967v491h170v-1458h-209l-483 752q-218 346 -303 493q6 -285 6 -753v-492h-170v1458h209l483 -751q211 -335 303 -494q-6 285 -6 754z" />
    <glyph glyph-name="ncaron" unicode="&#x148;" horiz-adv-x="1105" 
d="M913 1509l-233 -295h-246l-233 295h164l192 -198l193 198h163zM610 1081q177 0 275 -96.5t98 -269.5v-715h-164v698q0 236 -241 236q-114 0 -203 -86q-88 -85 -88 -250v-598h-164v1057h156v-158q120 182 331 182z" />
    <glyph glyph-name="napostrophe" unicode="&#x149;" horiz-adv-x="1400" 
d="M180 1257h-88v201h203v-219q0 -242 -182 -260l-21 -2v108l14 2q74 9 74 138v32zM905 1081q177 0 275 -96.5t98 -269.5v-715h-164v698q0 236 -242 236q-113 0 -202 -86q-88 -85 -88 -250v-598h-164v1057h155v-158q120 182 332 182z" />
    <glyph glyph-name="Eng" unicode="&#x14a;" horiz-adv-x="1425" 
d="M1122 967v491h170v-1458q0 -206 -102 -307t-316 -101q-43 0 -104 7v143q50 -6 94 -6q264 0 264 264l-503 752q-208 305 -328 510q6 -293 6 -770v-492h-170v1458h209l508 -751q18 -27 111 -171.5t167 -259.5q-6 261 -6 691z" />
    <glyph glyph-name="eng" unicode="&#x14b;" horiz-adv-x="1105" 
d="M610 1081q177 0 275 -96.5t98 -269.5v-903q0 -220 -244 -220q-65 0 -88 2v142h68q100 0 100 90v872q0 236 -241 236q-114 0 -203 -86q-88 -85 -88 -250v-598h-164v1057h156v-158q120 182 331 182z" />
    <glyph glyph-name="Omacron" unicode="&#x14c;" horiz-adv-x="1540" 
d="M1067 1579h-594v137h594v-137zM1468 729q0 -161 -46.5 -299.5t-133.5 -241.5t-220.5 -162t-297.5 -59q-163 0 -296.5 59t-220.5 162.5t-134 242t-47 298.5q0 161 46.5 299.5t133.5 241.5t220.5 162t297.5 59q165 0 298.5 -58.5t220 -161.5t133 -241.5t46.5 -300.5z
M252 729q0 -98 20 -187t61.5 -165.5t102 -132t146 -87.5t188.5 -32t188.5 32t146 87.5t102 132t61.5 165.5t20 187t-20 187t-61.5 165.5t-102 132t-146 87.5t-188.5 32t-188.5 -32t-146 -87.5t-102 -132t-61.5 -165.5t-20 -187z" />
    <glyph glyph-name="omacron" unicode="&#x14d;" horiz-adv-x="1167" 
d="M881 1217h-594v137h594v-137zM1096 528q0 -156 -59.5 -280.5t-177 -198.5t-275.5 -74t-275.5 74t-177 198.5t-59.5 280.5t59.5 280.5t177 198.5t275.5 74t275.5 -74t177 -198.5t59.5 -280.5zM244 528q0 -66 12.5 -125t39 -110.5t65.5 -89t96 -59t127 -21.5t127 21.5
t96 59t65.5 89t39 110.5t12.5 125q0 84 -20 155.5t-59.5 128.5t-106.5 89.5t-154 32.5t-154 -32.5t-106.5 -89.5t-59.5 -128.5t-20 -155.5z" />
    <glyph glyph-name="Obreve" unicode="&#x14e;" horiz-adv-x="1540" 
d="M770 1569q-136 0 -222.5 83t-92.5 222h141q6 -83 52.5 -127.5t121.5 -44.5t121.5 44.5t52.5 127.5h141q-10 -139 -95.5 -222t-219.5 -83zM1468 729q0 -161 -46.5 -299.5t-133.5 -241.5t-220.5 -162t-297.5 -59q-163 0 -296.5 59t-220.5 162.5t-134 242t-47 298.5
q0 161 46.5 299.5t133.5 241.5t220.5 162t297.5 59q165 0 298.5 -58.5t220 -161.5t133 -241.5t46.5 -300.5zM252 729q0 -98 20 -187t61.5 -165.5t102 -132t146 -87.5t188.5 -32t188.5 32t146 87.5t102 132t61.5 165.5t20 187t-20 187t-61.5 165.5t-102 132t-146 87.5
t-188.5 32t-188.5 -32t-146 -87.5t-102 -132t-61.5 -165.5t-20 -187z" />
    <glyph glyph-name="obreve" unicode="&#x14f;" horiz-adv-x="1167" 
d="M584 1206q-136 0 -223 83t-93 222h142q6 -83 52.5 -127.5t121.5 -44.5t121.5 44.5t52.5 127.5h141q-10 -139 -95.5 -222t-219.5 -83zM1096 528q0 -156 -59.5 -280.5t-177 -198.5t-275.5 -74t-275.5 74t-177 198.5t-59.5 280.5t59.5 280.5t177 198.5t275.5 74t275.5 -74
t177 -198.5t59.5 -280.5zM244 528q0 -66 12.5 -125t39 -110.5t65.5 -89t96 -59t127 -21.5t127 21.5t96 59t65.5 89t39 110.5t12.5 125q0 84 -20 155.5t-59.5 128.5t-106.5 89.5t-154 32.5t-154 -32.5t-106.5 -89.5t-59.5 -128.5t-20 -155.5z" />
    <glyph glyph-name="Ohungarumlaut" unicode="&#x150;" horiz-adv-x="1540" 
d="M72 729q0 161 46.5 299.5t133.5 241.5t220.5 162t297.5 59q165 0 298.5 -58.5t220 -161.5t133 -241.5t46.5 -300.5q0 -161 -46.5 -299.5t-133.5 -241.5t-220.5 -162t-297.5 -59q-163 0 -296.5 59t-220.5 162.5t-134 242t-47 298.5zM252 729q0 -98 20 -187t61.5 -165.5
t102 -132t146 -87.5t188.5 -32t188.5 32t146 87.5t102 132t61.5 165.5t20 187t-20 187t-61.5 165.5t-102 132t-146 87.5t-188.5 32t-188.5 -32t-146 -87.5t-102 -132t-61.5 -165.5t-20 -187zM864 1579l176 295h213l-252 -295h-137zM666 1579h-138l177 295h213z" />
    <glyph glyph-name="ohungarumlaut" unicode="&#x151;" horiz-adv-x="1167" 
d="M72 528q0 156 59.5 280.5t177 198.5t275.5 74t275.5 -74t177 -198.5t59.5 -280.5t-59.5 -280.5t-177 -198.5t-275.5 -74t-275.5 74t-177 198.5t-59.5 280.5zM244 528q0 -66 12.5 -125t39 -110.5t65.5 -89t96 -59t127 -21.5t127 21.5t96 59t65.5 89t39 110.5t12.5 125
q0 84 -20 155.5t-59.5 128.5t-106.5 89.5t-154 32.5t-154 -32.5t-106.5 -89.5t-59.5 -128.5t-20 -155.5zM838 1217h-138l177 294h213zM365 1217l176 294h213l-252 -294h-137z" />
    <glyph glyph-name="OE" unicode="&#x152;" horiz-adv-x="2353" 
d="M2302 1458v-155h-842v-465h760v-156h-760v-526h834v-156h-1006v219q-176 -252 -518 -252q-163 0 -296.5 59t-220.5 162.5t-134 242t-47 298.5q0 161 46.5 299.5t133.5 241.5t220.5 162t297.5 59q342 0 518 -252v219h1014zM252 729q0 -98 20 -187t61.5 -165.5t102 -132
t146 -87.5t188.5 -32t188.5 32t146 87.5t102 132t61.5 165.5t20 187t-20 187t-61.5 165.5t-102 132t-146 87.5t-188.5 32t-188.5 -32t-146 -87.5t-102 -132t-61.5 -165.5t-20 -187z" />
    <glyph glyph-name="oe" unicode="&#x153;" horiz-adv-x="1970" 
d="M1898 528v-57h-802q12 -171 96 -258.5t229 -87.5q219 0 281 197h170q-43 -160 -160 -253.5t-295 -93.5q-279 0 -409 232q-136 -232 -424 -232q-158 0 -275.5 74t-177 198.5t-59.5 280.5t59.5 280.5t177 198.5t275.5 74q289 0 424 -231q62 111 166.5 171t238.5 60
q116 0 209.5 -44t153 -120.5t91 -176t31.5 -212.5zM244 528q0 -66 12.5 -125t39 -110.5t65.5 -89t96 -59t127 -21.5t127 21.5t96 59t65.5 89t39 110.5t12.5 125q0 84 -20 155.5t-59.5 128.5t-106.5 89.5t-154 32.5t-154 -32.5t-106.5 -89.5t-59.5 -128.5t-20 -155.5z
M1413 932q-129 0 -211 -81t-102 -233h622q-12 140 -94.5 227t-214.5 87z" />
    <glyph glyph-name="Racute" unicode="&#x154;" horiz-adv-x="1323" 
d="M752 1841h221l-252 -295h-146zM1204 422l15 -236q9 -122 53 -186h-178q-44 65 -47 195l-7 155q-6 148 -66 210.5t-194 62.5h-475v-623h-172v1458h617q225 0 359 -104.5t134 -292.5q0 -134 -64 -225t-175 -127q185 -58 200 -287zM305 778h465q136 0 215.5 71t79.5 202
q0 125 -82 188.5t-233 63.5h-445v-525z" />
    <glyph glyph-name="racute" unicode="&#x155;" horiz-adv-x="724" 
d="M481 1511h201l-182 -294h-133zM279 1057v-187q108 203 339 203q42 0 56 -2v-158h-41q-163 0 -254.5 -80.5t-91.5 -230.5v-602h-164v1057h156z" />
    <glyph glyph-name="uni0156" unicode="&#x156;" horiz-adv-x="1323" 
d="M1204 422l15 -236q9 -122 53 -186h-178q-44 65 -47 195l-7 155q-6 148 -66 210.5t-194 62.5h-475v-623h-172v1458h617q225 0 359 -104.5t134 -292.5q0 -134 -64 -225t-175 -127q185 -58 200 -287zM305 778h465q136 0 215.5 71t79.5 202q0 125 -82 188.5t-233 63.5h-445
v-525zM709 -260h-105v172h201v-211q0 -80 -40.5 -120t-131.5 -46l-29 -2v88l23 2q82 6 82 72v45z" />
    <glyph glyph-name="uni0157" unicode="&#x157;" horiz-adv-x="724" 
d="M618 1073q42 0 56 -2v-158h-41q-163 0 -254.5 -80.5t-91.5 -230.5v-602h-164v1057h156v-187q108 203 339 203zM211 -332h-105v172h201v-211q0 -80 -40.5 -120t-131.5 -46l-29 -2v88l23 2q82 6 82 72v45z" />
    <glyph glyph-name="Rcaron" unicode="&#x158;" horiz-adv-x="1323" 
d="M1006 1841l-234 -295h-246l-233 295h164l192 -199l193 199h164zM1204 422l15 -236q9 -122 53 -186h-178q-44 65 -47 195l-7 155q-6 148 -66 210.5t-194 62.5h-475v-623h-172v1458h617q225 0 359 -104.5t134 -292.5q0 -134 -64 -225t-175 -127q185 -58 200 -287zM305 778
h465q136 0 215.5 71t79.5 202q0 125 -82 188.5t-233 63.5h-445v-525z" />
    <glyph glyph-name="rcaron" unicode="&#x159;" horiz-adv-x="724" 
d="M739 1509l-192 -295h-234l-192 295h153l154 -200l158 200h153zM279 1057v-187q108 203 339 203q42 0 56 -2v-158h-41q-163 0 -254.5 -80.5t-91.5 -230.5v-602h-164v1057h156z" />
    <glyph glyph-name="Sacute" unicode="&#x15a;" horiz-adv-x="1265" 
d="M686 1579h-145l176 295h221zM668 -33q-187 0 -321 54.5t-209.5 171t-76.5 288.5h179q6 -358 428 -358q178 0 273 69.5t95 202.5q0 104 -79 162.5t-275 101.5l-129 29q-222 50 -332 147.5t-110 274.5q0 173 135 277t362 104q125 0 223 -25t161.5 -67t105.5 -101.5t60 -124
t20 -139.5h-177q-12 157 -101.5 229t-291.5 72q-153 0 -236 -59.5t-83 -165.5q0 -40 12 -74t28 -57.5t47 -44.5t54.5 -33.5t66 -25.5t66 -19t68.5 -16l129 -29q242 -53 348 -152.5t106 -263.5q0 -198 -145 -313t-401 -115z" />
    <glyph glyph-name="sacute" unicode="&#x15b;" horiz-adv-x="956" 
d="M555 1217h-145l176 294h221zM496 -25q-425 0 -449 361h166q13 -118 78 -168.5t205 -50.5q254 0 254 164q0 72 -52.5 109t-189.5 63l-98 18q-330 62 -330 311q0 137 103 218t282 81q209 0 317 -89t113 -261h-164q-6 114 -69.5 161.5t-196.5 47.5q-105 0 -163 -41t-58 -115
q0 -69 48.5 -104t164.5 -59l94 -19q195 -38 279.5 -110t84.5 -201q0 -149 -111 -232.5t-308 -83.5z" />
    <glyph glyph-name="Scircumflex" unicode="&#x15c;" horiz-adv-x="1265" 
d="M807 1579l-193 199l-192 -199h-164l234 295h245l234 -295h-164zM631 840l129 -29q242 -53 348 -152.5t106 -263.5q0 -198 -145 -313t-401 -115q-187 0 -321 54.5t-209.5 171t-76.5 288.5h179q6 -358 428 -358q178 0 273 69.5t95 202.5q0 104 -79 162.5t-275 101.5
l-129 29q-222 50 -332 147.5t-110 274.5q0 173 135 277t362 104q125 0 223 -25t161.5 -67t105.5 -101.5t60 -124t20 -139.5h-177q-12 157 -101.5 229t-291.5 72q-153 0 -236 -59.5t-83 -165.5q0 -40 12 -74t28 -57.5t47 -44.5t54.5 -33.5t66 -25.5t66 -19t68.5 -16z" />
    <glyph glyph-name="scircumflex" unicode="&#x15d;" horiz-adv-x="956" 
d="M670 1217l-193 198l-192 -198h-164l233 294h246l234 -294h-164zM457 621l94 -19q195 -38 279.5 -110t84.5 -201q0 -149 -111 -232.5t-308 -83.5q-425 0 -449 361h166q13 -118 78 -168.5t205 -50.5q254 0 254 164q0 72 -52.5 109t-189.5 63l-98 18q-330 62 -330 311
q0 137 103 218t282 81q209 0 317 -89t113 -261h-164q-6 114 -69.5 161.5t-196.5 47.5q-105 0 -163 -41t-58 -115q0 -69 48.5 -104t164.5 -59z" />
    <glyph glyph-name="Scedilla" unicode="&#x15e;" horiz-adv-x="1265" 
d="M1214 395q0 -184 -124.5 -296.5t-350.5 -129.5l-80 -90h19q84 0 134 -45.5t50 -116.5q0 -94 -69 -145t-211 -51q-64 0 -125 12v94q57 -8 118 -8q60 0 95 25t35 69q0 84 -117 84q-40 0 -58 -2v78l76 96q-256 12 -400 141.5t-145 370.5h179q6 -358 428 -358q178 0 273 69.5
t95 202.5q0 104 -79 162.5t-275 101.5l-129 29q-222 50 -332 147.5t-110 274.5q0 173 135 277t362 104q125 0 223 -25t161.5 -67t105.5 -101.5t60 -124t20 -139.5h-177q-12 157 -101.5 229t-291.5 72q-153 0 -236 -59.5t-83 -165.5q0 -40 12 -74t28 -57.5t47 -44.5
t54.5 -33.5t66 -25.5t66 -19t68.5 -16l129 -29q242 -53 348 -152.5t106 -263.5z" />
    <glyph glyph-name="scedilla" unicode="&#x15f;" horiz-adv-x="956" 
d="M915 291q0 -135 -91.5 -216t-256.5 -95l-80 -93h19q85 0 134.5 -45t49.5 -116q0 -94 -69 -145.5t-211 -51.5q-64 0 -125 12v94q57 -8 118 -8q60 0 94.5 25t34.5 69q0 84 -116 84q-40 0 -58 -2v78l76 96q-366 27 -387 359h166q13 -118 78 -168.5t205 -50.5q254 0 254 164
q0 72 -52.5 109t-189.5 63l-98 18q-330 62 -330 311q0 137 103 218t282 81q209 0 317 -89t113 -261h-164q-6 114 -69.5 161.5t-196.5 47.5q-105 0 -163 -41t-58 -115q0 -69 48.5 -104t164.5 -59l94 -19q195 -38 279.5 -110t84.5 -201z" />
    <glyph glyph-name="Scaron" unicode="&#x160;" horiz-adv-x="1265" 
d="M971 1874l-234 -295h-245l-234 295h164l192 -199l193 199h164zM631 840l129 -29q242 -53 348 -152.5t106 -263.5q0 -198 -145 -313t-401 -115q-187 0 -321 54.5t-209.5 171t-76.5 288.5h179q6 -358 428 -358q178 0 273 69.5t95 202.5q0 104 -79 162.5t-275 101.5l-129 29
q-222 50 -332 147.5t-110 274.5q0 173 135 277t362 104q125 0 223 -25t161.5 -67t105.5 -101.5t60 -124t20 -139.5h-177q-12 157 -101.5 229t-291.5 72q-153 0 -236 -59.5t-83 -165.5q0 -40 12 -74t28 -57.5t47 -44.5t54.5 -33.5t66 -25.5t66 -19t68.5 -16z" />
    <glyph glyph-name="scaron" unicode="&#x161;" horiz-adv-x="956" 
d="M834 1509l-234 -295h-246l-233 295h164l192 -198l193 198h164zM457 621l94 -19q195 -38 279.5 -110t84.5 -201q0 -149 -111 -232.5t-308 -83.5q-425 0 -449 361h166q13 -118 78 -168.5t205 -50.5q254 0 254 164q0 72 -52.5 109t-189.5 63l-98 18q-330 62 -330 311
q0 137 103 218t282 81q209 0 317 -89t113 -261h-164q-6 114 -69.5 161.5t-196.5 47.5q-105 0 -163 -41t-58 -115q0 -69 48.5 -104t164.5 -59z" />
    <glyph glyph-name="uni0162" unicode="&#x162;" horiz-adv-x="1251" 
d="M715 1303v-1303h-21l-78 -88h19q84 0 134 -45.5t50 -116.5q0 -94 -69 -145t-211 -51q-63 0 -125 12v94q57 -8 118 -8q60 0 95 25t35 69q0 84 -117 84q-40 0 -58 -2v78l74 94h-24v1303h-496v155h1169v-155h-495z" />
    <glyph glyph-name="uni0163" unicode="&#x163;" horiz-adv-x="636" 
d="M387 -88h19q84 0 134 -45.5t50 -116.5q0 -94 -69.5 -145t-211.5 -51q-63 0 -125 12v94q57 -8 119 -8q60 0 94.5 25t34.5 69q0 84 -117 84q-39 0 -57 -2v78l82 104q-135 40 -135 203v700h-174v144h174v299h164v-299h217v-144h-217v-686q0 -90 120 -90h97v-137
q-68 -6 -117 -6h-10z" />
    <glyph glyph-name="Tcaron" unicode="&#x164;" horiz-adv-x="1251" 
d="M983 1841l-233 -295h-246l-234 295h164l193 -199l192 199h164zM41 1458h1169v-155h-495v-1303h-178v1303h-496v155z" />
    <glyph glyph-name="tcaron" unicode="&#x165;" horiz-adv-x="636" 
d="M510 1458h190l-143 -340h-125zM205 1356h164v-299h217v-144h-217v-686q0 -90 120 -90h97v-137q-68 -6 -117 -6q-264 0 -264 219v700h-174v144h174v299z" />
    <glyph glyph-name="Tbar" unicode="&#x166;" horiz-adv-x="1251" 
d="M1210 1458v-155h-495v-496h284v-133h-284v-674h-178v674h-285v133h285v496h-496v155h1169z" />
    <glyph glyph-name="tbar" unicode="&#x167;" horiz-adv-x="636" 
d="M586 1057v-144h-217v-303h215v-133h-215v-250q0 -90 120 -90h97v-137q-68 -6 -117 -6q-264 0 -264 219v264h-172v133h172v303h-174v144h174v299h164v-299h217z" />
    <glyph glyph-name="Utilde" unicode="&#x168;" horiz-adv-x="1372" 
d="M479 1546h-139q0 252 184 252q67 0 178 -57q83 -45 129 -45q58 0 58 102h139q0 -252 -184 -252q-58 0 -187 60q-87 43 -120 43q-58 0 -58 -103zM1260 541q0 -275 -150 -423.5t-424 -148.5t-423.5 148.5t-149.5 423.5v917h172v-917q0 -416 401 -416t401 416v917h173v-917z
" />
    <glyph glyph-name="utilde" unicode="&#x169;" horiz-adv-x="1105" 
d="M393 1319q-57 0 -57 -102h-139q0 251 184 251q67 0 178 -57q83 -45 129 -45q57 0 57 102h140q0 -251 -185 -251q-59 0 -186 59q-87 43 -121 43zM819 459v598h164v-1057h-156v158q-121 -183 -331 -183q-177 0 -275 97t-98 270v715h164v-699q0 -235 241 -235q114 0 203 86
q88 85 88 250z" />
    <glyph glyph-name="Umacron" unicode="&#x16a;" horiz-adv-x="1372" 
d="M983 1546h-594v137h594v-137zM1260 541q0 -275 -150 -423.5t-424 -148.5t-423.5 148.5t-149.5 423.5v917h172v-917q0 -416 401 -416t401 416v917h173v-917z" />
    <glyph glyph-name="umacron" unicode="&#x16b;" horiz-adv-x="1105" 
d="M246 1354h594v-137h-594v137zM819 459v598h164v-1057h-156v158q-121 -183 -331 -183q-177 0 -275 97t-98 270v715h164v-699q0 -235 241 -235q114 0 203 86q88 85 88 250z" />
    <glyph glyph-name="Ubreve" unicode="&#x16c;" horiz-adv-x="1372" 
d="M686 1536q-136 0 -222.5 83t-92.5 222h141q6 -83 52.5 -127.5t121.5 -44.5t121.5 44.5t52.5 127.5h141q-10 -139 -95.5 -222t-219.5 -83zM1260 541q0 -275 -150 -423.5t-424 -148.5t-423.5 148.5t-149.5 423.5v917h172v-917q0 -416 401 -416t401 416v917h173v-917z" />
    <glyph glyph-name="ubreve" unicode="&#x16d;" horiz-adv-x="1105" 
d="M543 1206q-136 0 -223 83t-93 222h142q6 -83 52.5 -127.5t121.5 -44.5t121.5 44.5t52.5 127.5h141q-10 -139 -95.5 -222t-219.5 -83zM819 459v598h164v-1057h-156v158q-121 -183 -331 -183q-177 0 -275 97t-98 270v715h164v-699q0 -235 241 -235q114 0 203 86
q88 85 88 250z" />
    <glyph glyph-name="Uring" unicode="&#x16e;" horiz-adv-x="1372" 
d="M946 1589q0 -109 -75 -179.5t-185 -70.5q-109 0 -184.5 71.5t-75.5 178.5t75.5 178.5t184.5 71.5q110 0 185 -70.5t75 -179.5zM592 1497q42 -39 94 -39q55 0 94 39q38 37 38 92.5t-38 93.5q-37 37 -94 37q-54 0 -94 -37q-38 -38 -38 -93.5t38 -92.5zM1260 541
q0 -275 -150 -423.5t-424 -148.5t-423.5 148.5t-149.5 423.5v917h172v-917q0 -416 401 -416t401 416v917h173v-917z" />
    <glyph glyph-name="uring" unicode="&#x16f;" horiz-adv-x="1105" 
d="M803 1456q0 -109 -75 -179.5t-185 -70.5q-109 0 -184.5 71.5t-75.5 178.5t75.5 178.5t184.5 71.5q110 0 185 -70.5t75 -179.5zM637 1550q-37 37 -94 37q-54 0 -94 -37q-38 -38 -38 -93.5t38 -92.5q42 -39 94 -39q55 0 94 39q38 37 38 92.5t-38 93.5zM819 459v598h164
v-1057h-156v158q-121 -183 -331 -183q-177 0 -275 97t-98 270v715h164v-699q0 -235 241 -235q114 0 203 86q88 85 88 250z" />
    <glyph glyph-name="Uhungarumlaut" unicode="&#x170;" horiz-adv-x="1372" 
d="M113 1458h172v-917q0 -416 401 -416t401 416v917h173v-917q0 -275 -150 -423.5t-424 -148.5t-423.5 148.5t-149.5 423.5v917zM918 1546h-138l176 295h213zM444 1546l177 295h213l-252 -295h-138z" />
    <glyph glyph-name="uhungarumlaut" unicode="&#x171;" horiz-adv-x="1105" 
d="M123 342v715h164v-699q0 -235 241 -235q136 0 213.5 98t77.5 238v598h164v-1057h-156v158q-121 -183 -331 -183q-177 0 -275 97t-98 270zM659 1217l177 294h213l-252 -294h-138zM461 1217h-137l176 294h213z" />
    <glyph glyph-name="Uogonek" unicode="&#x172;" horiz-adv-x="1372" 
d="M1087 541v917h173v-917q0 -210 -91 -348.5t-262 -192.5q-213 -106 -213 -205q0 -41 29 -63.5t74 -22.5q57 0 110 21v-133q-58 -23 -139 -23q-98 0 -163.5 50.5t-65.5 139.5q0 57 39 112t106 93q-271 0 -421 150t-150 422v917h172v-917q0 -416 401 -416t401 416z" />
    <glyph glyph-name="uogonek" unicode="&#x173;" horiz-adv-x="1105" 
d="M983 1057v-1057q-213 -106 -213 -205q0 -41 28.5 -63.5t73.5 -22.5q58 0 111 21v-133q-57 -23 -139 -23q-98 0 -164 50.5t-66 139.5q0 70 58 135.5t155 100.5v158q-121 -183 -331 -183q-177 0 -275 97t-98 270v715h164v-699q0 -235 241 -235q114 0 203 86q88 85 88 250
v598h164z" />
    <glyph glyph-name="Wcircumflex" unicode="&#x174;" horiz-adv-x="1957" 
d="M1171 1546l-192 199l-193 -199h-163l233 295h246l233 -295h-164zM1550 739l199 719h178l-414 -1458h-192l-209 743q-85 304 -133 494q-48 -190 -133 -494l-209 -743h-193l-413 1458h178l199 -719q96 -343 137 -522q72 283 139 526l199 715h192l199 -715q67 -243 139 -526
q41 179 137 522z" />
    <glyph glyph-name="wcircumflex" unicode="&#x175;" horiz-adv-x="1593" 
d="M989 1217l-192 198l-193 -198h-164l234 294h246l233 -294h-164zM1257 580l150 477h176l-352 -1057h-172l-156 489q-70 229 -106 359q-52 -184 -109 -359l-153 -489h-173l-352 1057h176l150 -477q54 -170 115 -385q72 259 112 385l148 477h172l147 -477
q26 -88 64.5 -214.5t50.5 -166.5q24 88 112 381z" />
    <glyph glyph-name="Ycircumflex" unicode="&#x176;" horiz-adv-x="1347" 
d="M866 1546l-192 199l-193 -199h-164l234 295h246l233 -295h-164zM909 1118l213 340h195l-557 -872v-586h-172v586l-557 872h196l215 -342q139 -218 234 -377q145 242 233 379z" />
    <glyph glyph-name="ycircumflex" unicode="&#x177;" horiz-adv-x="980" 
d="M684 1217l-192 198l-193 -198h-164l234 294h245l234 -294h-164zM643 618l150 439h178l-447 -1223q-48 -132 -129 -187t-215 -55q-37 0 -98 7v137h96q141 0 193 131l37 98l-398 1092h180l150 -441q71 -208 152 -456q57 184 151 458z" />
    <glyph glyph-name="Ydieresis" unicode="&#x178;" horiz-adv-x="1347" 
d="M406 1747h174v-201h-174v201zM764 1747h174v-201h-174v201zM909 1118l213 340h195l-557 -872v-586h-172v586l-557 872h196l215 -342q139 -218 234 -377q145 242 233 379z" />
    <glyph glyph-name="Zacute" unicode="&#x179;" horiz-adv-x="1228" 
d="M727 1841h221l-252 -295h-145zM678 156h500v-156h-1127v156l643 825q67 87 256 326q-184 -4 -418 -4h-444v155h1075v-155l-647 -826q-46 -60 -256 -325q184 4 418 4z" />
    <glyph glyph-name="zacute" unicode="&#x17a;" horiz-adv-x="997" 
d="M608 1511h221l-251 -294h-146zM502 143h424v-143h-854v123l483 622q21 28 137 173q-128 -5 -225 -5h-375v144h805v-123l-483 -623q-35 -45 -84.5 -106t-53.5 -66q102 4 226 4z" />
    <glyph glyph-name="Zdotaccent" unicode="&#x17b;" horiz-adv-x="1228" 
d="M535 1747h176v-201h-176v201zM678 156h500v-156h-1127v156l643 825q67 87 256 326q-184 -4 -418 -4h-444v155h1075v-155l-647 -826q-46 -60 -256 -325q184 4 418 4z" />
    <glyph glyph-name="zdotaccent" unicode="&#x17c;" horiz-adv-x="997" 
d="M410 1417h176v-200h-176v200zM502 143h424v-143h-854v123l483 622q21 28 137 173q-128 -5 -225 -5h-375v144h805v-123l-483 -623q-35 -45 -84.5 -106t-53.5 -66q102 4 226 4z" />
    <glyph glyph-name="Zcaron" unicode="&#x17d;" horiz-adv-x="1228" 
d="M981 1841l-233 -295h-246l-234 295h164l193 -199l192 199h164zM678 156h500v-156h-1127v156l643 825q67 87 256 326q-184 -4 -418 -4h-444v155h1075v-155l-647 -826q-46 -60 -256 -325q184 4 418 4z" />
    <glyph glyph-name="zcaron" unicode="&#x17e;" horiz-adv-x="997" 
d="M856 1509l-233 -295h-246l-234 295h164l193 -198l192 198h164zM502 143h424v-143h-854v123l483 622q21 28 137 173q-128 -5 -225 -5h-375v144h805v-123l-483 -623q-35 -45 -84.5 -106t-53.5 -66q102 4 226 4z" />
    <glyph glyph-name="uni018F" unicode="&#x18f;" horiz-adv-x="1476" 
d="M731 1491q132 0 243 -39.5t189.5 -109.5t133.5 -166t81.5 -210t26.5 -241q0 -126 -26.5 -238.5t-81 -208t-133 -164.5t-188 -108t-239.5 -39q-160 0 -288.5 60t-209.5 164t-124 240t-43 292v57h1153q-12 268 -141 411.5t-357 143.5q-169 0 -287.5 -92.5t-156.5 -253.5
h-179q56 236 220.5 369t406.5 133zM737 123q212 0 339 132.5t147 377.5h-969q7 -108 41 -199.5t93 -161.5t148.5 -109.5t200.5 -39.5z" />
    <glyph glyph-name="florin" unicode="&#x192;" horiz-adv-x="927" 
d="M772 1464q52 0 105 -6v-143q-49 6 -84 6q-69 0 -104.5 -35t-47.5 -115l-55 -370h194v-142h-215l-114 -786q-24 -159 -88 -228t-207 -69q-52 0 -105 6v144q58 -7 84 -7q69 0 104.5 35t47.5 115l116 790h-182v142h203l53 366q24 159 88 228t207 69z" />
    <glyph glyph-name="uni01F4" unicode="&#x1f4;" horiz-adv-x="1529" 
d="M866 1874h221l-251 -295h-146zM797 594v156h620v-750h-141l-37 197q-163 -230 -477 -230q-162 0 -294 59.5t-218 163.5t-132 242t-46 297q0 162 45.5 300t131 241.5t218 162t297.5 58.5q250 0 424 -134t213 -376h-178q-19 111 -87 192t-164 120.5t-208 39.5
q-102 0 -187 -32t-144.5 -88t-100.5 -132.5t-60.5 -165t-19.5 -186.5t19.5 -186.5t60.5 -165t100.5 -132.5t144.5 -88t187 -32q101 0 192 34.5t158.5 95t107.5 149t40 190.5h-465z" />
    <glyph glyph-name="uni01F5" unicode="&#x1f5;" horiz-adv-x="1204" 
d="M692 1511h221l-251 -294h-146zM926 903v154h155v-1016q0 -218 -127 -342.5t-364 -124.5q-197 0 -315.5 90.5t-135.5 249.5h164q30 -201 287 -201q328 0 328 328v102q-125 -168 -355 -168q-157 0 -270 76t-167 199t-54 278q0 116 31.5 215.5t91.5 175t154.5 119
t213.5 43.5q237 0 363 -178zM584 123q156 0 248 108t92 297t-92 297.5t-248 108.5q-154 0 -247 -111t-93 -295t93 -294.5t247 -110.5z" />
    <glyph glyph-name="Aringacute" unicode="&#x1fa;" horiz-adv-x="1425" 
d="M1395 0h-183l-170 424h-663l-168 -424h-180l547 1370q-132 70 -132 219q0 96 61.5 164t156.5 82l145 244h221l-221 -258q73 -30 115.5 -91.5t42.5 -140.5q0 -146 -127 -217zM801 1683q-37 37 -94 37q-55 0 -95 -37q-38 -38 -38 -93.5t38 -92.5q42 -39 95 -39q55 0 94 39
q38 37 38 92.5t-38 93.5zM446 596l-6 -16h541l-8 18q-19 46 -266 674q-136 -361 -261 -676z" />
    <glyph glyph-name="aringacute" unicode="&#x1fb;" horiz-adv-x="1067" 
d="M641 2140h221l-252 -295h-145zM793 1456q0 -109 -75.5 -179.5t-185.5 -70.5q-109 0 -184.5 71.5t-75.5 178.5t75.5 178.5t184.5 71.5q110 0 185.5 -70.5t75.5 -179.5zM627 1550q-37 37 -95 37q-54 0 -94 -37q-38 -38 -38 -93.5t38 -92.5q42 -39 94 -39q56 0 95 39
q38 37 38 92.5t-38 93.5zM987 133h60v-133q-40 -6 -91 -6q-166 0 -178 151q-111 -170 -344 -170q-174 0 -273.5 81.5t-99.5 228.5q0 286 392 327l151 17q166 18 166 145q0 88 -54.5 127t-183.5 39q-138 0 -198.5 -46.5t-67.5 -162.5h-164q21 350 430 350q398 0 398 -307
v-590q0 -51 57 -51zM442 115q139 0 233.5 83t94.5 220v125q-44 -36 -139 -45l-154 -19q-134 -17 -190 -62t-56 -128t53.5 -128.5t157.5 -45.5z" />
    <glyph glyph-name="AEacute" unicode="&#x1fc;" horiz-adv-x="2113" 
d="M1565 1841h221l-252 -295h-145zM2062 1458v-155h-780v-465h698v-156h-698v-526h772v-156h-944v424h-661l-228 -424h-190l788 1458h1243zM922 1303l-390 -723h578v723h-188z" />
    <glyph glyph-name="aeacute" unicode="&#x1fd;" horiz-adv-x="1767" 
d="M999 1511h222l-252 -294h-146zM1696 528v-57h-764q12 -171 92 -258.5t217 -87.5q207 0 266 197h162q-38 -159 -151 -253t-281 -94q-257 0 -387 220q-67 -105 -176 -162.5t-240 -57.5q-174 0 -273.5 81.5t-99.5 228.5q0 286 392 327l151 17q166 18 166 145q0 88 -54.5 127
t-183.5 39q-138 0 -198.5 -46.5t-67.5 -162.5h-164q21 350 430 350q281 0 363 -155q128 155 338 155q92 0 169 -30t130.5 -82t91 -122.5t55 -151t17.5 -167.5zM1233 932q-123 0 -200.5 -81t-96.5 -233h592q-12 140 -90.5 227t-204.5 87zM442 115q139 0 233.5 83t94.5 220
v125q-44 -36 -139 -45l-154 -19q-134 -17 -190 -62t-56 -128t53.5 -128.5t157.5 -45.5z" />
    <glyph glyph-name="Oslashacute" unicode="&#x1fe;" horiz-adv-x="1540" 
d="M872 1874h222l-252 -295h-146zM1399 1546l108 -96l-190 -215q151 -207 151 -506q0 -161 -46.5 -299.5t-133.5 -241.5t-220.5 -162t-297.5 -59q-262 0 -444 150l-185 -207l-108 96l192 217q-153 200 -153 506q0 161 46.5 299.5t133.5 241.5t220.5 162t297.5 59
q260 0 447 -152zM252 729q0 -222 92 -373l760 858q-134 119 -334 119q-103 0 -188.5 -32t-146 -87.5t-102 -132t-61.5 -165.5t-20 -187zM1288 729q0 215 -90 371l-760 -856q134 -119 332 -119q103 0 188.5 32t146 87.5t102 132t61.5 165.5t20 187z" />
    <glyph glyph-name="oslashacute" unicode="&#x1ff;" horiz-adv-x="1165" 
d="M692 1511h221l-251 -294h-146zM1022 1141l102 -90l-139 -160q111 -150 111 -363q0 -156 -59.5 -280.5t-177 -198.5t-275.5 -74q-175 0 -305 95l-136 -156l-102 90l141 162q-110 149 -110 362q0 156 59.5 280.5t177 198.5t275.5 74q177 0 305 -94zM244 528q0 -140 49 -231
l493 571q-84 66 -202 66q-156 0 -248 -108.5t-92 -297.5zM924 528q0 131 -50 234l-493 -574q83 -65 203 -65q156 0 248 108t92 297z" />
    <glyph glyph-name="uni0218" unicode="&#x218;" horiz-adv-x="1265" 
d="M631 840l129 -29q242 -53 348 -152.5t106 -263.5q0 -198 -145 -313t-401 -115q-187 0 -321 54.5t-209.5 171t-76.5 288.5h179q6 -358 428 -358q178 0 273 69.5t95 202.5q0 104 -79 162.5t-275 101.5l-129 29q-222 50 -332 147.5t-110 274.5q0 173 135 277t362 104
q125 0 223 -25t161.5 -67t105.5 -101.5t60 -124t20 -139.5h-177q-12 157 -101.5 229t-291.5 72q-153 0 -236 -59.5t-83 -165.5q0 -40 12 -74t28 -57.5t47 -44.5t54.5 -33.5t66 -25.5t66 -19t68.5 -16zM676 -293h-105v172h201v-211q0 -80 -40.5 -120t-131.5 -46l-29 -2v88
l23 2q82 6 82 72v45z" />
    <glyph glyph-name="uni0219" unicode="&#x219;" horiz-adv-x="956" 
d="M457 621l94 -19q195 -38 279.5 -110t84.5 -201q0 -149 -111 -232.5t-308 -83.5q-425 0 -449 361h166q13 -118 78 -168.5t205 -50.5q254 0 254 164q0 72 -52.5 109t-189.5 63l-98 18q-330 62 -330 311q0 137 103 218t282 81q209 0 317 -89t113 -261h-164
q-6 114 -69.5 161.5t-196.5 47.5q-105 0 -163 -41t-58 -115q0 -69 48.5 -104t164.5 -59zM504 -356h-105v172h201v-211q0 -80 -40.5 -120t-131.5 -46l-29 -2v88l23 2q82 6 82 72v45z" />
    <glyph glyph-name="uni021A" unicode="&#x21a;" horiz-adv-x="1251" 
d="M41 1303v155h1169v-155h-495v-1303h-178v1303h-496zM633 -260h-105v172h201v-211q0 -80 -40.5 -120t-131.5 -46l-29 -2v88l23 2q82 6 82 72v45z" />
    <glyph glyph-name="uni021B" unicode="&#x21b;" horiz-adv-x="636" 
d="M586 1057v-144h-217v-686q0 -90 120 -90h97v-137q-68 -6 -117 -6q-264 0 -264 219v700h-174v144h174v299h164v-299h217zM403 -332h-104v172h201v-211q0 -80 -40.5 -120t-131.5 -46l-29 -2v88l23 2q81 6 81 72v45z" />
    <glyph glyph-name="uni0237" unicode="&#x237;" horiz-adv-x="409" 
d="M43 -408q-65 0 -88 2v142h68q100 0 100 90v1231h164v-1245q0 -220 -244 -220z" />
    <glyph glyph-name="uni0259" unicode="&#x259;" horiz-adv-x="1116" 
d="M553 1081q119 0 213.5 -43.5t154.5 -119t91.5 -175t31.5 -215.5q0 -114 -31.5 -213.5t-91 -175.5t-153.5 -120t-211 -44q-116 0 -209.5 44t-153 120.5t-91 176t-31.5 212.5v58h802q-12 171 -96 258.5t-229 87.5q-109 0 -183 -52t-104 -145h-172q42 159 163 252.5
t300 93.5zM557 125q129 0 211 80.5t102 232.5h-622q12 -140 94.5 -226.5t214.5 -86.5z" />
    <glyph glyph-name="uni02B0" unicode="&#x2b0;" horiz-adv-x="954" 
d="M254 537h-162v1267h162v-485q103 158 285 158q154 0 238.5 -85.5t84.5 -240.5v-614h-162v596q0 202 -202 202q-103 0 -173.5 -75t-70.5 -205v-518z" />
    <glyph glyph-name="uni02B3" unicode="&#x2b3;" horiz-adv-x="651" 
d="M541 1473q34 0 49 -3v-153h-43q-140 0 -216.5 -72t-76.5 -205v-503h-162v921h156v-166q88 181 293 181z" />
    <glyph glyph-name="circumflex" unicode="&#x2c6;" horiz-adv-x="819" 
d="M532 1511l234 -294h-164l-192 198l-193 -198h-164l234 294h245z" />
    <glyph glyph-name="caron" unicode="&#x2c7;" horiz-adv-x="819" 
d="M410 1311l192 198h164l-234 -295h-245l-234 295h164z" />
    <glyph glyph-name="uni02C9" unicode="&#x2c9;" horiz-adv-x="819" 
d="M707 1217h-594v137h594v-137z" />
    <glyph glyph-name="breve" unicode="&#x2d8;" horiz-adv-x="819" 
d="M410 1206q-136 0 -223 83t-93 222h142q6 -83 52.5 -127.5t121.5 -44.5t121.5 44.5t52.5 127.5h141q-10 -139 -95.5 -222t-219.5 -83z" />
    <glyph glyph-name="dotaccent" unicode="&#x2d9;" horiz-adv-x="819" 
d="M498 1217h-176v200h176v-200z" />
    <glyph glyph-name="ring" unicode="&#x2da;" horiz-adv-x="819" 
d="M670 1456q0 -109 -75 -179.5t-185 -70.5q-109 0 -184.5 71.5t-75.5 178.5t75.5 178.5t184.5 71.5q110 0 185 -70.5t75 -179.5zM315 1364q42 -39 95 -39q55 0 94 39q38 37 38 92.5t-38 93.5q-37 37 -94 37q-55 0 -95 -37q-38 -38 -38 -93.5t38 -92.5z" />
    <glyph glyph-name="ogonek" unicode="&#x2db;" horiz-adv-x="819" 
d="M455 -426q-98 0 -164 50.5t-66 139.5q0 70 58 135.5t155 100.5h156q-213 -106 -213 -205q0 -41 28.5 -63.5t73.5 -22.5q59 0 111 21v-133q-58 -23 -139 -23z" />
    <glyph glyph-name="tilde" unicode="&#x2dc;" horiz-adv-x="819" 
d="M205 1217h-139q0 251 184 251q67 0 178 -57q83 -45 129 -45q57 0 57 102h140q0 -251 -185 -251q-59 0 -186 59q-87 43 -121 43q-57 0 -57 -102z" />
    <glyph glyph-name="hungarumlaut" unicode="&#x2dd;" horiz-adv-x="819" 
d="M520 1217h-137l176 294h213zM184 1217h-137l176 294h213z" />
    <glyph glyph-name="uni02E2" unicode="&#x2e2;" horiz-adv-x="876" 
d="M449 514q-195 0 -291 77t-107 236h162q11 -101 63 -142.5t175 -41.5q213 0 213 137q0 61 -45 93t-158 51l-99 16q-288 46 -288 272q0 124 93 194.5t265 70.5q366 0 375 -303h-158q-6 95 -59 135.5t-160 40.5q-194 0 -194 -131q0 -61 43.5 -94.5t136.5 -47.5l94 -14
q163 -25 239 -87.5t76 -182.5q0 -132 -100.5 -205.5t-275.5 -73.5z" />
    <glyph glyph-name="gravecomb" unicode="&#x300;" 
d="M199 1217h-146l-252 294h222z" />
    <glyph glyph-name="acutecomb" unicode="&#x301;" 
d="M-53 1217h-146l176 294h222z" />
    <glyph glyph-name="uni0302" unicode="&#x302;" 
d="M123 1511l233 -294h-163l-193 198l-193 -198h-163l233 294h246z" />
    <glyph glyph-name="tildecomb" unicode="&#x303;" 
d="M-205 1217h-139q0 251 184 251q67 0 178 -57q83 -45 129 -45q58 0 58 102h139q0 -251 -184 -251q-60 0 -187 59q-87 43 -120 43q-58 0 -58 -102z" />
    <glyph glyph-name="uni0304" unicode="&#x304;" 
d="M297 1217h-594v137h594v-137z" />
    <glyph glyph-name="uni0306" unicode="&#x306;" 
d="M-315 1206q-136 0 -223 83t-93 222h142q6 -83 52.5 -127.5t121.5 -44.5t121.5 44.5t52.5 127.5h141q-10 -139 -95.5 -222t-219.5 -83z" />
    <glyph glyph-name="uni0307" unicode="&#x307;" 
d="M88 1217h-176v200h176v-200z" />
    <glyph glyph-name="uni0308" unicode="&#x308;" 
d="M-92 1217h-174v200h174v-200zM266 1217h-174v200h174v-200z" />
    <glyph glyph-name="uni030A" unicode="&#x30a;" 
d="M260 1456q0 -109 -75 -179.5t-185 -70.5t-185 70.5t-75 179.5t75 179.5t185 70.5t185 -70.5t75 -179.5zM-94 1364q39 -39 94 -39t94 39q38 37 38 92.5t-38 93.5q-37 37 -94 37t-94 -37q-38 -38 -38 -93.5t38 -92.5z" />
    <glyph glyph-name="uni030B" unicode="&#x30b;" 
d="M111 1217h-138l177 294h212zM-225 1217h-137l176 294h213z" />
    <glyph glyph-name="uni030C" unicode="&#x30c;" 
d="M-356 1311l192 198h164l-233 -295h-246l-234 295h164z" />
    <glyph glyph-name="uni0312" unicode="&#x312;" 
d="M100 1507l-22 -2q-82 -6 -82 -71v-45h104v-172h-200v210q0 80 40.5 120t131.5 46l28 2v-88z" />
    <glyph glyph-name="uni0313" unicode="&#x313;" 
d="M-100 1413v172h200v-211q0 -80 -40.5 -120t-131.5 -46l-28 -2v88l22 2q82 6 82 72v45h-104z" />
    <glyph glyph-name="dotbelowcomb" unicode="&#x323;" 
d="M88 -360h-176v200h176v-200z" />
    <glyph glyph-name="uni0324" unicode="&#x324;" 
d="M-92 -360h-174v200h174v-200zM266 -360h-174v200h174v-200z" />
    <glyph glyph-name="uni0325" unicode="&#x325;" 
d="M260 -410q0 -109 -75 -179t-185 -70t-185 70t-75 179t75 179.5t185 70.5t185 -70.5t75 -179.5zM-94 -504q37 -37 94 -37t94 37q38 38 38 94t-38 93q-38 38 -94 38t-94 -38q-38 -37 -38 -93t38 -94z" />
    <glyph glyph-name="uni0326" unicode="&#x326;" 
d="M-100 -332v172h200v-211q0 -80 -40.5 -120t-131.5 -46l-28 -2v88l22 2q82 6 82 72v45h-104z" />
    <glyph glyph-name="uni0327" unicode="&#x327;" 
d="M-203 -88h19q84 0 134 -45.5t50 -116.5q0 -94 -69.5 -145t-211.5 -51q-63 0 -125 12v94q57 -8 119 -8q60 0 94.5 25t34.5 69q0 84 -116 84q-40 0 -58 -2v78l82 104h133z" />
    <glyph glyph-name="uni0328" unicode="&#x328;" 
d="M45 -426q-98 0 -163.5 50.5t-65.5 139.5q0 70 58 135.5t155 100.5h155q-213 -106 -213 -205q0 -41 29 -63.5t74 -22.5q58 0 110 21v-133q-57 -23 -139 -23z" />
    <glyph glyph-name="uni032E" unicode="&#x32e;" 
d="M-315 -465q-136 0 -223 83t-93 222h142q6 -83 52.5 -127.5t121.5 -44.5t121.5 44.5t52.5 127.5h141q-10 -139 -95.5 -222t-219.5 -83z" />
    <glyph glyph-name="uni0331" unicode="&#x331;" 
d="M297 -297h-594v137h594v-137z" />
    <glyph glyph-name="uni0335" unicode="&#x335;" 
d="M289 496h-578v133h578v-133z" />
    <glyph glyph-name="uni0337" unicode="&#x337;" 
d="M543 1049l-983 -1137l-103 90l983 1137z" />
    <glyph glyph-name="uni0338" unicode="&#x338;" 
d="M737 1430l-1366 -1541l-108 97l1366 1540z" />
    <glyph glyph-name="uni0394" unicode="&#x394;" horiz-adv-x="1341" 
d="M1290 0h-1239v156l520 1302h193l526 -1302v-156zM231 156h879l-178 442q-19 46 -266 674q-166 -444 -260 -676z" />
    <glyph glyph-name="uni03A9" unicode="&#x3a9;" horiz-adv-x="1560" 
d="M672 0h-600v154h348v4q-158 103 -245 269.5t-87 358.5q0 319 187.5 509t506.5 190t501.5 -189.5t182.5 -509.5q0 -195 -84 -360t-241 -268v-4h348v-154h-598v137q199 104 300 271t101 378q0 265 -135.5 405t-374.5 140q-243 0 -381.5 -140t-138.5 -405q0 -207 105 -376
t305 -273v-137z" />
    <glyph glyph-name="uni03BC" unicode="&#x3bc;" horiz-adv-x="1105" 
d="M819 459v598h164v-1057h-156v158q-121 -183 -331 -183q-120 0 -209 74v-450h-164v1458h164v-699q0 -235 241 -235q114 0 203 86q88 85 88 250z" />
    <glyph glyph-name="pi" unicode="&#x3c0;" horiz-adv-x="1153" 
d="M1102 1057v-144h-174v-684q0 -50 16 -70t64 -20h73v-139q-61 -6 -96 -6q-112 0 -166.5 52.5t-54.5 168.5v698h-395v-913h-164v913h-174v144h1071z" />
    <glyph glyph-name="uni1D48" unicode="&#x1d48;" horiz-adv-x="1060" 
d="M807 1319v485h162v-1267h-156v145q-105 -166 -309 -166q-192 0 -307 130t-115 349q0 220 115 351t307 131q200 0 303 -158zM250 989q0 -146 69.5 -240t210.5 -94q95 0 160.5 49t93 123.5t27.5 167.5q0 160 -75.5 251t-205.5 91q-129 0 -204.5 -93.5t-75.5 -254.5z" />
    <glyph glyph-name="uni1D57" unicode="&#x1d57;" horiz-adv-x="624" 
d="M563 1458v-133h-190v-569q0 -44 24 -65t84 -21h82v-129q-56 -9 -106 -9q-246 0 -246 207v586h-150v133h150v262h162v-262h190z" />
    <glyph glyph-name="Wgrave" unicode="&#x1e80;" horiz-adv-x="1957" 
d="M868 1841l176 -295h-145l-252 295h221zM1550 739l199 719h178l-414 -1458h-192l-209 743q-85 304 -133 494q-48 -190 -133 -494l-209 -743h-193l-413 1458h178l199 -719q96 -343 137 -522q72 283 139 526l199 715h192l199 -715q67 -243 139 -526q41 179 137 522z" />
    <glyph glyph-name="wgrave" unicode="&#x1e81;" horiz-adv-x="1593" 
d="M696 1511l176 -294h-145l-252 294h221zM1257 580l150 477h176l-352 -1057h-172l-156 489q-70 229 -106 359q-52 -184 -109 -359l-153 -489h-173l-352 1057h176l150 -477q54 -170 115 -385q72 259 112 385l148 477h172l147 -477q26 -88 64.5 -214.5t50.5 -166.5
q24 88 112 381z" />
    <glyph glyph-name="Wacute" unicode="&#x1e82;" horiz-adv-x="1957" 
d="M1081 1841h222l-252 -295h-146zM1550 739l199 719h178l-414 -1458h-192l-209 743q-85 304 -133 494q-48 -190 -133 -494l-209 -743h-193l-413 1458h178l199 -719q96 -343 137 -522q72 283 139 526l199 715h192l199 -715q67 -243 139 -526q41 179 137 522z" />
    <glyph glyph-name="wacute" unicode="&#x1e83;" horiz-adv-x="1593" 
d="M905 1511h221l-252 -294h-145zM1257 580l150 477h176l-352 -1057h-172l-156 489q-70 229 -106 359q-52 -184 -109 -359l-153 -489h-173l-352 1057h176l150 -477q54 -170 115 -385q72 259 112 385l148 477h172l147 -477q26 -88 64.5 -214.5t50.5 -166.5q24 88 112 381z
" />
    <glyph glyph-name="Wdieresis" unicode="&#x1e84;" horiz-adv-x="1957" 
d="M711 1747h174v-201h-174v201zM1069 1747h174v-201h-174v201zM1550 739l199 719h178l-414 -1458h-192l-209 743q-85 304 -133 494q-48 -190 -133 -494l-209 -743h-193l-413 1458h178l199 -719q96 -343 137 -522q72 283 139 526l199 715h192l199 -715q67 -243 139 -526
q41 179 137 522z" />
    <glyph glyph-name="wdieresis" unicode="&#x1e85;" horiz-adv-x="1593" 
d="M528 1417h174v-200h-174v200zM887 1417h174v-200h-174v200zM1257 580l150 477h176l-352 -1057h-172l-156 489q-70 229 -106 359q-52 -184 -109 -359l-153 -489h-173l-352 1057h176l150 -477q54 -170 115 -385q72 259 112 385l148 477h172l147 -477q26 -88 64.5 -214.5
t50.5 -166.5q24 88 112 381z" />
    <glyph glyph-name="Germandbls" unicode="&#x1e9e;" horiz-adv-x="1349" 
d="M1233 1327l-406 -463q220 -19 345.5 -136.5t125.5 -303.5q0 -113 -44 -200t-120 -139t-171 -78.5t-203 -26.5q-142 0 -277 30v156q133 -31 269 -31q183 0 278.5 75.5t95.5 213.5q0 135 -97 208t-279 73q-57 0 -132 -7v152l400 473q-133 10 -285 10q-243 0 -345.5 -102.5
t-102.5 -312.5v-918h-172v918q0 571 620 571q264 0 500 -31v-131z" />
    <glyph glyph-name="Ygrave" unicode="&#x1ef2;" horiz-adv-x="1347" 
d="M563 1841l176 -295h-145l-252 295h221zM909 1118l213 340h195l-557 -872v-586h-172v586l-557 872h196l215 -342q139 -218 234 -377q145 242 233 379z" />
    <glyph glyph-name="ygrave" unicode="&#x1ef3;" horiz-adv-x="980" 
d="M391 1511l176 -294h-145l-252 294h221zM643 618l150 439h178l-447 -1223q-48 -132 -129 -187t-215 -55q-37 0 -98 7v137h96q141 0 193 131l37 98l-398 1092h180l150 -441q71 -208 152 -456q57 184 151 458z" />
    <glyph glyph-name="uni2009" unicode="&#x2009;" horiz-adv-x="409" 
 />
    <glyph glyph-name="uni2011" unicode="&#x2011;" horiz-adv-x="755" 
d="M674 504h-592v147h592v-147z" />
    <glyph glyph-name="endash" unicode="&#x2013;" horiz-adv-x="1083" 
d="M1001 504h-919v147h919v-147z" />
    <glyph glyph-name="emdash" unicode="&#x2014;" horiz-adv-x="1968" 
d="M1886 504h-1804v147h1804v-147z" />
    <glyph glyph-name="quoteleft" unicode="&#x2018;" horiz-adv-x="387" 
d="M295 1352l-14 -2q-74 -9 -74 -138v-32h88v-201h-203v219q0 242 182 260l21 2v-108z" />
    <glyph glyph-name="quoteright" unicode="&#x2019;" horiz-adv-x="387" 
d="M92 1257v201h203v-219q0 -242 -182 -260l-21 -2v108l14 2q74 9 74 138v32h-88z" />
    <glyph glyph-name="quotesinglbase" unicode="&#x201a;" horiz-adv-x="387" 
d="M92 0v201h203v-219q0 -243 -182 -261l-21 -2v109l14 2q74 9 74 137v33h-88z" />
    <glyph glyph-name="quotedblleft" unicode="&#x201c;" horiz-adv-x="669" 
d="M92 977v219q0 242 182 260l21 2v-108l-14 -2q-74 -9 -74 -138v-32h88v-201h-203zM578 1350l-15 -2q-74 -9 -74 -138v-32h89v-201h-203v219q0 242 182 260l21 2v-108z" />
    <glyph glyph-name="quotedblright" unicode="&#x201d;" horiz-adv-x="669" 
d="M180 1257h-88v201h203v-219q0 -242 -182 -260l-21 -2v108l14 2q74 9 74 138v32zM375 1257v201h203v-219q0 -242 -183 -260l-20 -2v108l14 2q74 9 74 138v32h-88z" />
    <glyph glyph-name="quotedblbase" unicode="&#x201e;" horiz-adv-x="669" 
d="M180 0h-88v201h203v-219q0 -243 -182 -261l-21 -2v109l14 2q74 9 74 137v33zM375 0v201h203v-219q0 -243 -183 -261l-20 -2v109l14 2q74 9 74 137v33h-88z" />
    <glyph glyph-name="dagger" unicode="&#x2020;" horiz-adv-x="1169" 
d="M674 1057h454v-156h-454v-1200h-178v1200h-455v156h455v401h178v-401z" />
    <glyph glyph-name="daggerdbl" unicode="&#x2021;" horiz-adv-x="1169" 
d="M1128 1057v-156h-454v-643h454v-156h-454v-401h-178v401h-455v156h455v643h-455v156h455v401h178v-401h454z" />
    <glyph glyph-name="bullet" unicode="&#x2022;" horiz-adv-x="624" 
d="M492 408h-359v354h359v-354z" />
    <glyph glyph-name="ellipsis" unicode="&#x2026;" horiz-adv-x="1312" 
d="M299 0h-207v205h207v-205zM770 0h-207v205h207v-205zM1221 0h-207v205h207v-205z" />
    <glyph glyph-name="perthousand" unicode="&#x2030;" horiz-adv-x="2590" 
d="M729 1034q0 -71 -10.5 -133t-36 -119.5t-64 -98.5t-98 -65t-135.5 -24q-93 0 -162 36.5t-107.5 100t-56.5 139t-18 164.5q0 210 88 326.5t256 116.5t256 -116.5t88 -326.5zM600 0h-158l779 1458h157zM199 1034q0 -311 186 -311t186 311q0 314 -186 314t-186 -314z
M1780 422q0 -71 -10.5 -133t-36 -119.5t-64 -98.5t-98 -65t-135.5 -24q-93 0 -162 36.5t-107.5 100t-56.5 139t-18 164.5q0 210 88 326t256 116t256 -116t88 -326zM2550 422q0 -71 -10.5 -133t-36 -119.5t-64 -98.5t-98 -65t-135.5 -24q-93 0 -162 36.5t-107.5 100
t-56.5 139t-18 164.5q0 210 88 326t256 116t256 -116t88 -326zM1249 422q0 -311 187 -311q186 0 186 311q0 313 -186 313q-187 0 -187 -313zM2019 422q0 -311 187 -311q186 0 186 311q0 313 -186 313q-187 0 -187 -313z" />
    <glyph glyph-name="guilsinglleft" unicode="&#x2039;" horiz-adv-x="614" 
d="M133 623l348 284v-190l-233 -189l233 -190v-191l-348 285v191z" />
    <glyph glyph-name="guilsinglright" unicode="&#x203a;" horiz-adv-x="614" 
d="M133 717v190l348 -284v-191l-348 -285v191l234 190z" />
    <glyph glyph-name="uni203D" unicode="&#x203d;" horiz-adv-x="1038" 
d="M526 1491q212 0 331.5 -100t119.5 -287q0 -104 -51.5 -187.5t-163.5 -179.5q-78 -66 -112 -108.5t-50 -97.5t-18 -150h-138l-12 635v155h178v-155l-10 -213q1 3 5.5 7.5t10.5 9t7 5.5q85 76 107 103t44 65q29 56 29 109q0 233 -271 233q-149 0 -226 -74t-87 -251h-168
q1 236 126.5 358.5t348.5 122.5zM614 0h-206v205h206v-205z" />
    <glyph glyph-name="fraction" unicode="&#x2044;" horiz-adv-x="608" 
d="M-8 0h-154l778 1458h154z" />
    <glyph glyph-name="uni2070" unicode="&#x2070;" horiz-adv-x="770" 
d="M729 1503q0 -71 -10.5 -133t-36 -119.5t-64 -98.5t-98 -65t-135.5 -24q-93 0 -162 36.5t-107.5 100t-56.5 139t-18 164.5q0 210 88 326.5t256 116.5t256 -116.5t88 -326.5zM199 1503q0 -311 186 -311t186 311q0 314 -186 314t-186 -314z" />
    <glyph glyph-name="uni2074" unicode="&#x2074;" horiz-adv-x="765" 
d="M612 1415h123v-129h-123v-205h-155v205h-426v150l424 491h157v-512zM463 1415v340l-293 -340h293z" />
    <glyph glyph-name="uni2075" unicode="&#x2075;" horiz-adv-x="720" 
d="M397 1651q127 0 205 -83t78 -212q0 -131 -90.5 -212t-227.5 -81q-131 0 -219.5 68t-101.5 184h147q14 -60 59.5 -94.5t114.5 -34.5q77 0 125 48t48 122q0 76 -48 126t-125 50q-117 0 -161 -96h-148l86 491h504v-129h-385l-37 -203q68 56 176 56z" />
    <glyph glyph-name="uni2076" unicode="&#x2076;" horiz-adv-x="747" 
d="M410 1651q129 0 213 -84.5t84 -210.5q0 -132 -89.5 -212.5t-228.5 -80.5q-91 0 -158 33t-105.5 92t-56.5 132.5t-18 162.5q0 224 87 343.5t257 119.5q122 0 202 -62t99 -168h-149q-27 107 -152 107q-185 0 -200 -271q80 99 215 99zM389 1186q77 0 124.5 46.5t47.5 119.5
q0 75 -47.5 123.5t-124.5 48.5q-74 0 -122 -49t-48 -123q0 -72 47.5 -119t122.5 -47z" />
    <glyph glyph-name="uni2077" unicode="&#x2077;" horiz-adv-x="653" 
d="M31 1798v129h592v-131q-153 -140 -223.5 -308.5t-71.5 -406.5h-162q1 204 83.5 395t221.5 322h-440z" />
    <glyph glyph-name="uni2078" unicode="&#x2078;" horiz-adv-x="741" 
d="M553 1530q147 -64 147 -217q0 -112 -88 -181t-241 -69t-241.5 69t-88.5 181q0 157 147 215q-108 68 -108 186q0 104 78 168t213 64q133 0 210.5 -64t77.5 -168q0 -121 -106 -184zM481 1800q-44 35 -110 35q-67 0 -111 -35q-43 -34 -43 -93.5t43 -94.5q43 -37 111 -37
q67 0 110 37q43 35 43 94.5t-43 93.5zM238 1225q47 -41 133 -41q88 0 135 41q46 40 45.5 105.5t-47.5 105.5q-45 39 -133 39t-133 -39q-47 -40 -46.5 -105.5t46.5 -105.5z" />
    <glyph glyph-name="uni2079" unicode="&#x2079;" horiz-adv-x="747" 
d="M358 1946q91 0 158 -33t105.5 -92t56.5 -132.5t18 -162.5q0 -223 -85.5 -343t-248.5 -120q-128 0 -210 61t-101 168h150q29 -106 161 -106q176 0 191 268q-81 -96 -215 -96q-129 0 -213 84.5t-84 210.5q0 132 89.5 212.5t227.5 80.5zM358 1485q74 0 122 49t48 123
q0 72 -47.5 119t-122.5 47q-77 0 -124.5 -46.5t-47.5 -119.5q0 -75 47.5 -123.5t124.5 -48.5z" />
    <glyph glyph-name="uni207A" unicode="&#x207a;" horiz-adv-x="606" 
d="M369 1563h196v-121h-196v-197h-133v197h-195v121h195v198h133v-198z" />
    <glyph glyph-name="uni207B" unicode="&#x207b;" horiz-adv-x="606" 
d="M565 1442h-524v121h524v-121z" />
    <glyph glyph-name="uni207D" unicode="&#x207d;" horiz-adv-x="323" 
d="M324 922h-142q-66 148 -93.5 282.5t-27.5 298.5q0 173 26 305t95 281h142q-125 -274 -125 -586q0 -294 125 -581z" />
    <glyph glyph-name="uni207E" unicode="&#x207e;" horiz-adv-x="323" 
d="M141 922h-141q125 287 125 581q0 312 -125 586h141q69 -149 95 -281t26 -305q0 -172 -26 -297.5t-95 -283.5z" />
    <glyph glyph-name="uni207F" unicode="&#x207f;" horiz-adv-x="954" 
d="M539 1477q154 0 238.5 -85.5t84.5 -240.5v-614h-162v596q0 202 -202 202q-103 0 -173.5 -75t-70.5 -205v-518h-162v921h156v-149q101 168 291 168z" />
    <glyph glyph-name="uni2080" unicode="&#x2080;" horiz-adv-x="770" 
d="M729 20q0 -72 -10.5 -134t-35.5 -119.5t-63.5 -98t-98.5 -64.5t-136 -24t-135.5 24t-98 65t-64 98.5t-36 119.5t-10.5 133q0 210 88 326.5t256 116.5t256 -116.5t88 -326.5zM199 20q0 -311 186 -311t186 311q0 314 -186 314t-186 -314z" />
    <glyph glyph-name="uni2081" unicode="&#x2081;" horiz-adv-x="444" 
d="M262 444h131v-845h-157v604h-205v110q100 0 150.5 27.5t80.5 103.5z" />
    <glyph glyph-name="uni2082" unicode="&#x2082;" horiz-adv-x="681" 
d="M184 -272h467v-129h-631l3 57q6 131 66 217.5t202 144.5l57 23q146 59 146 164q0 129 -158 129q-77 0 -117.5 -42t-40.5 -112h-147q2 128 80.5 205.5t228.5 77.5q143 0 223 -72t80 -182q0 -185 -233 -287l-72 -31q-73 -31 -108.5 -67.5t-45.5 -95.5z" />
    <glyph glyph-name="uni2083" unicode="&#x2083;" horiz-adv-x="714" 
d="M537 49q66 -23 103.5 -77.5t37.5 -129.5q0 -118 -88 -190t-236 -72q-158 0 -245 76.5t-89 216.5h150q0 -170 184 -170q80 0 126 38t46 105q0 138 -180 138h-55v112h59q160 0 160 125q0 56 -41 87.5t-113 31.5q-148 0 -157 -129h-150q7 121 88.5 186.5t218.5 65.5
q139 0 220 -61.5t81 -165.5q0 -125 -120 -187z" />
    <glyph glyph-name="uni2084" unicode="&#x2084;" horiz-adv-x="765" 
d="M612 -68h123v-129h-123v-204h-155v204h-426v150l424 491h157v-512zM463 -68v340l-293 -340h293z" />
    <glyph glyph-name="uni2085" unicode="&#x2085;" horiz-adv-x="720" 
d="M397 168q127 0 205 -83t78 -212q0 -131 -90.5 -212t-227.5 -81q-131 0 -219.5 68t-101.5 184h147q14 -60 59.5 -94.5t114.5 -34.5q77 0 125 48t48 122q0 76 -48 126t-125 50q-117 0 -161 -96h-148l86 491h504v-129h-385l-37 -202q67 55 176 55z" />
    <glyph glyph-name="uni2086" unicode="&#x2086;" horiz-adv-x="747" 
d="M410 168q129 0 213 -84.5t84 -210.5q0 -132 -89.5 -212.5t-228.5 -80.5q-91 0 -158 33t-105.5 92t-56.5 132.5t-18 162.5q0 224 87 343.5t257 119.5q122 0 202 -62t99 -168h-149q-27 107 -152 107q-185 0 -200 -270q79 98 215 98zM389 -297q77 0 124.5 46.5t47.5 119.5
q0 75 -47.5 123.5t-124.5 48.5q-74 0 -122 -49t-48 -123q0 -72 47.5 -119t122.5 -47z" />
    <glyph glyph-name="uni2087" unicode="&#x2087;" horiz-adv-x="653" 
d="M31 315v129h592v-131q-153 -141 -223.5 -308.5t-71.5 -405.5h-162q1 204 83.5 394.5t221.5 321.5h-440z" />
    <glyph glyph-name="uni2088" unicode="&#x2088;" horiz-adv-x="741" 
d="M553 47q147 -65 147 -217q0 -112 -88 -181t-241 -69t-241.5 69t-88.5 181q0 157 147 215q-108 67 -108 186q0 104 78 168t213 64q133 0 210.5 -64t77.5 -168q0 -121 -106 -184zM481 317q-44 35 -110 35q-67 0 -111 -35q-43 -34 -43 -93.5t43 -94.5q43 -37 111 -37
q67 0 110 37q43 35 43 94.5t-43 93.5zM238 -260q45 -39 133 -39q90 0 135 39q46 40 45.5 105.5t-47.5 105.5q-47 41 -133 41t-133 -41q-47 -40 -46.5 -105.5t46.5 -105.5z" />
    <glyph glyph-name="uni2089" unicode="&#x2089;" horiz-adv-x="747" 
d="M358 463q91 0 158 -33t105.5 -92t56.5 -132.5t18 -162.5q0 -223 -85.5 -343t-248.5 -120q-128 0 -210 61.5t-101 168.5h150q30 -107 161 -107q176 0 191 268q-81 -96 -215 -96q-129 0 -213 84.5t-84 210.5q0 132 89.5 212.5t227.5 80.5zM358 2q74 0 122 49t48 123
q0 72 -47.5 119t-122.5 47q-77 0 -124.5 -46.5t-47.5 -119.5q0 -75 47.5 -123.5t124.5 -48.5z" />
    <glyph glyph-name="uni208A" unicode="&#x208a;" horiz-adv-x="606" 
d="M369 80h196v-121h-196v-197h-133v197h-195v121h195v199h133v-199z" />
    <glyph glyph-name="uni208B" unicode="&#x208b;" horiz-adv-x="606" 
d="M565 -41h-524v121h524v-121z" />
    <glyph glyph-name="uni208C" unicode="&#x208c;" horiz-adv-x="606" 
d="M565 76h-524v112h524v-112zM565 -150h-524v113h524v-113z" />
    <glyph glyph-name="uni208D" unicode="&#x208d;" horiz-adv-x="323" 
d="M324 -563h-142q-66 150 -93.5 283t-27.5 298q0 173 26 305t95 281h142q-125 -274 -125 -586q0 -294 125 -581z" />
    <glyph glyph-name="uni208E" unicode="&#x208e;" horiz-adv-x="323" 
d="M141 -565h-141q125 287 125 581q0 312 -125 586h141q69 -149 95 -281t26 -305t-26 -298t-95 -283z" />
    <glyph glyph-name="uni2099" unicode="&#x2099;" horiz-adv-x="954" 
d="M539 539q154 0 238.5 -85.5t84.5 -240.5v-614h-162v596q0 202 -202 202q-103 0 -173.5 -75t-70.5 -205v-518h-162v921h156v-149q101 168 291 168z" />
    <glyph glyph-name="Euro" unicode="&#x20ac;" horiz-adv-x="1396" 
d="M0 535v139h154q-2 14 -2 59q0 12 4 94h-156v142h174q50 248 203.5 385t386.5 137q228 0 372 -124.5t195 -346.5h-182q-91 315 -387 315q-161 0 -265.5 -93.5t-142.5 -272.5h465v-142h-483q-4 -82 -4 -94q0 -47 2 -59h485v-139h-471q36 -198 143 -304t279 -106
q337 0 395 364h170q-35 -235 -184 -377.5t-381 -142.5q-241 0 -400 150.5t-202 415.5h-168z" />
    <glyph glyph-name="uni20B8" unicode="&#x20b8;" horiz-adv-x="1251" 
d="M41 1303v155h1169v-155h-1169zM537 956h-496v156h1169v-156h-495v-956h-178v956z" />
    <glyph glyph-name="uni20B9" unicode="&#x20b9;" horiz-adv-x="1280" 
d="M133 981v137h760q-41 185 -307 185h-453v155h1077v-137h-231q78 -84 96 -203h135v-137h-135q-24 -162 -154.5 -250t-334.5 -88h-193l686 -643h-243l-703 664v135h453q266 0 307 182h-760z" />
    <glyph glyph-name="uni20BA" unicode="&#x20ba;" horiz-adv-x="1144" 
d="M131 659l-131 -61v141l131 62v153l-131 -61v141l131 62v362h172v-282l404 186v-141l-404 -187v-153l404 186v-141l-404 -187v-581q279 0 439.5 162.5t160.5 441.5h180q0 -353 -212.5 -557.5t-567.5 -204.5h-172v659z" />
    <glyph glyph-name="uni20BC" unicode="&#x20bc;" horiz-adv-x="1437" 
d="M799 1087h4q267 0 394.5 -121.5t127.5 -373.5v-592h-170v606q0 169 -84.5 251.5t-265.5 82.5h-6v-733h-168v733h-15q-333 0 -333 -334v-606h-170v592q0 251 122.5 373t378.5 122h17v371h168v-371z" />
    <glyph glyph-name="uni20BF" unicode="&#x20bf;" horiz-adv-x="1294" 
d="M1243 410q0 -182 -112.5 -291t-319.5 -119v-238h-152v238h-141v-238h-151v238h-234v1458h234v238h151v-238h141v238h152v-242q179 -18 276 -119.5t97 -257.5q0 -217 -193 -319q252 -95 252 -348zM727 1303h-422v-482h422q141 0 215 65t74 185q0 108 -75 170t-214 62z
M305 156h457q151 0 230 66t79 188q0 258 -311 258h-455v-512z" />
    <glyph glyph-name="uni2105" unicode="&#x2105;" horiz-adv-x="2019" 
d="M451 594q-188 0 -299 120.5t-111 319.5q0 203 109.5 323t300.5 120q159 0 265 -89t126 -241h-160q-17 91 -78 142.5t-153 51.5q-117 0 -180.5 -82t-63.5 -225q0 -141 64 -223t180 -82q93 0 155.5 56t79.5 153h156q-19 -158 -124.5 -251t-266.5 -93zM696 0h-157l778 1458
h158zM1978 422q0 -195 -114 -317.5t-308 -122.5q-190 0 -304.5 124t-114.5 316q0 195 113 318.5t306 123.5q195 0 308.5 -122.5t113.5 -319.5zM1303 422q0 -128 65 -215.5t188 -87.5q83 0 142.5 43.5t86.5 110.5t27 149q0 129 -65.5 217t-190.5 88q-84 0 -143 -44
t-84.5 -111t-25.5 -150z" />
    <glyph glyph-name="uni2113" unicode="&#x2113;" horiz-adv-x="860" 
d="M61 399l-20 144q75 6 152 26v580q0 163 76 252.5t225 89.5q276 0 276 -344q0 -235 -107 -412t-307 -264v-221q0 -60 33.5 -95.5t89.5 -35.5q98 0 166 53l45 -137q-97 -60 -221 -60q-129 0 -202.5 73.5t-73.5 193.5v176q-65 -13 -132 -19zM356 1153v-512q250 157 250 502
q0 205 -119 205q-131 0 -131 -195z" />
    <glyph glyph-name="uni2116" unicode="&#x2116;" horiz-adv-x="2240" 
d="M1812 1479q154 0 250.5 -105t96.5 -272t-96.5 -272t-250.5 -105q-158 0 -254 104.5t-96 272.5t96 272.5t254 104.5zM1122 967v491h170v-1458h-209l-483 752q-218 346 -303 493q6 -285 6 -753v-492h-170v1458h209l483 -751q211 -335 303 -494q-6 285 -6 754zM1812 866
q91 0 144 63.5t53 172.5t-53 173t-144 64q-92 0 -146 -64t-54 -173t53.5 -172.5t146.5 -63.5z" />
    <glyph glyph-name="uni2117" unicode="&#x2117;" horiz-adv-x="1697" 
d="M82 729q0 215 100.5 390t276 274.5t389.5 99.5q215 0 391 -99t276.5 -274t100.5 -391q0 -215 -101 -389.5t-277 -273.5t-390 -99t-389.5 99t-276 273.5t-100.5 389.5zM848 96q178 0 322.5 82.5t225.5 227t81 323.5t-80.5 324t-224.5 228t-324 83q-179 0 -323 -83.5
t-224 -228.5t-80 -323q0 -133 47.5 -250.5t130 -201.5t199 -132.5t250.5 -48.5zM571 1165h355q141 0 223 -74t82 -202q0 -127 -82 -201t-223 -74h-213v-321h-142v872zM713 745h213q75 0 118 38.5t43 105.5q0 143 -161 143h-213v-287z" />
    <glyph glyph-name="trademark" unicode="&#x2122;" horiz-adv-x="1103" 
d="M217 1376h-166v82h422v-82h-166v-438h-90v438zM838 1178l112 280h103v-520h-88v172q0 123 2 166q-13 -33 -15 -35l-121 -303h-71l-137 340q2 -43 2 -168v-172h-88v520h102l117 -289q24 -65 39 -108z" />
    <glyph glyph-name="Omega" unicode="&#x2126;" horiz-adv-x="1560" 
d="M672 0h-600v154h348v4q-158 103 -245 269.5t-87 358.5q0 319 187.5 509t506.5 190t501.5 -189.5t182.5 -509.5q0 -195 -84 -360t-241 -268v-4h348v-154h-598v137q199 104 300 271t101 378q0 265 -135.5 405t-374.5 140q-243 0 -381.5 -140t-138.5 -405q0 -207 105 -376
t305 -273v-137z" />
    <glyph glyph-name="estimated" unicode="&#x212e;" horiz-adv-x="1865" 
d="M330 1276q226 215 604 215q379 0 604 -225q223 -226 223 -557h-1323q-28 0 -28 -27v-360q0 -69 32 -97q199 -196 492 -196q152 0 290.5 64t225.5 171h149q-91 -128 -263.5 -209.5t-401.5 -81.5q-137 0 -262 32t-228.5 96t-180 153.5t-119 211.5t-42.5 263q0 329 228 547z
M934 1434q-291 0 -492 -201q-32 -28 -32 -90v-361q0 -26 28 -26h985q29 0 29 26v361q0 61 -33 90q-204 201 -485 201z" />
    <glyph glyph-name="onethird" unicode="&#x2153;" horiz-adv-x="1607" 
d="M262 1458h131v-846h-157v605h-205v110q100 0 150.5 27.5t80.5 103.5zM391 0h-153l778 1458h153zM1430 451q66 -23 103.5 -77.5t37.5 -129.5q0 -118 -88 -190t-236 -72q-158 0 -245 76t-89 216h150q0 -170 184 -170q80 0 126 38.5t46 105.5q0 137 -180 137h-55v113h59
q160 0 160 125q0 55 -41 86.5t-113 31.5q-148 0 -157 -129h-150q7 121 88.5 186.5t218.5 65.5q139 0 220 -61.5t81 -165.5q0 -125 -120 -186z" />
    <glyph glyph-name="twothirds" unicode="&#x2154;" horiz-adv-x="1873" 
d="M184 741h467v-129h-631l3 58q6 131 66 217.5t202 144.5l57 23q146 59 146 164q0 129 -158 129q-77 0 -117.5 -42t-40.5 -112h-147q2 128 80.5 205.5t228.5 77.5q143 0 223 -72t80 -182q0 -185 -233 -287l-72 -31q-73 -31 -108.5 -68t-45.5 -96zM524 0l779 1458h153
l-778 -1458h-154zM1696 451q66 -23 103.5 -77.5t37.5 -129.5q0 -118 -88 -190t-236 -72q-158 0 -244.5 76t-88.5 216h149q0 -170 184 -170q80 0 126.5 38.5t46.5 105.5q0 137 -181 137h-55v113h59q160 0 160 125q0 56 -40.5 87t-112.5 31q-149 0 -158 -129h-150
q7 121 88.5 186.5t219.5 65.5q139 0 220 -61.5t81 -165.5q0 -124 -121 -186z" />
    <glyph glyph-name="uni2155" unicode="&#x2155;" horiz-adv-x="1554" 
d="M393 1458v-846h-157v605h-205v110q100 0 150.5 27.5t80.5 103.5h131zM375 0h-154l778 1458h154zM1231 569q127 0 204.5 -83t77.5 -212q0 -131 -90 -211.5t-227 -80.5q-131 0 -220 68t-102 183h148q14 -60 59.5 -94.5t114.5 -34.5q77 0 124.5 48t47.5 122
q0 76 -47.5 126.5t-124.5 50.5q-117 0 -162 -97h-147l86 492h504v-129h-385l-37 -203q67 55 176 55z" />
    <glyph glyph-name="uni2156" unicode="&#x2156;" horiz-adv-x="1798" 
d="M184 741h467v-129h-631l3 58q6 131 66 217.5t202 144.5l57 23q146 59 146 164q0 129 -158 129q-77 0 -117.5 -42t-40.5 -112h-147q2 128 80.5 205.5t228.5 77.5q143 0 223 -72t80 -182q0 -185 -233 -287l-72 -31q-73 -31 -108.5 -68t-45.5 -96zM479 0l778 1458h154
l-778 -1458h-154zM1485 569q127 0 204.5 -83t77.5 -212q0 -131 -90 -211.5t-227 -80.5q-131 0 -220 68t-102 183h148q14 -60 59.5 -94.5t114.5 -34.5q77 0 124.5 48t47.5 122q0 76 -47.5 126.5t-124.5 50.5q-117 0 -162 -97h-147l86 492h504v-129h-385l-37 -203
q67 55 176 55z" />
    <glyph glyph-name="uni2157" unicode="&#x2157;" horiz-adv-x="1755" 
d="M678 856q0 -118 -88 -190t-236 -72q-158 0 -245 76.5t-89 216.5h150q0 -170 184 -170q80 0 126 38t46 105q0 137 -180 137h-55v113h59q160 0 160 125q0 56 -41 87.5t-113 31.5q-148 0 -157 -129h-150q7 121 88.5 186.5t218.5 65.5q139 0 220 -61.5t81 -166.5
q0 -57 -32 -107t-88 -79q66 -23 103.5 -77.5t37.5 -129.5zM430 0l778 1458h154l-778 -1458h-154zM1436 569q127 0 204.5 -83t77.5 -212q0 -131 -90 -211.5t-227 -80.5q-131 0 -220 68t-102 183h148q14 -60 59.5 -94.5t114.5 -34.5q77 0 124.5 48t47.5 122q0 76 -47.5 126.5
t-124.5 50.5q-117 0 -162 -97h-147l86 492h503v-129h-385l-36 -203q67 55 176 55z" />
    <glyph glyph-name="uni2158" unicode="&#x2158;" horiz-adv-x="1789" 
d="M31 817v150l424 491h157v-512h123v-129h-123v-205h-155v205h-426zM1120 233h148q14 -60 59.5 -94.5t114.5 -34.5q77 0 124.5 48t47.5 122q0 76 -47.5 126.5t-124.5 50.5q-117 0 -162 -97h-147l86 492h503v-129h-385l-37 -203q67 55 177 55q127 0 204.5 -83t77.5 -212
q0 -131 -90 -211.5t-227 -80.5q-131 0 -220 68t-102 183zM625 0h-154l778 1458h154zM463 1286l-293 -340h293v340z" />
    <glyph glyph-name="uni2159" unicode="&#x2159;" horiz-adv-x="1564" 
d="M1206 104q77 0 124.5 46.5t47.5 119.5q0 75 -47.5 123.5t-124.5 48.5q-74 0 -122 -49t-48 -123q0 -72 47.5 -119t122.5 -47zM1227 569q129 0 213 -84.5t84 -210.5q0 -132 -89.5 -212t-228.5 -80q-73 0 -131 22t-96.5 59.5t-63.5 91t-36 114.5t-11 132q0 224 87 343.5
t257 119.5q122 0 202 -61.5t99 -167.5h-149q-26 106 -152 106q-185 0 -200 -270q79 98 215 98zM393 1458v-846h-157v605h-205v110q100 0 150.5 27.5t80.5 103.5h131zM375 0h-154l778 1458h154z" />
    <glyph glyph-name="uni215A" unicode="&#x215a;" horiz-adv-x="1769" 
d="M1411 104q77 0 124.5 46.5t47.5 119.5q0 75 -47.5 123.5t-124.5 48.5q-74 0 -122 -49t-48 -123q0 -72 47.5 -119t122.5 -47zM1432 569q129 0 213 -84.5t84 -210.5q0 -132 -89.5 -212t-228.5 -80q-73 0 -131 22t-96.5 59.5t-63.5 91t-36 114.5t-11 132q0 224 87 343.5
t257 119.5q122 0 202 -61.5t99 -167.5h-149q-27 106 -152 106q-185 0 -200 -270q79 98 215 98zM680 887q0 -131 -90.5 -212t-227.5 -81q-131 0 -219.5 68t-101.5 184h147q14 -60 59.5 -94.5t114.5 -34.5q77 0 125 48t48 122q0 76 -48 126t-125 50q-117 0 -161 -96h-148
l86 491h504v-129h-385l-37 -203q68 56 176 56q127 0 205 -83t78 -212zM580 0h-154l778 1458h154z" />
    <glyph glyph-name="oneeighth" unicode="&#x215b;" horiz-adv-x="1609" 
d="M1350 719q-44 35 -111 35t-111 -35q-43 -34 -43 -94t43 -95q42 -36 111 -36t111 36q43 35 43 95t-43 94zM1106 143q47 -41 133 -41q88 0 135 41q46 40 45.5 105.5t-47.5 105.5q-45 39 -133 39t-133 -39q-47 -40 -46.5 -105.5t46.5 -105.5zM1421 449q148 -65 148 -218
q0 -112 -88.5 -180.5t-241.5 -68.5t-241.5 68.5t-88.5 180.5q0 156 148 215q-109 68 -109 187q0 104 78 167.5t213 63.5q133 0 211 -63.5t78 -167.5q0 -120 -107 -184zM262 1458h131v-846h-157v605h-205v110q100 0 150.5 27.5t80.5 103.5zM391 0h-153l778 1458h153z" />
    <glyph glyph-name="threeeighths" unicode="&#x215c;" horiz-adv-x="1810" 
d="M678 856q0 -118 -88 -190t-236 -72q-158 0 -245 76.5t-89 216.5h150q0 -170 184 -170q80 0 126 38t46 105q0 137 -180 137h-55v113h59q160 0 160 125q0 56 -41 87.5t-113 31.5q-148 0 -157 -129h-150q7 121 88.5 186.5t218.5 65.5q139 0 220 -61.5t81 -166.5
q0 -57 -32 -107t-88 -79q66 -23 103.5 -77.5t37.5 -129.5zM438 0l779 1458h153l-778 -1458h-154zM1622 449q147 -64 147 -218q0 -112 -88 -180.5t-241 -68.5t-241.5 68.5t-88.5 180.5q0 157 147 215q-108 67 -108 187q0 104 78 167.5t213 63.5q133 0 211 -63.5t78 -167.5
q0 -120 -107 -184zM1550 719q-44 35 -110 35q-67 0 -111 -35q-43 -34 -43 -94t43 -95q42 -36 111 -36q68 0 110 36q43 35 43 95t-43 94zM1307 143q47 -41 133 -41q88 0 135 41q46 40 45.5 105.5t-47.5 105.5q-45 39 -133 39t-133 -39q-47 -40 -46.5 -105.5t46.5 -105.5z" />
    <glyph glyph-name="fiveeighths" unicode="&#x215d;" horiz-adv-x="1814" 
d="M1554 719q-44 35 -110 35q-67 0 -111 -35q-43 -34 -43 -94t43 -95q42 -36 111 -36q68 0 110 36q43 35 43 95t-43 94zM1311 143q47 -41 133 -41q88 0 135 41q46 40 45.5 105.5t-47.5 105.5q-45 39 -133 39t-133 -39q-47 -40 -46.5 -105.5t46.5 -105.5zM1626 449
q148 -65 148 -218q0 -112 -88.5 -180.5t-241.5 -68.5t-241.5 68.5t-88.5 180.5q0 156 148 215q-109 68 -109 187q0 104 78 167.5t213 63.5q133 0 211 -63.5t78 -167.5q0 -120 -107 -184zM680 887q0 -131 -90.5 -212t-227.5 -81q-131 0 -219.5 68t-101.5 184h147
q14 -60 59.5 -94.5t114.5 -34.5q77 0 125 48t48 122q0 76 -48 126t-125 50q-117 0 -161 -96h-148l86 491h504v-129h-385l-37 -203q68 56 176 56q127 0 205 -83t78 -212zM596 0h-154l779 1458h153z" />
    <glyph glyph-name="seveneighths" unicode="&#x215e;" horiz-adv-x="1579" 
d="M1319 719q-44 35 -111 35q-66 0 -110 -35q-43 -34 -43 -94t43 -95q42 -36 110 -36q69 0 111 36q43 35 43 95t-43 94zM1075 143q47 -41 133 -41q88 0 135 41q46 40 45.5 105.5t-47.5 105.5q-45 39 -133 39t-133 -39q-47 -40 -46.5 -105.5t46.5 -105.5zM1391 449
q147 -64 147 -218q0 -112 -88.5 -180.5t-241.5 -68.5t-241 68.5t-88 180.5q0 157 147 215q-108 67 -108 187q0 104 77.5 167.5t212.5 63.5q133 0 211 -63.5t78 -167.5q0 -121 -106 -184zM328 612h-162q1 204 83.5 395t221.5 322h-440v129h592v-131q-153 -140 -223.5 -308.5
t-71.5 -406.5zM360 0h-153l778 1458h154z" />
    <glyph glyph-name="arrowleft" unicode="&#x2190;" horiz-adv-x="1957" 
d="M498 809h1226v-156h-1228q91 -116 241 -315l258 -338h-211l-551 729l551 729h211l-258 -338q-4 -6 -33 -43t-86 -111.5t-120 -156.5z" />
    <glyph glyph-name="arrowup" unicode="&#x2191;" horiz-adv-x="1957" 
d="M250 940l729 551l729 -551v-207l-338 256q-113 86 -309 238v-1227h-168v1223l-643 -490v207z" />
    <glyph glyph-name="arrowright" unicode="&#x2192;" horiz-adv-x="1957" 
d="M963 1458h211l550 -729l-550 -729h-211l258 338q150 199 241 315h-1229v156h1227q-63 82 -120 156.5t-86 111.5t-33 43z" />
    <glyph glyph-name="arrowdown" unicode="&#x2193;" horiz-adv-x="1957" 
d="M1370 469l338 256v-207l-729 -551l-729 551v207l643 -489v1222h168v-1227q196 152 309 238z" />
    <glyph glyph-name="arrowboth" unicode="&#x2194;" horiz-adv-x="1957" 
d="M1194 1458h213l551 -729l-551 -729h-213l258 338q128 170 242 315h-1430q114 -145 242 -315l258 -338h-213l-551 729l551 729h213l-258 -338q-16 -20 -240 -311h1426q-224 291 -240 311z" />
    <glyph glyph-name="arrowupdn" unicode="&#x2195;" horiz-adv-x="1957" 
d="M1061 1518v-1577q136 105 309 237l338 256v-207l-729 -551l-729 551v207l643 -489v1568l-643 -489v207l729 551l729 -551v-207l-338 256q-113 86 -309 238z" />
    <glyph glyph-name="uni2196" unicode="&#x2196;" horiz-adv-x="1957" 
d="M1640 1200h-614q-334 0 -430 2l1044 -1009l-116 -127l-1041 1009q2 -96 2 -428v-577l-168 155v1131h1176z" />
    <glyph glyph-name="uni2197" unicode="&#x2197;" horiz-adv-x="1957" 
d="M317 1200l148 156h1175v-1131l-167 -155v577q0 332 2 428l-1041 -1009l-117 127l1045 1009q-96 -2 -430 -2h-615z" />
    <glyph glyph-name="uni2198" unicode="&#x2198;" horiz-adv-x="1957" 
d="M1473 803v577l167 -155v-1131h-1175l-148 156h615q334 0 430 -2l-1045 1009l117 127l1041 -1009q-2 96 -2 428z" />
    <glyph glyph-name="uni2199" unicode="&#x2199;" horiz-adv-x="1957" 
d="M1640 1231l-1044 -1010q96 2 430 2h614l-147 -155h-1176v1130l168 156v-578q0 -332 -2 -428l1041 1010z" />
    <glyph glyph-name="partialdiff" unicode="&#x2202;" horiz-adv-x="1288" 
d="M766 1491q201 0 310.5 -122.5t109.5 -340.5q0 -93 -10.5 -190t-35 -202t-61 -200.5t-92 -182t-124 -149.5t-161.5 -100t-200 -37q-185 0 -297.5 106t-112.5 283q0 117 43.5 225.5t118 190t180.5 130t225 48.5q116 0 204.5 -54.5t123.5 -147.5q25 128 25 272
q0 160 -63.5 237.5t-198.5 77.5q-93 0 -179.5 -63.5t-134.5 -173.5h-174q67 184 201.5 288.5t302.5 104.5zM506 123q105 0 193.5 64.5t136 162.5t47.5 201q0 112 -62 178t-168 66q-105 0 -194 -64t-137 -162t-48 -202q0 -110 63 -177t169 -67z" />
    <glyph glyph-name="Delta" unicode="&#x2206;" horiz-adv-x="1341" 
d="M1290 0h-1239v156l520 1302h193l526 -1302v-156zM231 156h879l-178 442q-19 46 -266 674q-166 -444 -260 -676z" />
    <glyph glyph-name="product" unicode="&#x220f;" horiz-adv-x="1423" 
d="M133 -401v1859h1157v-1859h-172v1704h-813v-1704h-172z" />
    <glyph glyph-name="summation" unicode="&#x2211;" horiz-adv-x="1177" 
d="M682 -246h444v-155h-1075v155l608 774l-608 775v155h1055v-155h-424q-234 0 -418 4l578 -738v-82l-322 -411q-67 -87 -256 -326q184 4 418 4z" />
    <glyph glyph-name="minus" unicode="&#x2212;" horiz-adv-x="1083" 
d="M1001 655h-919v148h919v-148z" />
    <glyph glyph-name="uni2215" unicode="&#x2215;" horiz-adv-x="1083" 
d="M258 0h-176l743 1458h176z" />
    <glyph glyph-name="uni2219" unicode="&#x2219;" horiz-adv-x="1079" 
d="M664 606h-248v246h248v-246z" />
    <glyph glyph-name="radical" unicode="&#x221a;" horiz-adv-x="1452" 
d="M811 219l436 1239h174l-665 -1859h-189l-311 856h-225v151h344l137 -389q93 -257 150 -430q6 20 23.5 70.5t55 158.5t70.5 203z" />
    <glyph glyph-name="infinity" unicode="&#x221e;" horiz-adv-x="1626" 
d="M1184 1122q165 0 262.5 -107t97.5 -286t-97.5 -286t-262.5 -107q-208 0 -371 239q-163 -239 -371 -239q-165 0 -262.5 107t-97.5 286t97.5 286t262.5 107q209 0 371 -241q162 241 371 241zM442 477q151 0 295 252q-144 252 -295 252q-84 0 -141 -69t-57 -183t57 -183
t141 -69zM1184 477q84 0 141 69t57 183t-57 183t-141 69q-151 0 -295 -252q144 -252 295 -252z" />
    <glyph glyph-name="integral" unicode="&#x222b;" horiz-adv-x="798" 
d="M186 -408q-43 0 -104 7v143q49 -6 94 -6q141 0 141 149v1282q0 297 295 297q52 0 105 -6v-143q-49 6 -94 6q-142 0 -142 -150v-1282q0 -297 -295 -297z" />
    <glyph glyph-name="approxequal" unicode="&#x2248;" horiz-adv-x="1083" 
d="M225 764h-143q11 117 82.5 188.5t179.5 71.5q87 0 227 -57q113 -45 168 -45q101 0 119 112h143q-11 -117 -82.5 -188.5t-179.5 -71.5q-79 0 -219 55q-121 48 -176 48q-101 0 -119 -113zM225 395h-143q11 117 82.5 188.5t179.5 71.5q87 0 227 -57q113 -45 168 -45
q101 0 119 113h143q-11 -117 -82.5 -188.5t-179.5 -71.5q-79 0 -219 55q-118 47 -176 47q-101 0 -119 -113z" />
    <glyph glyph-name="notequal" unicode="&#x2260;" horiz-adv-x="1083" 
d="M1001 979v-137h-342l-84 -226h426v-137h-477l-82 -221l-139 45l66 176h-287v137h338l84 226h-422v137h473l84 225l137 -47l-65 -178h290z" />
    <glyph glyph-name="lessequal" unicode="&#x2264;" horiz-adv-x="1083" 
d="M1001 1210v-176l-299 -119q-221 -89 -438 -163q179 -64 438 -166l299 -119v-176l-919 375v170zM1001 0h-919v147h919v-147z" />
    <glyph glyph-name="greaterequal" unicode="&#x2265;" horiz-adv-x="1083" 
d="M82 1034v176l919 -374v-170l-919 -375v176l299 119q259 102 438 166q-217 74 -438 163zM1001 0h-919v147h919v-147z" />
    <glyph glyph-name="uni2460" unicode="&#x2460;" horiz-adv-x="1957" 
d="M0 729q0 201 77.5 378t209.5 301.5t312 196.5t380 72t380 -71.5t312 -196t209.5 -301.5t77.5 -379q0 -201 -77.5 -378t-209.5 -301.5t-312 -196.5t-380 -72q-199 0 -379 72t-312 196.5t-210 302t-78 377.5zM164 729q0 -224 109 -407.5t295.5 -286.5t410.5 -103t410.5 103
t295.5 286.5t109 407.5q0 170 -63.5 318.5t-173 253.5t-259.5 165t-319 60t-319 -60t-259.5 -165t-173 -253.5t-63.5 -318.5zM956 1196h144v-932h-166v701q-68 -35 -232 -35v121q115 6 169 34.5t85 110.5z" />
    <glyph glyph-name="uni2461" unicode="&#x2461;" horiz-adv-x="1957" 
d="M0 729q0 201 77.5 378t209.5 301.5t312 196.5t380 72t380 -71.5t312 -196t209.5 -301.5t77.5 -379q0 -201 -77.5 -378t-209.5 -301.5t-312 -196.5t-380 -72q-199 0 -379 72t-312 196.5t-210 302t-78 377.5zM164 729q0 -224 109 -407.5t295.5 -286.5t410.5 -103t410.5 103
t295.5 286.5t109 407.5q0 170 -63.5 318.5t-173 253.5t-259.5 165t-319 60t-319 -60t-259.5 -165t-173 -253.5t-63.5 -318.5zM1051 664l-78 -33q-82 -36 -121 -76t-49 -104h514v-144h-694l2 64q6 146 73 242t222 157l63 25q160 65 160 180q0 141 -174 141q-84 0 -128 -46
t-44 -122h-162q2 141 88 226.5t252 85.5q156 0 244 -79t88 -202q0 -204 -256 -315z" />
    <glyph glyph-name="uni2462" unicode="&#x2462;" horiz-adv-x="1957" 
d="M0 729q0 201 77.5 378t209.5 301.5t312 196.5t380 72t380 -71.5t312 -196t209.5 -301.5t77.5 -379q0 -201 -77.5 -378t-209.5 -301.5t-312 -196.5t-380 -72q-199 0 -379 72t-312 196.5t-210 302t-78 377.5zM164 729q0 -224 109 -407.5t295.5 -286.5t410.5 -103t410.5 103
t295.5 286.5t109 407.5q0 170 -63.5 318.5t-173 253.5t-259.5 165t-319 60t-319 -60t-259.5 -165t-173 -253.5t-63.5 -318.5zM1182 762q74 -25 114.5 -85t40.5 -145q0 -130 -96.5 -208t-259.5 -78q-174 0 -270 83.5t-97 237.5h164q0 -186 203 -186q88 0 139 42.5t51 115.5
q0 149 -198 149h-62v125h66q176 0 176 137q0 60 -46 95.5t-124 35.5q-163 0 -172 -143h-166q7 134 96 206.5t242 72.5t242.5 -68.5t89.5 -181.5q0 -66 -35.5 -121t-97.5 -84z" />
    <glyph glyph-name="uni2463" unicode="&#x2463;" horiz-adv-x="1957" 
d="M0 729q0 201 77.5 378t209.5 301.5t312 196.5t380 72t380 -71.5t312 -196t209.5 -301.5t77.5 -379q0 -201 -77.5 -378t-209.5 -301.5t-312 -196.5t-380 -72q-199 0 -379 72t-312 196.5t-210 302t-78 377.5zM164 729q0 -224 109 -407.5t295.5 -286.5t410.5 -103t410.5 103
t295.5 286.5t109 407.5q0 170 -63.5 318.5t-173 253.5t-259.5 165t-319 60t-319 -60t-259.5 -165t-173 -253.5t-63.5 -318.5zM1008 1217h174v-564h135v-143h-135v-225h-172v225h-467v166zM1018 653v373l-326 -373h326z" />
    <glyph glyph-name="uni2464" unicode="&#x2464;" horiz-adv-x="1957" 
d="M0 729q0 201 77.5 378t209.5 301.5t312 196.5t380 72t380 -71.5t312 -196t209.5 -301.5t77.5 -379q0 -201 -77.5 -378t-209.5 -301.5t-312 -196.5t-380 -72q-199 0 -379 72t-312 196.5t-210 302t-78 377.5zM164 729q0 -224 109 -407.5t295.5 -286.5t410.5 -103t410.5 103
t295.5 286.5t109 407.5q0 170 -63.5 318.5t-173 253.5t-259.5 165t-319 60t-319 -60t-259.5 -165t-173 -253.5t-63.5 -318.5zM1016 891q141 0 226 -90.5t85 -233.5q0 -145 -98 -233t-250 -88q-142 0 -239.5 75t-114.5 201h161q14 -66 64.5 -103.5t128.5 -37.5
q85 0 136.5 51.5t51.5 134.5q0 85 -52 139t-136 54q-64 0 -111.5 -29.5t-68.5 -75.5h-162l96 541h553v-143h-422l-41 -224q71 62 193 62z" />
    <glyph glyph-name="uni2465" unicode="&#x2465;" horiz-adv-x="1957" 
d="M0 729q0 201 77.5 378t209.5 301.5t312 196.5t380 72t380 -71.5t312 -196t209.5 -301.5t77.5 -379q0 -201 -77.5 -378t-209.5 -301.5t-312 -196.5t-380 -72q-199 0 -379 72t-312 196.5t-210 302t-78 377.5zM164 729q0 -224 109 -407.5t295.5 -286.5t410.5 -103t410.5 103
t295.5 286.5t109 407.5q0 170 -63.5 318.5t-173 253.5t-259.5 165t-319 60t-319 -60t-259.5 -165t-173 -253.5t-63.5 -318.5zM1001 891q143 0 235.5 -90t92.5 -234q0 -146 -98 -233.5t-252 -87.5q-81 0 -144.5 24t-105.5 65.5t-69.5 100.5t-39.5 126t-12 145q0 247 95 378.5
t282 131.5q136 0 224 -67.5t108 -186.5h-164q-34 118 -168 118q-104 0 -157 -73t-64 -226q89 109 237 109zM844 432q51 -51 135 -51t136 49t52 133q0 89 -55.5 139t-144.5 50q-57 0 -101 -36t-62 -86t-8.5 -106t48.5 -92z" />
    <glyph glyph-name="uni2466" unicode="&#x2466;" horiz-adv-x="1957" 
d="M0 729q0 201 77.5 378t209.5 301.5t312 196.5t380 72t380 -71.5t312 -196t209.5 -301.5t77.5 -379q0 -201 -77.5 -378t-209.5 -301.5t-312 -196.5t-380 -72q-199 0 -379 72t-312 196.5t-210 302t-78 377.5zM164 729q0 -224 109 -407.5t295.5 -286.5t410.5 -103t410.5 103
t295.5 286.5t109 407.5q0 170 -63.5 318.5t-173 253.5t-259.5 165t-319 60t-319 -60t-259.5 -165t-173 -253.5t-63.5 -318.5zM1147 1028h-481v143h649v-145q-168 -156 -245.5 -340.5t-78.5 -445.5h-178q3 224 89.5 432t244.5 356z" />
    <glyph glyph-name="uni2467" unicode="&#x2467;" horiz-adv-x="1957" 
d="M0 729q0 201 77.5 378t209.5 301.5t312 196.5t380 72t380 -71.5t312 -196t209.5 -301.5t77.5 -379q0 -201 -77.5 -378t-209.5 -301.5t-312 -196.5t-380 -72q-199 0 -379 72t-312 196.5t-210 302t-78 377.5zM164 729q0 -224 109 -407.5t295.5 -286.5t410.5 -103t410.5 103
t295.5 286.5t109 407.5q0 170 -63.5 318.5t-173 253.5t-259.5 165t-319 60t-319 -60t-259.5 -165t-173 -253.5t-63.5 -318.5zM1180 758q161 -69 161 -238q0 -124 -96.5 -199t-265.5 -75q-168 0 -265.5 75.5t-97.5 198.5q0 168 162 238q-119 70 -119 203q0 114 86.5 185
t233.5 71t232 -71t85 -185q0 -133 -116 -203zM1102 1055q-49 37 -119 37q-73 0 -126 -38.5t-46 -101.5q0 -65 47 -104t121 -39q76 0 123 39t47 104q0 62 -47 103zM780 539q0 -82 56.5 -122t142.5 -40t142.5 40t56.5 122q0 73 -52 116t-147 43t-147 -43t-52 -116z" />
    <glyph glyph-name="uni2468" unicode="&#x2468;" horiz-adv-x="1957" 
d="M0 729q0 201 77.5 378t209.5 301.5t312 196.5t380 72t380 -71.5t312 -196t209.5 -301.5t77.5 -379q0 -201 -77.5 -378t-209.5 -301.5t-312 -196.5t-380 -72q-199 0 -379 72t-312 196.5t-210 302t-78 377.5zM164 729q0 -224 109 -407.5t295.5 -286.5t410.5 -103t410.5 103
t295.5 286.5t109 407.5q0 170 -63.5 318.5t-173 253.5t-259.5 165t-319 60t-319 -60t-259.5 -165t-173 -253.5t-63.5 -318.5zM983 1217q80 0 143.5 -24.5t105.5 -66.5t70 -101.5t40 -126.5t12 -144q0 -244 -93 -376t-274 -132q-142 0 -232 66.5t-110 185.5h162
q35 -117 180 -117q191 0 209 297q-86 -109 -235 -109q-140 0 -234 92t-94 232q0 146 98 235t252 89zM983 709q84 0 135 53.5t51 136.5q0 79 -51 130.5t-135 51.5q-85 0 -137.5 -51.5t-52.5 -130.5q0 -83 52.5 -136.5t137.5 -53.5z" />
    <glyph glyph-name="uni24EA" unicode="&#x24ea;" horiz-adv-x="1957" 
d="M1958 729q0 -201 -77.5 -378t-209.5 -301.5t-312 -196.5t-380 -72q-199 0 -379 72t-312 196.5t-210 302t-78 377.5q0 201 77.5 378t209.5 301.5t312 196.5t380 72t380 -71.5t312 -196t209.5 -301.5t77.5 -379zM164 729q0 -224 109 -407.5t295.5 -286.5t410.5 -103
t410.5 103t295.5 286.5t109 407.5q0 170 -63.5 318.5t-173 253.5t-259.5 165t-319 60t-319 -60t-259.5 -165t-173 -253.5t-63.5 -318.5zM1358 729q0 -78 -12 -146.5t-40 -131.5t-70.5 -107.5t-108 -71t-148.5 -26.5t-148.5 26.5t-108 71t-70.5 107.5t-40 131.5t-12 146.5
q0 230 97.5 359t281.5 129t281.5 -129t97.5 -359zM774 729q0 -342 205 -342t205 342q0 344 -205 344t-205 -344z" />
    <glyph glyph-name="uni24FF" unicode="&#x24ff;" horiz-adv-x="1957" 
d="M1958 729q0 -200 -77.5 -376.5t-209 -301.5t-312 -197.5t-380.5 -72.5q-199 0 -378.5 71.5t-312 195.5t-210.5 301.5t-78 379.5q0 200 77 376.5t208.5 301.5t312 197.5t381.5 72.5q199 0 378.5 -71t312 -195t210.5 -301.5t78 -380.5zM604 729q0 -77 11.5 -145t39 -130.5
t69.5 -107.5t107.5 -71.5t147.5 -26.5t147.5 26.5t107.5 71.5t69.5 107.5t39 130.5t11.5 145q0 99 -19 181.5t-60.5 152.5t-116.5 109.5t-179 39.5q-83 0 -148 -26.5t-107 -71.5t-69.5 -108t-39 -131t-11.5 -146zM1188 729q0 -346 -209 -346t-209 346q0 348 209 348
t209 -348z" />
    <glyph glyph-name="filledbox" unicode="&#x25a0;" horiz-adv-x="1957" 
d="M1909 -180h-1860v1818h1860v-1818z" />
    <glyph glyph-name="H22073" unicode="&#x25a1;" horiz-adv-x="1957" 
d="M1909 -180h-1860v1818h1860v-1818zM213 1491v-1524h1532v1524h-1532z" />
    <glyph glyph-name="lozenge" unicode="&#x25ca;" horiz-adv-x="1163" 
d="M496 1458h172l444 -729l-444 -729h-172l-445 729zM244 729l338 -565l338 565l-338 565z" />
    <glyph glyph-name="circle" unicode="&#x25cb;" horiz-adv-x="1957" 
d="M1958 729q0 -201 -77.5 -378t-209.5 -301.5t-312 -196.5t-380 -72q-199 0 -379 72t-312 196.5t-210 302t-78 377.5q0 201 77.5 378t209.5 301.5t312 196.5t380 72t380 -71.5t312 -196t209.5 -301.5t77.5 -379zM164 729q0 -224 109 -407.5t295.5 -286.5t410.5 -103
t410.5 103t295.5 286.5t109 407.5q0 170 -63.5 318.5t-173 253.5t-259.5 165t-319 60t-319 -60t-259.5 -165t-173 -253.5t-63.5 -318.5z" />
    <glyph glyph-name="H18533" unicode="&#x25cf;" horiz-adv-x="1957" 
d="M1958 729q0 -200 -77.5 -376.5t-209 -301.5t-312 -197.5t-380.5 -72.5q-199 0 -378.5 71.5t-312 195.5t-210.5 301.5t-78 379.5q0 200 77 376.5t208.5 301.5t312 197.5t381.5 72.5q199 0 378.5 -71t312 -195t210.5 -301.5t78 -380.5z" />
    <glyph glyph-name="uni2776" unicode="&#x2776;" horiz-adv-x="1957" 
d="M1958 729q0 -200 -77.5 -376.5t-209 -301.5t-312 -197.5t-380.5 -72.5q-199 0 -378.5 71.5t-312 195.5t-210.5 301.5t-78 379.5q0 200 77 376.5t208.5 301.5t312 197.5t381.5 72.5q199 0 378.5 -71t312 -195t210.5 -301.5t78 -380.5zM924 930v-666h174v932h-146
q-31 -85 -87.5 -115t-166.5 -30v-121h226z" />
    <glyph glyph-name="uni2777" unicode="&#x2777;" horiz-adv-x="1957" 
d="M1958 729q0 -200 -77.5 -376.5t-209 -301.5t-312 -197.5t-380.5 -72.5q-199 0 -378.5 71.5t-312 195.5t-210.5 301.5t-78 379.5q0 200 77 376.5t208.5 301.5t312 197.5t381.5 72.5q199 0 378.5 -71t312 -195t210.5 -301.5t78 -380.5zM637 350l-2 -59h686v135h-512
q12 123 170 188l78 33q131 56 192.5 131t61.5 180q0 121 -86.5 199t-241.5 78q-164 0 -248.5 -81.5t-89.5 -221.5h156q1 79 47.5 123.5t128.5 44.5q178 0 178 -146q0 -120 -162 -184l-63 -25q-154 -61 -220.5 -156.5t-72.5 -238.5z" />
    <glyph glyph-name="uni2778" unicode="&#x2778;" horiz-adv-x="1957" 
d="M1958 729q0 -200 -77.5 -376.5t-209 -301.5t-312 -197.5t-380.5 -72.5q-199 0 -378.5 71.5t-312 195.5t-210.5 301.5t-78 379.5q0 200 77 376.5t208.5 301.5t312 197.5t381.5 72.5q199 0 378.5 -71t312 -195t210.5 -301.5t78 -380.5zM981 248q160 0 256 77.5t96 206.5
q0 84 -44 145.5t-120 84.5q63 26 101.5 82t38.5 123q0 113 -87 179t-239 66q-150 0 -237.5 -70.5t-94.5 -199.5h154q15 143 178 143q79 0 126.5 -36.5t47.5 -98.5q0 -141 -180 -141h-62v-117h58q203 0 203 -155q0 -73 -53.5 -117.5t-141.5 -44.5q-204 0 -207 188h-156
q1 -151 96.5 -233t266.5 -82z" />
    <glyph glyph-name="uni2779" unicode="&#x2779;" horiz-adv-x="1957" 
d="M1958 729q0 -200 -77.5 -376.5t-209 -301.5t-312 -197.5t-380.5 -72.5q-199 0 -378.5 71.5t-312 195.5t-210.5 301.5t-78 379.5q0 200 77 376.5t208.5 301.5t312 197.5t381.5 72.5q199 0 378.5 -71t312 -195t210.5 -301.5t78 -380.5zM1014 514v-225h164v225h135v135h-135
v563h-168l-463 -538v-160h467zM1022 649h-336l336 387v-387z" />
    <glyph glyph-name="uni277A" unicode="&#x277a;" horiz-adv-x="1957" 
d="M1958 729q0 -200 -77.5 -376.5t-209 -301.5t-312 -197.5t-380.5 -72.5q-199 0 -378.5 71.5t-312 195.5t-210.5 301.5t-78 379.5q0 200 77 376.5t208.5 301.5t312 197.5t381.5 72.5q199 0 378.5 -71t312 -195t210.5 -301.5t78 -380.5zM981 248q147 0 245.5 87t98.5 232
q0 142 -84.5 231t-220.5 89q-130 0 -201 -68l43 238h424v135h-547l-96 -533h158q24 48 71.5 76.5t108.5 28.5q86 0 139.5 -55t53.5 -142q0 -85 -53.5 -138.5t-139.5 -53.5q-158 0 -195 143h-155q19 -123 114 -196.5t236 -73.5z" />
    <glyph glyph-name="uni277B" unicode="&#x277b;" horiz-adv-x="1957" 
d="M1958 729q0 -200 -77.5 -376.5t-209 -301.5t-312 -197.5t-380.5 -72.5q-199 0 -378.5 71.5t-312 195.5t-210.5 301.5t-78 379.5q0 200 77 376.5t208.5 301.5t312 197.5t381.5 72.5q199 0 378.5 -71t312 -195t210.5 -301.5t78 -380.5zM979 248q154 0 250 88.5t96 230.5
q0 141 -91.5 230.5t-232.5 89.5q-147 0 -239 -109v13q18 294 225 294q136 0 170 -118h156q-20 115 -107.5 180t-218.5 65q-184 0 -279.5 -128.5t-95.5 -376.5q0 -98 19.5 -178t61.5 -144.5t114.5 -100.5t171.5 -36zM979 375q-85 0 -138 52t-53 136t54.5 138.5t136.5 54.5
q85 0 140 -54t55 -139q0 -82 -54.5 -135t-140.5 -53z" />
    <glyph glyph-name="uni277C" unicode="&#x277c;" horiz-adv-x="1957" 
d="M1958 729q0 -200 -77.5 -376.5t-209 -301.5t-312 -197.5t-380.5 -72.5q-199 0 -378.5 71.5t-312 195.5t-210.5 301.5t-78 379.5q0 200 77 376.5t208.5 301.5t312 197.5t381.5 72.5q199 0 378.5 -71t312 -195t210.5 -301.5t78 -380.5zM817 244h170q1 260 78.5 444
t245.5 340v139h-641v-135h489q-160 -143 -249.5 -354.5t-92.5 -433.5z" />
    <glyph glyph-name="uni277D" unicode="&#x277d;" horiz-adv-x="1957" 
d="M1958 729q0 -200 -77.5 -376.5t-209 -301.5t-312 -197.5t-380.5 -72.5q-199 0 -378.5 71.5t-312 195.5t-210.5 301.5t-78 379.5q0 200 77 376.5t208.5 301.5t312 197.5t381.5 72.5q199 0 378.5 -71t312 -195t210.5 -301.5t78 -380.5zM621 520q0 -71 31.5 -125t84.5 -85
t114 -46.5t128 -15.5t128 15.5t114 46.5t84.5 85t31.5 125q0 168 -166 238q121 71 121 203q0 115 -85 183t-228 68t-229 -68t-86 -183q0 -63 33.5 -117.5t90.5 -85.5q-167 -67 -167 -238zM1153 952q0 -70 -51 -108.5t-123 -38.5q-78 0 -125 41t-47 107t47 104q45 39 125 39
q73 0 123.5 -36.5t50.5 -107.5zM1182 537q0 -84 -57.5 -124t-145.5 -40q-86 0 -144.5 40.5t-58.5 123.5q0 84 58 124.5t145 40.5q94 0 149 -43q54 -48 54 -122z" />
    <glyph glyph-name="uni277E" unicode="&#x277e;" horiz-adv-x="1957" 
d="M1958 729q0 -200 -77.5 -376.5t-209 -301.5t-312 -197.5t-380.5 -72.5q-199 0 -378.5 71.5t-312 195.5t-210.5 301.5t-78 379.5q0 200 77 376.5t208.5 301.5t312 197.5t381.5 72.5q199 0 378.5 -71t312 -195t210.5 -301.5t78 -380.5zM975 248q184 0 279.5 129t95.5 377
q0 97 -20 177t-62 144.5t-114.5 100.5t-170.5 36q-154 0 -250 -88.5t-96 -230.5q0 -140 92 -230t232 -90q149 0 229 99l10 12v-8q-11 -154 -65.5 -227.5t-159.5 -73.5q-136 0 -170 119h-156q20 -115 107.5 -180.5t218.5 -65.5zM983 705q-86 0 -140.5 54.5t-54.5 139.5
q0 82 54.5 134t140.5 52q85 0 138 -52t53 -134q0 -84 -54.5 -139t-136.5 -55z" />
    <glyph glyph-name="uni2E18" unicode="&#x2e18;" horiz-adv-x="1038" 
d="M424 1200h207v-205h-207v205zM819 190h168q-1 -236 -126.5 -358.5t-348.5 -122.5q-212 0 -331.5 100t-119.5 287q0 104 51.5 187.5t163.5 179.5q78 66 112 108t50.5 97.5t18.5 150.5h137l12 -635v-155h-178v155l10 213l-22 -22q-6 -6 -24.5 -22t-23 -20.5t-18 -17
t-17.5 -17t-14 -15t-14.5 -17t-12.5 -17t-14 -20.5t-12 -22q-30 -53 -30 -109q0 -233 270 -233q149 0 226 74t87 251z" />
    <glyph glyph-name="uniF8FF" unicode="&#xf8ff;" horiz-adv-x="1507" 
d="M1053 979q-97 0 -157 67t-60 179q0 110 59 177.5t156 67.5q100 0 158.5 -69t58.5 -176v-27h-359q12 -154 146 -154q98 0 125 89h75q-19 -71 -71 -112.5t-131 -41.5zM1159 489q-97 0 -157 67t-60 179q0 110 59 178t156 68q100 0 158.5 -69.5t58.5 -176.5v-26h-358
q12 -154 145 -154q98 0 125 88h76q-19 -71 -71.5 -112.5t-131.5 -41.5zM1135 -10q-78 0 -122 35.5t-44 101.5q0 130 174 145l67 7q74 6 74 65q0 39 -24 56.5t-80 17.5q-62 0 -89.5 -20.5t-31.5 -71.5h-72q9 155 193 155q176 0 176 -137v-221q0 -83 12 -123h-74q-7 51 -8 61
q-50 -71 -151 -71zM414 989v647h71v-243q53 77 144 77q79 0 122.5 -42.5t43.5 -120.5v-318h-72v311q0 105 -109 105q-53 0 -91 -40.5t-38 -109.5v-266h-71zM748 -12q-99 0 -158.5 66.5t-59.5 178.5t59.5 179t158.5 67q82 0 135.5 -46t64.5 -124h-76q-7 50 -41 77.5t-83 27.5
q-64 0 -103 -47.5t-39 -133.5q0 -85 39.5 -132.5t102.5 -47.5q48 0 82 28.5t44 78.5h76q-12 -79 -67 -125.5t-135 -46.5zM707 500l-185 469h80l78 -209q25 -64 65 -185q20 61 68 187l76 207h80l-187 -469h-75zM209 403h-76v64h76v133h74v-133h96v-64h-96v-305q0 -39 53 -39
h43v-61q-14 -2 -51 -2q-119 0 -119 96v311zM1374 989h-71v647h71v-647zM1044 129q0 -78 95 -78q60 0 102.5 36t42.5 99v54q-23 -16 -61 -19l-68 -8q-111 -12 -111 -84zM911 1264h279q-6 63 -42.5 101t-96.5 38q-122 0 -140 -139zM1018 774h278q-6 63 -42.5 101t-96.5 38
q-121 0 -139 -139zM492 0h-72v469h72v-469zM416 541v90h78v-90h-78z" />
    <glyph glyph-name="uniFEFF" unicode="&#xfeff;" 
 />
    <glyph glyph-name="null" 
 />
    <glyph glyph-name="Adieresis.ss01" horiz-adv-x="1425" 
d="M604 1569q-33 -33 -78 -33q-39 0 -77 33q-32 32 -32 77.5t32 77.5q33 33 77 33q49 0 78 -33q32 -32 32 -77.5t-32 -77.5zM965 1569q-33 -33 -78 -33q-40 0 -78 33q-32 32 -32 77.5t32 77.5q33 33 78 33q49 0 78 -33q32 -32 32 -77.5t-32 -77.5zM1395 0h-183l-170 424
h-663l-168 -424h-180l581 1458h193zM446 596l-6 -16h541l-8 18q-19 46 -266 674q-136 -361 -261 -676z" />
    <glyph glyph-name="Cdotaccent.ss01" horiz-adv-x="1435" 
d="M823 1602q-33 -33 -78 -33q-39 0 -77 33q-32 32 -32 77.5t32 77.5q33 33 77 33q49 0 78 -33q32 -32 32 -77.5t-32 -77.5zM745 -33q-130 0 -239.5 39.5t-188.5 109.5t-135 166t-83 209t-27 238t27 238t83 209t135 166t188.5 109.5t239.5 39.5q236 0 402 -128.5t219 -373.5
h-174q-46 174 -162.5 259t-284.5 85q-102 0 -185.5 -33t-139.5 -89.5t-94.5 -134t-56 -164.5t-17.5 -183q0 -120 29 -226t86.5 -192t154.5 -136t223 -50q168 0 299 104q131 101 158 301h172q-27 -272 -207 -415q-183 -148 -422 -148z" />
    <glyph glyph-name="Edieresis.ss01" horiz-adv-x="1198" 
d="M539 1569q-33 -33 -78 -33q-40 0 -78 33q-32 32 -32 77.5t32 77.5q33 33 78 33q49 0 78 -33q32 -32 32 -77.5t-32 -77.5zM899 1569q-33 -33 -78 -33q-40 0 -78 33q-32 32 -32 77.5t32 77.5q33 33 78 33q49 0 78 -33q32 -32 32 -77.5t-32 -77.5zM1147 1458v-155h-842v-465
h760v-156h-760v-526h834v-156h-1006v1458h1014z" />
    <glyph glyph-name="Edotaccent.ss01" horiz-adv-x="1198" 
d="M719 1569q-33 -33 -78 -33q-40 0 -78 33q-32 32 -32 77.5t32 77.5q33 33 78 33q49 0 78 -33q32 -32 32 -77.5t-32 -77.5zM1147 1458v-155h-842v-465h760v-156h-760v-526h834v-156h-1006v1458h1014z" />
    <glyph glyph-name="uni0122.ss01" horiz-adv-x="1529" 
d="M797 594v156h620v-750h-141l-37 197q-163 -230 -477 -230q-162 0 -294 59.5t-218 163.5t-132 242t-46 297q0 162 45.5 300t131 241.5t218 162t297.5 58.5q250 0 424 -134t213 -376h-178q-19 111 -87 192t-164 120.5t-208 39.5q-102 0 -187 -32t-144.5 -88t-100.5 -132.5
t-60.5 -165t-19.5 -186.5t19.5 -186.5t60.5 -165t100.5 -132.5t144.5 -88t187 -32q101 0 192 34.5t158.5 95t107.5 149t40 190.5h-465zM778 -106q59 0 90 -41.5t31 -112.5v-6q0 -218 -184 -230l-29 -2v92l23 3q78 6 84 92h-11q-51 0 -81.5 27t-30.5 77q0 44 30.5 72.5
t77.5 28.5z" />
    <glyph glyph-name="Gdotaccent.ss01" horiz-adv-x="1529" 
d="M842 1602q-33 -33 -78 -33q-40 0 -78 33q-32 32 -32 77.5t32 77.5q33 33 78 33q49 0 78 -33q32 -32 32 -77.5t-32 -77.5zM797 594v156h620v-750h-141l-37 197q-163 -230 -477 -230q-162 0 -294 59.5t-218 163.5t-132 242t-46 297q0 162 45.5 300t131 241.5t218 162
t297.5 58.5q250 0 424 -134t213 -376h-178q-19 111 -87 192t-164 120.5t-208 39.5q-102 0 -187 -32t-144.5 -88t-100.5 -132.5t-60.5 -165t-19.5 -186.5t19.5 -186.5t60.5 -165t100.5 -132.5t144.5 -88t187 -32q101 0 192 34.5t158.5 95t107.5 149t40 190.5h-465z" />
    <glyph glyph-name="Idieresis.ss01" horiz-adv-x="438" 
d="M137 1569q-33 -33 -78 -33q-39 0 -77 33q-32 32 -32 77.5t32 77.5q33 33 77 33q49 0 78 -33q32 -32 32 -77.5t-32 -77.5zM457 1569q-33 -33 -78 -33q-40 0 -78 33q-32 32 -32 77.5t32 77.5q33 33 78 33q49 0 78 -33q32 -32 32 -77.5t-32 -77.5zM305 0h-172v1458h172
v-1458z" />
    <glyph glyph-name="Idotaccent.ss01" horiz-adv-x="438" 
d="M297 1569q-33 -33 -78 -33q-40 0 -78 33q-32 32 -32 77.5t32 77.5q33 33 78 33q49 0 78 -33q32 -32 32 -77.5t-32 -77.5zM305 0h-172v1458h172v-1458z" />
    <glyph glyph-name="uni0136.ss01" horiz-adv-x="1359" 
d="M133 0v1458h172v-766l797 766h227l-622 -594l622 -864h-211l-536 750l-277 -265v-485h-172zM584 -178q0 44 30.5 72t77.5 28q59 0 90 -41t31 -112v-7q0 -217 -184 -229l-29 -2v92l23 2q78 6 84 92h-11q-51 0 -81.5 27.5t-30.5 77.5z" />
    <glyph glyph-name="uni013B.ss01" horiz-adv-x="1079" 
d="M305 1458v-1302h733v-156h-905v1458h172zM582 -78q59 0 89.5 -41t30.5 -112v-7q0 -217 -184 -229l-29 -2v92l23 2q78 6 84 92h-10q-51 0 -82 27.5t-31 77.5q0 44 31 72t78 28z" />
    <glyph glyph-name="Ldot.ss01" horiz-adv-x="1079" 
d="M305 1458v-1302h733v-156h-905v1458h172zM764 637q-54 0 -88.5 33.5t-34.5 87.5q0 50 34.5 82t88.5 32q50 0 83.5 -32.5t33.5 -81.5q0 -51 -34 -86t-83 -35z" />
    <glyph glyph-name="uni0145.ss01" horiz-adv-x="1425" 
d="M1122 967v491h170v-1458h-209l-483 752q-218 346 -303 493q6 -285 6 -753v-492h-170v1458h209l483 -751q211 -335 303 -494q-6 285 -6 754zM709 -78q59 0 89.5 -41t30.5 -112v-7q0 -217 -184 -229l-29 -2v92l23 2q78 6 84 92h-10q-51 0 -82 27.5t-31 77.5q0 44 31 72
t78 28z" />
    <glyph glyph-name="Odieresis.ss01" horiz-adv-x="1540" 
d="M668 1602q-33 -33 -78 -33q-40 0 -78 33q-32 32 -32 77.5t32 77.5q33 33 78 33q49 0 78 -33q32 -32 32 -77.5t-32 -77.5zM1028 1602q-33 -33 -78 -33q-40 0 -78 33q-32 32 -32 77.5t32 77.5q33 33 78 33q49 0 78 -33q32 -32 32 -77.5t-32 -77.5zM1468 729
q0 -161 -46.5 -299.5t-133.5 -241.5t-220.5 -162t-297.5 -59q-163 0 -296.5 59t-220.5 162.5t-134 242t-47 298.5q0 161 46.5 299.5t133.5 241.5t220.5 162t297.5 59q165 0 298.5 -58.5t220 -161.5t133 -241.5t46.5 -300.5zM252 729q0 -98 20 -187t61.5 -165.5t102 -132
t146 -87.5t188.5 -32t188.5 32t146 87.5t102 132t61.5 165.5t20 187t-20 187t-61.5 165.5t-102 132t-146 87.5t-188.5 32t-188.5 -32t-146 -87.5t-102 -132t-61.5 -165.5t-20 -187z" />
    <glyph glyph-name="uni0156.ss01" horiz-adv-x="1323" 
d="M1204 422l15 -236q9 -122 53 -186h-178q-44 65 -47 195l-7 155q-6 148 -66 210.5t-194 62.5h-475v-623h-172v1458h617q225 0 359 -104.5t134 -292.5q0 -134 -64 -225t-175 -127q185 -58 200 -287zM305 778h465q136 0 215.5 71t79.5 202q0 125 -82 188.5t-233 63.5h-445
v-525zM698 -78q59 0 90 -41t31 -112v-7q0 -217 -184 -229l-29 -2v92l23 2q78 6 84 92h-11q-51 0 -81.5 27.5t-30.5 77.5q0 44 30.5 72t77.5 28z" />
    <glyph glyph-name="uni0218.ss01" horiz-adv-x="1265" 
d="M631 840l129 -29q242 -53 348 -152.5t106 -263.5q0 -198 -145 -313t-401 -115q-187 0 -321 54.5t-209.5 171t-76.5 288.5h179q6 -358 428 -358q178 0 273 69.5t95 202.5q0 104 -79 162.5t-275 101.5l-129 29q-222 50 -332 147.5t-110 274.5q0 173 135 277t362 104
q125 0 223 -25t161.5 -67t105.5 -101.5t60 -124t20 -139.5h-177q-12 157 -101.5 229t-291.5 72q-153 0 -236 -59.5t-83 -165.5q0 -40 12 -74t28 -57.5t47 -44.5t54.5 -33.5t66 -25.5t66 -19t68.5 -16zM666 -111q59 0 89.5 -41t30.5 -112v-6q0 -218 -184 -230l-29 -2v92l23 2
q78 6 84 93h-10q-51 0 -82 27t-31 77q0 44 31 72t78 28z" />
    <glyph glyph-name="uni021A.ss01" horiz-adv-x="1251" 
d="M41 1303v155h1169v-155h-495v-1303h-178v1303h-496zM623 -78q59 0 89.5 -41t30.5 -112v-7q0 -217 -184 -229l-29 -2v92l23 2q78 6 84 92h-10q-51 0 -82 27.5t-31 77.5q0 44 31 72t78 28z" />
    <glyph glyph-name="Udieresis.ss01" horiz-adv-x="1372" 
d="M584 1569q-33 -33 -78 -33q-40 0 -78 33q-32 32 -32 77.5t32 77.5q33 33 78 33q49 0 78 -33q32 -32 32 -77.5t-32 -77.5zM944 1569q-33 -33 -78 -33q-40 0 -78 33q-32 32 -32 77.5t32 77.5q33 33 78 33q49 0 78 -33q32 -32 32 -77.5t-32 -77.5zM1260 541
q0 -275 -150 -423.5t-424 -148.5t-423.5 148.5t-149.5 423.5v917h172v-917q0 -416 401 -416t401 416v917h173v-917z" />
    <glyph glyph-name="Wdieresis.ss01" horiz-adv-x="1957" 
d="M877 1569q-33 -33 -78 -33q-40 0 -78 33q-32 32 -32 77.5t32 77.5q33 33 78 33q49 0 78 -33q32 -32 32 -77.5t-32 -77.5zM1237 1569q-33 -33 -78 -33q-40 0 -78 33q-32 32 -32 77.5t32 77.5q33 33 78 33q49 0 78 -33q32 -32 32 -77.5t-32 -77.5zM1550 739l199 719h178
l-414 -1458h-192l-209 743q-85 304 -133 494q-48 -190 -133 -494l-209 -743h-193l-413 1458h178l199 -719q96 -343 137 -522q72 283 139 526l199 715h192l199 -715q67 -243 139 -526q41 179 137 522z" />
    <glyph glyph-name="Ydieresis.ss01" horiz-adv-x="1347" 
d="M571 1569q-33 -33 -77 -33q-40 0 -78 33q-32 32 -32 77.5t32 77.5q33 33 78 33q48 0 77 -33q32 -32 32 -77.5t-32 -77.5zM932 1569q-33 -33 -78 -33q-40 0 -78 33q-32 32 -32 77.5t32 77.5q33 33 78 33q49 0 78 -33q32 -32 32 -77.5t-32 -77.5zM909 1118l213 340h195
l-557 -872v-586h-172v586l-557 872h196l215 -342q139 -218 234 -377q145 242 233 379z" />
    <glyph glyph-name="Zdotaccent.ss01" horiz-adv-x="1228" 
d="M702 1569q-33 -33 -77 -33q-40 0 -78 33q-32 32 -32 77.5t32 77.5q33 33 78 33q48 0 77 -33q32 -32 32 -77.5t-32 -77.5zM678 156h500v-156h-1127v156l643 825q67 87 256 326q-184 -4 -418 -4h-444v155h1075v-155l-647 -826q-46 -60 -256 -325q184 4 418 4z" />
    <glyph glyph-name="G.ss03" horiz-adv-x="1525" 
d="M772 618v156h682v-45q0 -166 -43.5 -304t-127.5 -241t-216.5 -160t-302.5 -57q-162 0 -294.5 59.5t-218.5 163.5t-132.5 242t-46.5 297q0 162 46.5 300.5t133.5 241.5t221 161.5t299 58.5q168 0 305 -55.5t231.5 -172.5t121.5 -282h-179q-29 161 -159.5 256.5
t-319.5 95.5q-238 0 -379 -158t-141 -446q0 -98 19.5 -186.5t60.5 -165t100.5 -132.5t144.5 -88t187 -32q220 0 352.5 127.5t157.5 365.5h-502z" />
    <glyph glyph-name="uni01F4.ss03" horiz-adv-x="1525" 
d="M874 1874h222l-252 -295h-146zM772 618v156h682v-45q0 -166 -43.5 -304t-127.5 -241t-216.5 -160t-302.5 -57q-162 0 -294.5 59.5t-218.5 163.5t-132.5 242t-46.5 297q0 162 46.5 300.5t133.5 241.5t221 161.5t299 58.5q168 0 305 -55.5t231.5 -172.5t121.5 -282h-179
q-29 161 -159.5 256.5t-319.5 95.5q-238 0 -379 -158t-141 -446q0 -98 19.5 -186.5t60.5 -165t100.5 -132.5t144.5 -88t187 -32q220 0 352.5 127.5t157.5 365.5h-502z" />
    <glyph glyph-name="Gbreve.ss03" horiz-adv-x="1525" 
d="M772 1569q-136 0 -222.5 83t-92.5 222h141q6 -83 52.5 -127.5t121.5 -44.5t121.5 44.5t52.5 127.5h141q-10 -139 -95.5 -222t-219.5 -83zM772 618v156h682v-45q0 -166 -43.5 -304t-127.5 -241t-216.5 -160t-302.5 -57q-162 0 -294.5 59.5t-218.5 163.5t-132.5 242
t-46.5 297q0 162 46.5 300.5t133.5 241.5t221 161.5t299 58.5q168 0 305 -55.5t231.5 -172.5t121.5 -282h-179q-29 161 -159.5 256.5t-319.5 95.5q-238 0 -379 -158t-141 -446q0 -98 19.5 -186.5t60.5 -165t100.5 -132.5t144.5 -88t187 -32q220 0 352.5 127.5t157.5 365.5
h-502z" />
    <glyph glyph-name="Gcircumflex.ss03" horiz-adv-x="1525" 
d="M965 1579l-193 199l-192 -199h-164l233 295h246l233 -295h-163zM772 618v156h682v-45q0 -166 -43.5 -304t-127.5 -241t-216.5 -160t-302.5 -57q-162 0 -294.5 59.5t-218.5 163.5t-132.5 242t-46.5 297q0 162 46.5 300.5t133.5 241.5t221 161.5t299 58.5q168 0 305 -55.5
t231.5 -172.5t121.5 -282h-179q-29 161 -159.5 256.5t-319.5 95.5q-238 0 -379 -158t-141 -446q0 -98 19.5 -186.5t60.5 -165t100.5 -132.5t144.5 -88t187 -32q220 0 352.5 127.5t157.5 365.5h-502z" />
    <glyph glyph-name="uni0122.ss03" horiz-adv-x="1525" 
d="M772 618v156h682v-45q0 -166 -43.5 -304t-127.5 -241t-216.5 -160t-302.5 -57q-162 0 -294.5 59.5t-218.5 163.5t-132.5 242t-46.5 297q0 162 46.5 300.5t133.5 241.5t221 161.5t299 58.5q168 0 305 -55.5t231.5 -172.5t121.5 -282h-179q-29 161 -159.5 256.5
t-319.5 95.5q-238 0 -379 -158t-141 -446q0 -98 19.5 -186.5t60.5 -165t100.5 -132.5t144.5 -88t187 -32q220 0 352.5 127.5t157.5 365.5h-502zM770 -293h-104v172h200v-211q0 -80 -40.5 -120t-131.5 -46l-28 -2v88l22 2q82 6 82 72v45z" />
    <glyph glyph-name="Gdotaccent.ss03" horiz-adv-x="1525" 
d="M682 1780h176v-201h-176v201zM772 618v156h682v-45q0 -166 -43.5 -304t-127.5 -241t-216.5 -160t-302.5 -57q-162 0 -294.5 59.5t-218.5 163.5t-132.5 242t-46.5 297q0 162 46.5 300.5t133.5 241.5t221 161.5t299 58.5q168 0 305 -55.5t231.5 -172.5t121.5 -282h-179
q-29 161 -159.5 256.5t-319.5 95.5q-238 0 -379 -158t-141 -446q0 -98 19.5 -186.5t60.5 -165t100.5 -132.5t144.5 -88t187 -32q220 0 352.5 127.5t157.5 365.5h-502z" />
    <glyph glyph-name="uni0122.ss01.ss03" horiz-adv-x="1525" 
d="M772 618v156h682v-45q0 -166 -43.5 -304t-127.5 -241t-216.5 -160t-302.5 -57q-162 0 -294.5 59.5t-218.5 163.5t-132.5 242t-46.5 297q0 162 46.5 300.5t133.5 241.5t221 161.5t299 58.5q168 0 305 -55.5t231.5 -172.5t121.5 -282h-179q-29 161 -159.5 256.5
t-319.5 95.5q-238 0 -379 -158t-141 -446q0 -98 19.5 -186.5t60.5 -165t100.5 -132.5t144.5 -88t187 -32q220 0 352.5 127.5t157.5 365.5h-502zM760 -111q59 0 90 -41t31 -112v-6q0 -218 -185 -230l-28 -2v92l22 2q78 6 84 93h-10q-51 0 -82 27t-31 77q0 44 31 72t78 28z
" />
    <glyph glyph-name="Gdotaccent.ss01.ss03" horiz-adv-x="1525" 
d="M850 1602q-33 -33 -78 -33q-40 0 -78 33q-32 32 -32 77.5t32 77.5q33 33 78 33q49 0 78 -33q32 -32 32 -77.5t-32 -77.5zM772 618v156h682v-45q0 -166 -43.5 -304t-127.5 -241t-216.5 -160t-302.5 -57q-162 0 -294.5 59.5t-218.5 163.5t-132.5 242t-46.5 297
q0 162 46.5 300.5t133.5 241.5t221 161.5t299 58.5q168 0 305 -55.5t231.5 -172.5t121.5 -282h-179q-29 161 -159.5 256.5t-319.5 95.5q-238 0 -379 -158t-141 -446q0 -98 19.5 -186.5t60.5 -165t100.5 -132.5t144.5 -88t187 -32q220 0 352.5 127.5t157.5 365.5h-502z" />
    <glyph glyph-name="R.ss04" horiz-adv-x="1294" 
d="M1264 0h-205l-424 590h-330v-590h-172v1458h606q215 0 349.5 -112t134.5 -322q0 -171 -102 -287.5t-287 -140.5zM739 1303h-434v-558h434q147 0 226 74.5t79 204.5t-79 204.5t-226 74.5z" />
    <glyph glyph-name="Racute.ss04" horiz-adv-x="1294" 
d="M770 1841h221l-252 -295h-145zM1264 0h-205l-424 590h-330v-590h-172v1458h606q215 0 349.5 -112t134.5 -322q0 -171 -102 -287.5t-287 -140.5zM739 1303h-434v-558h434q147 0 226 74.5t79 204.5t-79 204.5t-226 74.5z" />
    <glyph glyph-name="Rcaron.ss04" horiz-adv-x="1294" 
d="M1024 1841l-233 -295h-246l-234 295h164l193 -199l192 199h164zM1264 0h-205l-424 590h-330v-590h-172v1458h606q215 0 349.5 -112t134.5 -322q0 -171 -102 -287.5t-287 -140.5zM739 1303h-434v-558h434q147 0 226 74.5t79 204.5t-79 204.5t-226 74.5z" />
    <glyph glyph-name="uni0156.ss04" horiz-adv-x="1294" 
d="M834 596l430 -596h-205l-424 590h-330v-590h-172v1458h606q215 0 349.5 -112t134.5 -322q0 -171 -102 -287.5t-287 -140.5zM739 1303h-434v-558h434q147 0 226 74.5t79 204.5t-79 204.5t-226 74.5zM684 -260h-104v172h200v-211q0 -80 -40.5 -120t-131.5 -46l-28 -2v88
l22 2q82 6 82 72v45z" />
    <glyph glyph-name="uni0156.ss01.ss04" horiz-adv-x="1294" 
d="M834 596l430 -596h-205l-424 590h-330v-590h-172v1458h606q215 0 349.5 -112t134.5 -322q0 -171 -102 -287.5t-287 -140.5zM739 1303h-434v-558h434q147 0 226 74.5t79 204.5t-79 204.5t-226 74.5zM674 -78q59 0 90 -41t31 -112v-7q0 -217 -185 -229l-28 -2v92l22 2
q78 6 84 92h-10q-51 0 -82 27.5t-31 77.5q0 44 31 72t78 28z" />
    <glyph glyph-name="i.loclTRK" horiz-adv-x="409" 
d="M291 1217h-174v200h174v-200zM287 0h-164v1057h164v-1057z" />
    <glyph glyph-name="adieresis.ss01" horiz-adv-x="1067" 
d="M430 1239q-33 -33 -78 -33q-40 0 -78 33q-32 32 -32 78t32 78t78 32q50 0 78 -32q32 -32 32 -78t-32 -78zM791 1239q-33 -33 -78 -33q-40 0 -78 33q-32 32 -32 78t32 78t78 32q50 0 78 -32q32 -32 32 -78t-32 -78zM987 133h60v-133q-40 -6 -91 -6q-166 0 -178 151
q-111 -170 -344 -170q-174 0 -273.5 81.5t-99.5 228.5q0 286 392 327l151 17q166 18 166 145q0 88 -54.5 127t-183.5 39q-138 0 -198.5 -46.5t-67.5 -162.5h-164q21 350 430 350q398 0 398 -307v-590q0 -51 57 -51zM442 115q139 0 233.5 83t94.5 220v125q-44 -36 -139 -45
l-154 -19q-134 -17 -190 -62t-56 -128t53.5 -128.5t157.5 -45.5z" />
    <glyph glyph-name="cdotaccent.ss01" horiz-adv-x="1067" 
d="M639 1239q-33 -33 -78 -33q-40 0 -78 33q-32 32 -32 78t32 78t78 32q50 0 78 -32q32 -32 32 -78t-32 -78zM561 -25q-117 0 -211.5 44t-154.5 120t-91.5 175.5t-31.5 213.5q0 115 31 214.5t90.5 175.5t154 119.5t213.5 43.5q188 0 309 -102.5t146 -280.5h-170
q-20 112 -98 174t-187 62q-144 0 -230.5 -106t-86.5 -300q0 -193 87 -299t230 -106q109 0 188 62.5t99 176.5h168q-26 -179 -150 -283t-305 -104z" />
    <glyph glyph-name="edieresis.ss01" horiz-adv-x="1116" 
d="M457 1239q-33 -33 -78 -33q-40 0 -78 33q-32 32 -32 78t32 78t78 32q50 0 78 -32q32 -32 32 -78t-32 -78zM817 1239q-33 -33 -78 -33q-39 0 -77 33q-32 32 -32 78t32 78t77 32q50 0 78 -32q32 -32 32 -78t-32 -78zM1044 528v-57h-802q12 -171 96 -258.5t229 -87.5
q219 0 281 197h170q-43 -160 -160 -253.5t-295 -93.5q-157 0 -270 76t-167 199t-54 278q0 114 31.5 213t91 175.5t153.5 120.5t211 44q116 0 209.5 -44t153 -120.5t91 -176t31.5 -212.5zM559 932q-129 0 -211 -81t-102 -233h622q-12 140 -94.5 227t-214.5 87z" />
    <glyph glyph-name="edotaccent.ss01" horiz-adv-x="1116" 
d="M637 1239q-33 -33 -78 -33q-40 0 -78 33q-32 32 -32 78t32 78t78 32q50 0 78 -32q32 -32 32 -78t-32 -78zM1044 528v-57h-802q12 -171 96 -258.5t229 -87.5q219 0 281 197h170q-43 -160 -160 -253.5t-295 -93.5q-157 0 -270 76t-167 199t-54 278q0 114 31.5 213t91 175.5
t153.5 120.5t211 44q116 0 209.5 -44t153 -120.5t91 -176t31.5 -212.5zM559 932q-129 0 -211 -81t-102 -233h622q-12 140 -94.5 227t-214.5 87z" />
    <glyph glyph-name="uni0123.ss01" horiz-adv-x="1204" 
d="M590 1206q-59 0 -90 41.5t-31 112.5v6q0 217 184 229l29 2v-92l-23 -2q-78 -6 -84 -92h11q51 0 81.5 -27t30.5 -77q0 -44 -30.5 -72.5t-77.5 -28.5zM926 903v154h155v-1016q0 -218 -127 -342.5t-364 -124.5q-197 0 -315.5 90.5t-135.5 249.5h164q30 -201 287 -201
q328 0 328 328v102q-125 -168 -355 -168q-157 0 -270 76t-167 199t-54 278q0 116 31.5 215.5t91.5 175t154.5 119t213.5 43.5q237 0 363 -178zM584 123q156 0 248 108t92 297t-92 297.5t-248 108.5q-154 0 -247 -111t-93 -295t93 -294.5t247 -110.5z" />
    <glyph glyph-name="gdotaccent.ss01" horiz-adv-x="1204" 
d="M662 1239q-33 -33 -78 -33q-40 0 -78 33q-32 32 -32 78t32 78t78 32q50 0 78 -32q32 -32 32 -78t-32 -78zM926 903v154h155v-1016q0 -218 -127 -342.5t-364 -124.5q-197 0 -315.5 90.5t-135.5 249.5h164q30 -201 287 -201q328 0 328 328v102q-125 -168 -355 -168
q-157 0 -270 76t-167 199t-54 278q0 116 31.5 215.5t91.5 175t154.5 119t213.5 43.5q237 0 363 -178zM584 123q156 0 248 108t92 297t-92 297.5t-248 108.5q-154 0 -247 -111t-93 -295t93 -294.5t247 -110.5z" />
    <glyph glyph-name="i.ss01" horiz-adv-x="409" 
d="M283 1239q-33 -33 -78 -33q-40 0 -78 33q-32 32 -32 78t32 78t78 32q50 0 78 -32q32 -32 32 -78t-32 -78zM287 0h-164v1057h164v-1057z" />
    <glyph glyph-name="idieresis.ss01" horiz-adv-x="409" 
d="M123 1239q-33 -33 -78 -33t-78 33q-32 32 -32 78t32 78q28 32 78 32t78 -32q32 -32 32 -78t-32 -78zM442 1239q-33 -33 -77 -33q-40 0 -78 33q-32 32 -32 78t32 78t78 32q49 0 77 -32q32 -32 32 -78t-32 -78zM287 0h-164v1057h164v-1057z" />
    <glyph glyph-name="i.loclTRK.ss01" horiz-adv-x="409" 
d="M283 1239q-33 -33 -78 -33q-40 0 -78 33q-32 32 -32 78t32 78t78 32q50 0 78 -32q32 -32 32 -78t-32 -78zM287 0h-164v1057h164v-1057z" />
    <glyph glyph-name="ij.ss01" horiz-adv-x="819" 
d="M283 1239q-33 -33 -78 -33q-40 0 -78 33q-32 32 -32 78t32 78t78 32q50 0 78 -32q32 -32 32 -78t-32 -78zM692 1239q-33 -33 -78 -33q-39 0 -77 33q-32 32 -32 78t32 78t77 32q50 0 78 -32q32 -32 32 -78t-32 -78zM287 0h-164v1057h164v-1057zM453 -408q-65 0 -88 2v142
h67q100 0 100 90v1231h164v-1245q0 -220 -243 -220z" />
    <glyph glyph-name="iogonek.ss01" horiz-adv-x="409" 
d="M31 -242q0 67 38.5 137t94.5 105h-41v1057h164v-1057q-127 -89 -127 -201q0 -94 86 -94q42 0 71 16v-127q-39 -20 -96 -20q-85 0 -137.5 47.5t-52.5 136.5zM127 1239q-32 32 -32 78t32 78t78 32q50 0 78 -32q32 -32 32 -78t-32 -78q-33 -33 -78 -33q-40 0 -78 33z" />
    <glyph glyph-name="j.ss01" horiz-adv-x="409" 
d="M283 1239q-33 -33 -78 -33q-40 0 -78 33q-32 32 -32 78t32 78t78 32q50 0 78 -32q32 -32 32 -78t-32 -78zM43 -408q-65 0 -88 2v142h68q100 0 100 90v1231h164v-1245q0 -220 -244 -220z" />
    <glyph glyph-name="uni0137.ss01" horiz-adv-x="1032" 
d="M993 1057l-401 -381l430 -676h-191l-356 567l-188 -176v-391h-164v1458h164v-874l489 473h217zM549 -78q59 0 90 -41t31 -112v-7q0 -217 -185 -229l-28 -2v92l22 2q78 6 84 92h-10q-51 0 -82 27.5t-31 77.5q0 44 31 72t78 28z" />
    <glyph glyph-name="uni013C.ss01" horiz-adv-x="409" 
d="M123 1458h164v-1458h-164v1458zM201 -78q59 0 90 -41t31 -112v-7q0 -217 -185 -229l-28 -2v92l22 2q78 6 84 92h-10q-51 0 -82 27.5t-31 77.5q0 44 31 72t78 28z" />
    <glyph glyph-name="ldot.ss01" horiz-adv-x="825" 
d="M287 0h-164v1458h164v-1458zM616 606q-54 0 -88 33.5t-34 87.5q0 50 34 82.5t88 32.5q50 0 83.5 -33t33.5 -82q0 -51 -34 -86t-83 -35z" />
    <glyph glyph-name="napostrophe.ss01" horiz-adv-x="1402" 
d="M195 1458q133 0 133 -170q0 -260 -226 -307l-20 -4v108l14 2q52 14 78.5 50t32.5 108h-12q-47 0 -80 30.5t-33 74.5q0 47 32.5 77.5t80.5 30.5zM907 1081q177 0 275 -96.5t98 -269.5v-715h-164v698q0 236 -242 236q-113 0 -202 -86q-88 -85 -88 -250v-598h-164v1057h155
v-158q120 182 332 182z" />
    <glyph glyph-name="uni0146.ss01" horiz-adv-x="1105" 
d="M610 1081q177 0 275 -96.5t98 -269.5v-715h-164v698q0 236 -241 236q-114 0 -203 -86q-88 -85 -88 -250v-598h-164v1057h156v-158q120 182 331 182zM545 -78q59 0 90 -41t31 -112v-7q0 -217 -185 -229l-28 -2v92l22 2q78 6 84 92h-10q-51 0 -82 27.5t-31 77.5q0 44 31 72
t78 28z" />
    <glyph glyph-name="odieresis.ss01" horiz-adv-x="1167" 
d="M481 1239q-33 -33 -78 -33q-39 0 -77 33q-32 32 -32 78t32 78t77 32q50 0 78 -32q32 -32 32 -78t-32 -78zM842 1239q-33 -33 -78 -33q-40 0 -78 33q-32 32 -32 78t32 78t78 32q50 0 78 -32q32 -32 32 -78t-32 -78zM1096 528q0 -156 -59.5 -280.5t-177 -198.5t-275.5 -74
t-275.5 74t-177 198.5t-59.5 280.5t59.5 280.5t177 198.5t275.5 74t275.5 -74t177 -198.5t59.5 -280.5zM244 528q0 -66 12.5 -125t39 -110.5t65.5 -89t96 -59t127 -21.5t127 21.5t96 59t65.5 89t39 110.5t12.5 125q0 84 -20 155.5t-59.5 128.5t-106.5 89.5t-154 32.5
t-154 -32.5t-106.5 -89.5t-59.5 -128.5t-20 -155.5z" />
    <glyph glyph-name="uni0157.ss01" horiz-adv-x="724" 
d="M618 1073q42 0 56 -2v-158h-41q-163 0 -254.5 -80.5t-91.5 -230.5v-602h-164v1057h156v-187q108 203 339 203zM201 -78q59 0 90 -41t31 -112v-7q0 -217 -185 -229l-28 -2v92l22 2q78 6 84 92h-10q-51 0 -82 27.5t-31 77.5q0 44 31 72t78 28z" />
    <glyph glyph-name="uni0219.ss01" horiz-adv-x="956" 
d="M457 621l94 -19q195 -38 279.5 -110t84.5 -201q0 -149 -111 -232.5t-308 -83.5q-425 0 -449 361h166q13 -118 78 -168.5t205 -50.5q254 0 254 164q0 72 -52.5 109t-189.5 63l-98 18q-330 62 -330 311q0 137 103 218t282 81q209 0 317 -89t113 -261h-164
q-6 114 -69.5 161.5t-196.5 47.5q-105 0 -163 -41t-58 -115q0 -69 48.5 -104t164.5 -59zM494 -102q59 0 89.5 -41.5t30.5 -112.5v-6q0 -218 -184 -230l-29 -2v93l23 2q78 6 84 92h-10q-51 0 -82 27t-31 77q0 44 31 72.5t78 28.5z" />
    <glyph glyph-name="uni021B.ss01" horiz-adv-x="636" 
d="M586 1057v-144h-217v-686q0 -90 120 -90h97v-137q-68 -6 -117 -6q-264 0 -264 219v700h-174v144h174v299h164v-299h217zM393 -78q59 0 90 -41t31 -112v-7q0 -217 -184 -229l-29 -2v92l23 2q78 6 84 92h-11q-51 0 -81.5 27.5t-30.5 77.5q0 44 30.5 72t77.5 28z" />
    <glyph glyph-name="udieresis.ss01" horiz-adv-x="1105" 
d="M440 1239q-33 -33 -78 -33q-39 0 -77 33q-32 32 -32 78t32 78t77 32q50 0 78 -32q32 -32 32 -78t-32 -78zM801 1239q-33 -33 -78 -33q-40 0 -78 33q-32 32 -32 78t32 78t78 32q50 0 78 -32q32 -32 32 -78t-32 -78zM819 459v598h164v-1057h-156v158q-121 -183 -331 -183
q-177 0 -275 97t-98 270v715h164v-699q0 -235 241 -235q114 0 203 86q88 85 88 250z" />
    <glyph glyph-name="wdieresis.ss01" horiz-adv-x="1593" 
d="M694 1239q-33 -33 -78 -33q-39 0 -77 33q-32 32 -32 78t32 78t77 32q50 0 78 -32q32 -32 32 -78t-32 -78zM1055 1239q-33 -33 -78 -33q-40 0 -78 33q-32 32 -32 78t32 78t78 32q50 0 78 -32q32 -32 32 -78t-32 -78zM1257 580l150 477h176l-352 -1057h-172l-156 489
q-70 229 -106 359q-52 -184 -109 -359l-153 -489h-173l-352 1057h176l150 -477q54 -170 115 -385q72 259 112 385l148 477h172l147 -477q26 -88 64.5 -214.5t50.5 -166.5q24 88 112 381z" />
    <glyph glyph-name="ydieresis.ss01" horiz-adv-x="980" 
d="M389 1239q-33 -33 -78 -33q-40 0 -78 33q-32 32 -32 78t32 78t78 32q50 0 78 -32q32 -32 32 -78t-32 -78zM750 1239q-33 -33 -78 -33q-40 0 -78 33q-32 32 -32 78t32 78t78 32q50 0 78 -32q32 -32 32 -78t-32 -78zM643 618l150 439h178l-447 -1223q-48 -132 -129 -187
t-215 -55q-37 0 -98 7v137h96q141 0 193 131l37 98l-398 1092h180l150 -441q71 -208 152 -456q57 184 151 458z" />
    <glyph glyph-name="zdotaccent.ss01" horiz-adv-x="997" 
d="M578 1239q-33 -33 -78 -33q-40 0 -78 33q-32 32 -32 78t32 78t78 32q50 0 78 -32q32 -32 32 -78t-32 -78zM502 143h424v-143h-854v123l483 622q21 28 137 173q-128 -5 -225 -5h-375v144h805v-123l-483 -623q-35 -45 -84.5 -106t-53.5 -66q102 4 226 4z" />
    <glyph glyph-name="a.ss02" horiz-adv-x="1189" 
d="M903 907v150h164v-1057h-156v162q-120 -187 -356 -187q-120 0 -213.5 43.5t-151.5 119.5t-88 175t-30 215t30 215t88 175t151.5 119.5t213.5 43.5q226 0 348 -174zM575 123q154 0 243 107.5t89 297.5q0 84 -18.5 155t-57 128.5t-104 90t-152.5 32.5q-86 0 -151.5 -34.5
t-103.5 -94t-57 -131.5t-19 -154q0 -189 87.5 -293t243.5 -104z" />
    <glyph glyph-name="aacute.ss02" horiz-adv-x="1189" 
d="M684 1511h221l-252 -294h-145zM903 907v150h164v-1057h-156v162q-120 -187 -356 -187q-120 0 -213.5 43.5t-151.5 119.5t-88 175t-30 215t30 215t88 175t151.5 119.5t213.5 43.5q226 0 348 -174zM575 123q154 0 243 107.5t89 297.5q0 84 -18.5 155t-57 128.5t-104 90
t-152.5 32.5q-86 0 -151.5 -34.5t-103.5 -94t-57 -131.5t-19 -154q0 -189 87.5 -293t243.5 -104z" />
    <glyph glyph-name="abreve.ss02" horiz-adv-x="1189" 
d="M575 1206q-136 0 -222.5 83t-92.5 222h141q6 -83 52.5 -127.5t121.5 -44.5t122 44.5t53 127.5h141q-10 -139 -96 -222t-220 -83zM903 907v150h164v-1057h-156v162q-120 -187 -356 -187q-120 0 -213.5 43.5t-151.5 119.5t-88 175t-30 215t30 215t88 175t151.5 119.5
t213.5 43.5q226 0 348 -174zM575 123q154 0 243 107.5t89 297.5q0 84 -18.5 155t-57 128.5t-104 90t-152.5 32.5q-86 0 -151.5 -34.5t-103.5 -94t-57 -131.5t-19 -154q0 -189 87.5 -293t243.5 -104z" />
    <glyph glyph-name="acircumflex.ss02" horiz-adv-x="1189" 
d="M768 1217l-193 198l-192 -198h-164l234 294h245l234 -294h-164zM903 907v150h164v-1057h-156v162q-120 -187 -356 -187q-120 0 -213.5 43.5t-151.5 119.5t-88 175t-30 215t30 215t88 175t151.5 119.5t213.5 43.5q226 0 348 -174zM575 123q154 0 243 107.5t89 297.5
q0 84 -18.5 155t-57 128.5t-104 90t-152.5 32.5q-86 0 -151.5 -34.5t-103.5 -94t-57 -131.5t-19 -154q0 -189 87.5 -293t243.5 -104z" />
    <glyph glyph-name="adieresis.ss02" horiz-adv-x="1189" 
d="M307 1417h174v-200h-174v200zM666 1417h174v-200h-174v200zM903 907v150h164v-1057h-156v162q-120 -187 -356 -187q-120 0 -213.5 43.5t-151.5 119.5t-88 175t-30 215t30 215t88 175t151.5 119.5t213.5 43.5q226 0 348 -174zM575 123q154 0 243 107.5t89 297.5
q0 84 -18.5 155t-57 128.5t-104 90t-152.5 32.5q-86 0 -151.5 -34.5t-103.5 -94t-57 -131.5t-19 -154q0 -189 87.5 -293t243.5 -104z" />
    <glyph glyph-name="agrave.ss02" horiz-adv-x="1189" 
d="M475 1511l176 -294h-145l-252 294h221zM903 907v150h164v-1057h-156v162q-120 -187 -356 -187q-120 0 -213.5 43.5t-151.5 119.5t-88 175t-30 215t30 215t88 175t151.5 119.5t213.5 43.5q226 0 348 -174zM575 123q154 0 243 107.5t89 297.5q0 84 -18.5 155t-57 128.5
t-104 90t-152.5 32.5q-86 0 -151.5 -34.5t-103.5 -94t-57 -131.5t-19 -154q0 -189 87.5 -293t243.5 -104z" />
    <glyph glyph-name="amacron.ss02" horiz-adv-x="1189" 
d="M279 1354h593v-137h-593v137zM903 907v150h164v-1057h-156v162q-120 -187 -356 -187q-120 0 -213.5 43.5t-151.5 119.5t-88 175t-30 215t30 215t88 175t151.5 119.5t213.5 43.5q226 0 348 -174zM575 123q154 0 243 107.5t89 297.5q0 84 -18.5 155t-57 128.5t-104 90
t-152.5 32.5q-86 0 -151.5 -34.5t-103.5 -94t-57 -131.5t-19 -154q0 -189 87.5 -293t243.5 -104z" />
    <glyph glyph-name="aogonek.ss02" horiz-adv-x="1189" 
d="M1067 1057v-1057q-213 -106 -213 -205q0 -41 28.5 -63.5t73.5 -22.5q58 0 111 21v-133q-58 -23 -139 -23q-98 0 -164 50.5t-66 139.5q0 70 58 135.5t155 100.5v162q-120 -187 -356 -187q-120 0 -213.5 43.5t-151.5 119.5t-88 175t-30 215t30 215t88 175t151.5 119.5
t213.5 43.5q226 0 348 -174v150h164zM575 123q154 0 243 107.5t89 297.5q0 84 -18.5 155t-57 128.5t-104 90t-152.5 32.5q-86 0 -151.5 -34.5t-103.5 -94t-57 -131.5t-19 -154q0 -189 87.5 -293t243.5 -104z" />
    <glyph glyph-name="aring.ss02" horiz-adv-x="1189" 
d="M836 1456q0 -109 -75.5 -179.5t-185.5 -70.5q-109 0 -184.5 71.5t-75.5 178.5t75.5 178.5t184.5 71.5q110 0 185.5 -70.5t75.5 -179.5zM670 1550q-37 37 -95 37q-54 0 -94 -37q-38 -38 -38 -93.5t38 -92.5q42 -39 94 -39q56 0 95 39q38 37 38 92.5t-38 93.5zM903 907v150
h164v-1057h-156v162q-120 -187 -356 -187q-120 0 -213.5 43.5t-151.5 119.5t-88 175t-30 215t30 215t88 175t151.5 119.5t213.5 43.5q226 0 348 -174zM575 123q154 0 243 107.5t89 297.5q0 84 -18.5 155t-57 128.5t-104 90t-152.5 32.5q-86 0 -151.5 -34.5t-103.5 -94
t-57 -131.5t-19 -154q0 -189 87.5 -293t243.5 -104z" />
    <glyph glyph-name="aringacute.ss02" horiz-adv-x="1189" 
d="M684 2140h221l-252 -295h-145zM836 1456q0 -109 -75.5 -179.5t-185.5 -70.5q-109 0 -184.5 71.5t-75.5 178.5t75.5 178.5t184.5 71.5q110 0 185.5 -70.5t75.5 -179.5zM670 1550q-37 37 -95 37q-54 0 -94 -37q-38 -38 -38 -93.5t38 -92.5q42 -39 94 -39q56 0 95 39
q38 37 38 92.5t-38 93.5zM903 907v150h164v-1057h-156v162q-120 -187 -356 -187q-120 0 -213.5 43.5t-151.5 119.5t-88 175t-30 215t30 215t88 175t151.5 119.5t213.5 43.5q226 0 348 -174zM575 123q154 0 243 107.5t89 297.5q0 84 -18.5 155t-57 128.5t-104 90t-152.5 32.5
q-86 0 -151.5 -34.5t-103.5 -94t-57 -131.5t-19 -154q0 -189 87.5 -293t243.5 -104z" />
    <glyph glyph-name="atilde.ss02" horiz-adv-x="1189" 
d="M426 1319q-57 0 -57 -102h-140q0 251 185 251q67 0 178 -57q83 -45 129 -45q57 0 57 102h140q0 -251 -185 -251q-59 0 -186 59q-87 43 -121 43zM903 907v150h164v-1057h-156v162q-120 -187 -356 -187q-120 0 -213.5 43.5t-151.5 119.5t-88 175t-30 215t30 215t88 175
t151.5 119.5t213.5 43.5q226 0 348 -174zM575 123q154 0 243 107.5t89 297.5q0 84 -18.5 155t-57 128.5t-104 90t-152.5 32.5q-86 0 -151.5 -34.5t-103.5 -94t-57 -131.5t-19 -154q0 -189 87.5 -293t243.5 -104z" />
    <glyph glyph-name="adieresis.ss01.ss02" horiz-adv-x="1189" 
d="M473 1239q-33 -33 -78 -33q-40 0 -78 33q-32 32 -32 78t32 78t78 32q50 0 78 -32q32 -32 32 -78t-32 -78zM834 1239q-33 -33 -78 -33q-40 0 -78 33q-32 32 -32 78t32 78t78 32q50 0 78 -32q32 -32 32 -78t-32 -78zM903 907v150h164v-1057h-156v162q-120 -187 -356 -187
q-120 0 -213.5 43.5t-151.5 119.5t-88 175t-30 215t30 215t88 175t151.5 119.5t213.5 43.5q226 0 348 -174zM575 123q154 0 243 107.5t89 297.5q0 84 -18.5 155t-57 128.5t-104 90t-152.5 32.5q-86 0 -151.5 -34.5t-103.5 -94t-57 -131.5t-19 -154q0 -189 87.5 -293
t243.5 -104z" />
    <glyph glyph-name="uni021B.ss01.ss05" horiz-adv-x="616" 
d="M369 1356v-299h196v-144h-196v-913h-164v913h-174v144h174v299h164zM283 -78q59 0 89.5 -41t30.5 -112v-7q0 -217 -184 -229l-29 -2v92l23 2q78 6 84 92h-10q-51 0 -82 27.5t-31 77.5q0 44 31 72t78 28z" />
    <glyph glyph-name="udieresis.ss01.ss05" horiz-adv-x="1105" 
d="M440 1239q-33 -33 -78 -33q-39 0 -77 33q-32 32 -32 78t32 78t77 32q50 0 78 -32q32 -32 32 -78t-32 -78zM801 1239q-33 -33 -78 -33q-40 0 -78 33q-32 32 -32 78t32 78t78 32q50 0 78 -32q32 -32 32 -78t-32 -78zM819 459v598h164v-1057h-156v158q-121 -183 -331 -183
q-177 0 -275 97t-98 270v715h164v-699q0 -235 241 -235q114 0 203 86q88 85 88 250z" />
    <glyph glyph-name="t.ss05" horiz-adv-x="616" 
d="M369 1057h196v-144h-196v-913h-164v913h-174v144h174v299h164v-299z" />
    <glyph glyph-name="tbar.ss05" horiz-adv-x="616" 
d="M565 1057v-144h-196v-303h196v-133h-196v-477h-164v477h-170v133h170v303h-174v144h174v299h164v-299h196z" />
    <glyph glyph-name="tcaron.ss05" horiz-adv-x="616" 
d="M510 1458h190l-143 -340h-125zM205 1356h164v-299h196v-144h-196v-913h-164v913h-174v144h174v299z" />
    <glyph glyph-name="uni0163.ss05" horiz-adv-x="616" 
d="M369 913v-913h-15l-78 -88h19q84 0 134 -45.5t50 -116.5q0 -94 -69 -145t-211 -51q-63 0 -125 12v94q57 -8 119 -8q60 0 94.5 25t34.5 69q0 84 -117 84q-40 0 -58 -2v78l74 94h-16v913h-174v144h174v299h164v-299h196v-144h-196z" />
    <glyph glyph-name="uni021B.ss05" horiz-adv-x="616" 
d="M369 1356v-299h196v-144h-196v-913h-164v913h-174v144h174v299h164zM293 -332h-105v172h201v-211q0 -80 -40.5 -120t-131.5 -46l-29 -2v88l23 2q82 6 82 72v45z" />
    <glyph glyph-name="udieresis.ss01.ss06" horiz-adv-x="1105" 
d="M451 1239q-33 -33 -78 -33q-40 0 -78 33q-32 32 -32 78t32 78t78 32q50 0 78 -32q32 -32 32 -78t-32 -78zM811 1239q-33 -33 -78 -33q-40 0 -78 33q-32 32 -32 78t32 78t78 32q50 0 78 -32q32 -32 32 -78t-32 -78zM983 397q0 -186 -123 -304t-311 -118t-307 117t-119 305
v660h164v-662q0 -129 71.5 -202.5t190.5 -73.5q120 0 195 74.5t75 201.5v662h164v-660z" />
    <glyph glyph-name="u.ss06" horiz-adv-x="1105" 
d="M983 397q0 -186 -123 -304t-311 -118t-307 117t-119 305v660h164v-662q0 -129 71.5 -202.5t190.5 -73.5q120 0 195 74.5t75 201.5v662h164v-660z" />
    <glyph glyph-name="uacute.ss06" horiz-adv-x="1105" 
d="M631 1217h-146l177 294h221zM983 397q0 -186 -123 -304t-311 -118t-307 117t-119 305v660h164v-662q0 -129 71.5 -202.5t190.5 -73.5q120 0 195 74.5t75 201.5v662h164v-660z" />
    <glyph glyph-name="ubreve.ss06" horiz-adv-x="1105" 
d="M553 1206q-136 0 -222.5 83t-92.5 222h141q6 -83 52.5 -127.5t121.5 -44.5t121.5 44.5t52.5 127.5h141q-10 -139 -95.5 -222t-219.5 -83zM983 397q0 -186 -123 -304t-311 -118t-307 117t-119 305v660h164v-662q0 -129 71.5 -202.5t190.5 -73.5q120 0 195 74.5t75 201.5
v662h164v-660z" />
    <glyph glyph-name="ucircumflex.ss06" horiz-adv-x="1105" 
d="M745 1217l-192 198l-193 -198h-163l233 294h246l233 -294h-164zM819 395v662h164v-660q0 -186 -123 -304t-311 -118t-307 117t-119 305v660h164v-662q0 -129 71.5 -202.5t190.5 -73.5q120 0 195 74.5t75 201.5z" />
    <glyph glyph-name="udieresis.ss06" horiz-adv-x="1105" 
d="M459 1217h-174v200h174v-200zM817 1217h-174v200h174v-200zM983 397q0 -186 -123 -304t-311 -118t-307 117t-119 305v660h164v-662q0 -129 71.5 -202.5t190.5 -73.5q120 0 195 74.5t75 201.5v662h164v-660z" />
    <glyph glyph-name="ugrave.ss06" horiz-adv-x="1105" 
d="M629 1217h-146l-252 294h222zM983 397q0 -186 -123 -304t-311 -118t-307 117t-119 305v660h164v-662q0 -129 71.5 -202.5t190.5 -73.5q120 0 195 74.5t75 201.5v662h164v-660z" />
    <glyph glyph-name="uhungarumlaut.ss06" horiz-adv-x="1105" 
d="M123 1057h164v-662q0 -129 71.5 -202.5t190.5 -73.5q120 0 195 74.5t75 201.5v662h164v-660q0 -186 -123 -304t-311 -118t-307 117t-119 305v660zM670 1217l176 294h213l-252 -294h-137zM334 1217l176 294h213l-252 -294h-137z" />
    <glyph glyph-name="umacron.ss06" horiz-adv-x="1105" 
d="M850 1217h-594v137h594v-137zM983 397q0 -186 -123 -304t-311 -118t-307 117t-119 305v660h164v-662q0 -129 71.5 -202.5t190.5 -73.5q120 0 195 74.5t75 201.5v662h164v-660z" />
    <glyph glyph-name="uogonek.ss06" horiz-adv-x="1105" 
d="M819 395v662h164v-660q0 -127 -62.5 -227.5t-172.5 -151.5q-207 -106 -207 -202q0 -41 28.5 -63.5t73.5 -22.5q61 0 111 20v-133q-58 -23 -140 -23q-98 0 -163.5 51t-65.5 140q0 113 123 192q-174 12 -279.5 128.5t-105.5 291.5v660h164v-662q0 -129 71.5 -202.5
t190.5 -73.5q120 0 195 74.5t75 201.5z" />
    <glyph glyph-name="uring.ss06" horiz-adv-x="1105" 
d="M813 1456q0 -109 -75 -179.5t-185 -70.5q-109 0 -184.5 71.5t-75.5 178.5t75.5 178.5t184.5 71.5q110 0 185 -70.5t75 -179.5zM459 1364q42 -39 94 -39q55 0 94 39q38 37 38 92.5t-38 93.5q-37 37 -94 37q-54 0 -94 -37q-38 -38 -38 -93.5t38 -92.5zM983 397
q0 -186 -123 -304t-311 -118t-307 117t-119 305v660h164v-662q0 -129 71.5 -202.5t190.5 -73.5q120 0 195 74.5t75 201.5v662h164v-660z" />
    <glyph glyph-name="utilde.ss06" horiz-adv-x="1105" 
d="M346 1217h-139q0 251 184 251q67 0 178 -57q83 -45 129 -45q58 0 58 102h139q0 -251 -184 -251q-60 0 -187 59q-87 43 -121 43q-57 0 -57 -102zM983 397q0 -186 -123 -304t-311 -118t-307 117t-119 305v660h164v-662q0 -129 71.5 -202.5t190.5 -73.5q120 0 195 74.5
t75 201.5v662h164v-660z" />
    <glyph glyph-name="ydieresis.ss01.ss07" horiz-adv-x="980" 
d="M389 1239q-33 -33 -78 -33q-40 0 -78 33q-32 32 -32 78t32 78t78 32q50 0 78 -32q32 -32 32 -78t-32 -78zM750 1239q-33 -33 -78 -33q-40 0 -78 33q-32 32 -32 78t32 78t78 32q50 0 78 -32q32 -32 32 -78t-32 -78zM643 645l150 412h178l-400 -1022l-168 -436h-161
l168 432l-400 1026h180l156 -424q50 -134 146 -406q7 17 67 189q31 88 84 229z" />
    <glyph glyph-name="y.ss07" horiz-adv-x="980" 
d="M643 645l150 412h178l-400 -1022l-168 -436h-161l168 432l-400 1026h180l156 -424q50 -134 146 -406q7 17 67 189q31 88 84 229z" />
    <glyph glyph-name="yacute.ss07" horiz-adv-x="980" 
d="M600 1511h221l-252 -294h-145zM643 645l150 412h178l-400 -1022l-168 -436h-161l168 432l-400 1026h180l156 -424q50 -134 146 -406q7 17 67 189q31 88 84 229z" />
    <glyph glyph-name="ycircumflex.ss07" horiz-adv-x="980" 
d="M684 1217l-192 198l-193 -198h-164l234 294h245l234 -294h-164zM643 645l150 412h178l-400 -1022l-168 -436h-161l168 432l-400 1026h180l156 -424q50 -134 146 -406q7 17 67 189q31 88 84 229z" />
    <glyph glyph-name="ydieresis.ss07" horiz-adv-x="980" 
d="M223 1417h174v-200h-174v200zM582 1417h174v-200h-174v200zM643 645l150 412h178l-400 -1022l-168 -436h-161l168 432l-400 1026h180l156 -424q50 -134 146 -406q7 17 67 189q31 88 84 229z" />
    <glyph glyph-name="ygrave.ss07" horiz-adv-x="980" 
d="M391 1511l176 -294h-145l-252 294h221zM643 645l150 412h178l-400 -1022l-168 -436h-161l168 432l-400 1026h180l156 -424q50 -134 146 -406q7 17 67 189q31 88 84 229z" />
    <glyph glyph-name="l.ss08" horiz-adv-x="485" 
d="M360 -6q-237 0 -237 219v1245h164v-1231q0 -90 100 -90h78v-137q-59 -6 -105 -6z" />
    <glyph glyph-name="lacute.ss08" horiz-adv-x="485" 
d="M276 1546h-145l176 295h221zM360 -6q-237 0 -237 219v1245h164v-1231q0 -90 100 -90h78v-137q-59 -6 -105 -6z" />
    <glyph glyph-name="lcaron.ss08" horiz-adv-x="612" 
d="M360 -6q-237 0 -237 219v1245h164v-1231q0 -90 100 -90h78v-137q-59 -6 -105 -6zM489 1118h-124l77 340h191z" />
    <glyph glyph-name="uni013C.ss08" horiz-adv-x="485" 
d="M387 137h78v-137q-59 -6 -105 -6q-237 0 -237 219v1245h164v-1231q0 -90 100 -90zM211 -332h-105v172h201v-211q0 -80 -40.5 -120t-131.5 -46l-29 -2v88l23 2q82 6 82 72v45z" />
    <glyph glyph-name="ldot.ss08" horiz-adv-x="808" 
d="M360 -6q-237 0 -237 219v1245h164v-1231q0 -90 100 -90h78v-137q-59 -6 -105 -6zM717 623h-207v204h207v-204z" />
    <glyph glyph-name="lslash.ss08" horiz-adv-x="536" 
d="M438 137h78v-137q-58 -6 -104 -6q-238 0 -238 219v395l-174 -98v156l174 98v694h164v-602l172 96v-155l-172 -97v-473q0 -90 100 -90z" />
    <glyph glyph-name="uni013C.ss01.ss08" horiz-adv-x="485" 
d="M387 137h78v-137q-59 -6 -105 -6q-237 0 -237 219v1245h164v-1231q0 -90 100 -90zM201 -78q59 0 90 -41t31 -112v-7q0 -217 -185 -229l-28 -2v92l22 2q78 6 84 92h-10q-51 0 -82 27.5t-31 77.5q0 44 31 72t78 28z" />
    <glyph glyph-name="ldot.ss01.ss08" horiz-adv-x="825" 
d="M360 -6q-237 0 -237 219v1245h164v-1231q0 -90 100 -90h78v-137q-59 -6 -105 -6zM616 606q-54 0 -88 33.5t-34 87.5q0 50 34 82.5t88 32.5q50 0 83.5 -33t33.5 -82q0 -51 -34 -86t-83 -35z" />
    <glyph glyph-name="fi.ss01" horiz-adv-x="1044" 
d="M205 1057v108q0 297 295 297q38 0 104 -4v-139h-94q-141 0 -141 -150v-112h225v-144h-225v-913h-164v913h-174v144h174zM918 1239q-33 -33 -78 -33q-40 0 -78 33q-32 32 -32 78t32 78t78 32q50 0 78 -32q32 -32 32 -78t-32 -78zM922 0h-164v1057h164v-1057z" />
    <glyph glyph-name="fl.ss08" horiz-adv-x="1099" 
d="M205 1057v108q0 297 295 297q38 0 104 -4v-139h-94q-141 0 -141 -150v-112h225v-144h-225v-913h-164v913h-174v144h174zM1001 137h78v-137q-59 -6 -104 -6q-238 0 -238 219v1245h164v-1231q0 -90 100 -90z" />
    <glyph glyph-name="ordfeminine.ss02" horiz-adv-x="1060" 
d="M807 1319v139h162v-921h-156v145q-105 -166 -309 -166q-192 0 -307 130t-115 349q0 220 115 351t307 131q200 0 303 -158zM250 989q0 -146 69.5 -240t210.5 -94q95 0 160.5 49t93 123.5t27.5 167.5q0 160 -75.5 251t-205.5 91q-129 0 -204.5 -93.5t-75.5 -254.5z" />
    <glyph glyph-name="t.sups.ss05" horiz-adv-x="604" 
d="M373 1458h170v-133h-170v-788h-162v788h-150v133h150v262h162v-262z" />
    <glyph glyph-name="zero.ss09" horiz-adv-x="1957" 
d="M1909 -180h-1860v1818h1860v-1818zM604 729q0 -77 11.5 -145t39 -130.5t69.5 -107.5t107.5 -71.5t147.5 -26.5t147.5 26.5t107.5 71.5t69.5 107.5t39 130.5t11.5 145q0 99 -19 181.5t-60.5 152.5t-116.5 109.5t-179 39.5q-83 0 -148 -26.5t-107 -71.5t-69.5 -108
t-39 -131t-11.5 -146zM1188 729q0 -346 -209 -346t-209 346q0 348 209 348t209 -348z" />
    <glyph glyph-name="one.ss09" horiz-adv-x="1957" 
d="M1909 -180h-1860v1818h1860v-1818zM924 930v-666h174v932h-146q-31 -85 -87.5 -115t-166.5 -30v-121h226z" />
    <glyph glyph-name="two.ss09" horiz-adv-x="1957" 
d="M1909 -180h-1860v1818h1860v-1818zM637 350l-2 -59h686v135h-512q12 123 170 188l78 33q131 56 192.5 131t61.5 180q0 121 -86.5 199t-241.5 78q-164 0 -248.5 -81.5t-89.5 -221.5h156q1 79 47.5 123.5t128.5 44.5q178 0 178 -146q0 -120 -162 -184l-63 -25
q-154 -61 -220.5 -156.5t-72.5 -238.5z" />
    <glyph glyph-name="three.ss09" horiz-adv-x="1957" 
d="M1909 -180h-1860v1818h1860v-1818zM981 248q160 0 256 77.5t96 206.5q0 84 -44 145.5t-120 84.5q63 26 101.5 82t38.5 123q0 113 -87 179t-239 66q-150 0 -237.5 -70.5t-94.5 -199.5h154q15 143 178 143q79 0 126.5 -36.5t47.5 -98.5q0 -141 -180 -141h-62v-117h58
q203 0 203 -155q0 -73 -53.5 -117.5t-141.5 -44.5q-204 0 -207 188h-156q1 -151 96.5 -233t266.5 -82z" />
    <glyph glyph-name="four.ss09" horiz-adv-x="1957" 
d="M1909 -180h-1860v1818h1860v-1818zM1014 514v-225h164v225h135v135h-135v563h-168l-463 -538v-160h467zM1022 649h-336l336 387v-387z" />
    <glyph glyph-name="five.ss09" horiz-adv-x="1957" 
d="M1909 -180h-1860v1818h1860v-1818zM981 248q147 0 245.5 87t98.5 232q0 142 -84.5 231t-220.5 89q-130 0 -201 -68l43 238h424v135h-547l-96 -533h158q24 48 71.5 76.5t108.5 28.5q86 0 139.5 -55t53.5 -142q0 -85 -53.5 -138.5t-139.5 -53.5q-158 0 -195 143h-155
q19 -123 114 -196.5t236 -73.5z" />
    <glyph glyph-name="six.ss09" horiz-adv-x="1957" 
d="M1909 -180h-1860v1818h1860v-1818zM979 248q154 0 250 88.5t96 230.5q0 141 -91.5 230.5t-232.5 89.5q-147 0 -239 -109v13q18 294 225 294q136 0 170 -118h156q-20 115 -107.5 180t-218.5 65q-184 0 -279.5 -128.5t-95.5 -376.5q0 -98 19.5 -178t61.5 -144.5
t114.5 -100.5t171.5 -36zM979 375q-85 0 -138 52t-53 136t54.5 138.5t136.5 54.5q85 0 140 -54t55 -139q0 -82 -54.5 -135t-140.5 -53z" />
    <glyph glyph-name="seven.ss09" horiz-adv-x="1957" 
d="M1909 -180h-1860v1818h1860v-1818zM817 244h170q1 260 78.5 444t245.5 340v139h-641v-135h489q-160 -143 -249.5 -354.5t-92.5 -433.5z" />
    <glyph glyph-name="eight.ss09" horiz-adv-x="1957" 
d="M1909 -180h-1860v1818h1860v-1818zM621 520q0 -71 31.5 -125t84.5 -85t114 -46.5t128 -15.5t128 15.5t114 46.5t84.5 85t31.5 125q0 168 -166 238q121 71 121 203q0 115 -85 183t-228 68t-229 -68t-86 -183q0 -63 33.5 -117.5t90.5 -85.5q-167 -67 -167 -238zM1153 952
q0 -70 -51 -108.5t-123 -38.5q-78 0 -125 41t-47 107t47 104q45 39 125 39q73 0 123.5 -36.5t50.5 -107.5zM1182 537q0 -84 -57.5 -124t-145.5 -40q-86 0 -144.5 40.5t-58.5 123.5q0 84 58 124.5t145 40.5q94 0 149 -43q54 -48 54 -122z" />
    <glyph glyph-name="nine.ss09" horiz-adv-x="1957" 
d="M1909 -180h-1860v1818h1860v-1818zM975 248q184 0 279.5 129t95.5 377q0 97 -20 177t-62 144.5t-114.5 100.5t-170.5 36q-154 0 -250 -88.5t-96 -230.5q0 -140 92 -230t232 -90q149 0 229 99l10 12v-8q-11 -154 -65.5 -227.5t-159.5 -73.5q-136 0 -170 119h-156
q20 -115 107.5 -180.5t218.5 -65.5zM983 705q-86 0 -140.5 54.5t-54.5 139.5q0 82 54.5 134t140.5 52q85 0 138 -52t53 -134q0 -84 -54.5 -139t-136.5 -55z" />
    <glyph glyph-name="zero.ss10" horiz-adv-x="1957" 
d="M1909 -180h-1860v1818h1860v-1818zM213 1491v-1524h1532v1524h-1532zM1358 729q0 -78 -12 -146.5t-40 -131.5t-70.5 -107.5t-108 -71t-148.5 -26.5t-148.5 26.5t-108 71t-70.5 107.5t-40 131.5t-12 146.5q0 230 97.5 359t281.5 129t281.5 -129t97.5 -359zM774 729
q0 -342 205 -342t205 342q0 344 -205 344t-205 -344z" />
    <glyph glyph-name="one.ss10" horiz-adv-x="1957" 
d="M49 -180v1818h1860v-1818h-1860zM213 -33h1532v1524h-1532v-1524zM1100 264h-166v701q-68 -35 -232 -35v121q115 6 169 34.5t85 110.5h144v-932z" />
    <glyph glyph-name="two.ss10" horiz-adv-x="1957" 
d="M49 -180v1818h1860v-1818h-1860zM213 -33h1532v1524h-1532v-1524zM813 408h514v-144h-694l2 64q6 146 73 242t222 157l63 25q160 65 160 180q0 141 -174 141q-84 0 -128 -46t-44 -122h-162q2 141 88 226.5t252 85.5q156 0 244 -79t88 -202q0 -204 -256 -315l-78 -33
q-81 -36 -120.5 -77t-49.5 -103z" />
    </font>
</defs>
</svg>
